<?xml version="1.0" standalone="no"?>
<!DOCTYPE svg PUBLIC "-//W3C//DTD SVG 1.1//EN" "http://www.w3.org/Graphics/SVG/1.1/DTD/svg11.dtd" >
<svg xmlns="http://www.w3.org/2000/svg" xmlns:xlink="http://www.w3.org/1999/xlink" version="1.1">
<metadata>
Created by FontForge 20170731 at Fri Nov  2 23:15:31 2018
 By Aleksey,,,
Copyright (c) 2018 by Alexander Slobzheninov. All rights reserved.
</metadata>
<defs>
<font id="ObjectSans-Regular" horiz-adv-x="605" >
  <font-face 
    font-family="Object Sans"
    font-weight="400"
    font-stretch="normal"
    units-per-em="1000"
    panose-1="0 0 5 0 0 0 0 0 0 0"
    ascent="800"
    descent="-200"
    x-height="505"
    cap-height="705"
    bbox="-161 -268 1429 957"
    underline-thickness="50"
    underline-position="-175"
    unicode-range="U+000D-FB00"
  />
<missing-glyph horiz-adv-x="0" 
 />
    <glyph glyph-name=".notdef" horiz-adv-x="0" 
 />
    <glyph glyph-name=".null" horiz-adv-x="0" 
 />
    <glyph glyph-name="nonmarkingreturn" horiz-adv-x="333" 
 />
    <glyph glyph-name="NULL" horiz-adv-x="736" 
d="M95 0v705h546v-705h-546zM170 67h396v572h-396v-572z" />
    <glyph glyph-name="NULL" horiz-adv-x="736" 
d="M95 0v705h546v-705h-546zM170 67h396v572h-396v-572z" />
    <glyph glyph-name="CR" unicode="&#xd;" horiz-adv-x="30" 
 />
    <glyph glyph-name="space" unicode=" " horiz-adv-x="250" 
 />
    <glyph glyph-name="exclam" unicode="!" horiz-adv-x="255" 
d="M102 216l-20 304v185h92v-185l-21 -304h-51zM128 -13q-25 0 -40 15.5t-15 39.5t15 39.5t40 15.5q24 0 39.5 -15.5t15.5 -39.5t-15.5 -39.5t-39.5 -15.5z" />
    <glyph glyph-name="quotedbl" unicode="&#x22;" horiz-adv-x="331" 
d="M58 384l-8 182v139h73v-139l-7 -182h-58zM216 384l-8 182v139h73v-139l-7 -182h-58z" />
    <glyph glyph-name="numbersign" unicode="#" horiz-adv-x="951" 
d="M209 0l66 244h-224v61h240l39 147h-229v62h245l59 222h73l-59 -222h170l59 222h73l-59 -222h238v-62h-255l-39 -147h244v-61h-260l-64 -244h-73l65 244h-171l-65 -244h-73zM363 305h171l39 147h-171z" />
    <glyph glyph-name="dollar" unicode="$" horiz-adv-x="687" 
d="M630 190q0 -94 -65 -151t-181 -63v-96h-84v98q-114 14 -178 80t-64 171h90q0 -82 55 -128t154 -46q86 0 134 34.5t48 94.5q0 28 -12 49t-28 33.5t-48 22.5t-53 14t-63 11q-46 7 -77.5 14.5t-70.5 23t-62.5 36t-40 54.5t-16.5 78q0 89 61 145t171 64v91h84v-93
q108 -11 169 -73.5t61 -162.5h-89q1 75 -49 117t-141 42q-84 0 -130 -33.5t-46 -91.5q0 -27 11.5 -47.5t27.5 -32.5t45.5 -21.5t52 -14t61.5 -10.5q40 -7 65.5 -12t61.5 -15.5t58.5 -25t44.5 -35.5t32.5 -51.5t10.5 -69.5z" />
    <glyph glyph-name="percent" unicode="%" horiz-adv-x="1017" 
d="M253 342q-90 0 -146 56t-56 146q0 89 56 145t146 56t146 -56t56 -145q0 -90 -56 -146t-146 -56zM200 0l516 735h101l-515 -735h-102zM253 427q52 0 84 32t32 85q0 52 -32 84t-84 32t-84.5 -32t-32.5 -84t32.5 -84.5t84.5 -32.5zM764 -10q-89 0 -145 56t-56 146
q0 89 56 145.5t145 56.5q90 0 146 -56.5t56 -145.5q0 -90 -56 -146t-146 -56zM764 76q52 0 84.5 32t32.5 84t-32.5 84.5t-84.5 32.5q-51 0 -83.5 -32.5t-32.5 -84.5t32.5 -84t83.5 -32z" />
    <glyph glyph-name="ampersand" unicode="&#x26;" horiz-adv-x="776" 
d="M290 -25q-102 0 -167.5 57t-65.5 145q0 76 39.5 122.5t108.5 78.5q-72 84 -71 165q1 78 57.5 129t142.5 51q89 0 147.5 -55t59.5 -140h-88q0 50 -34 82.5t-85 32.5q-49 0 -80 -30t-31 -77q0 -71 76 -139l229 -209q48 62 78 152h85q-36 -112 -106 -203l152 -137h-123
l-85 77q-112 -102 -239 -102zM302 55q91 0 170 74l-210 193q-116 -44 -116 -142q0 -55 44 -90t112 -35z" />
    <glyph glyph-name="quotesingle" unicode="'" horiz-adv-x="174" 
d="M59 384l-8 182v139h73v-139l-8 -182h-57z" />
    <glyph glyph-name="parenleft" unicode="(" horiz-adv-x="309" 
d="M211 -180q-71 71 -115 197t-44 261t44 261.5t115 197.5h85q-78 -77 -124 -200t-46 -259q0 -138 46 -260.5t124 -197.5h-85z" />
    <glyph glyph-name="parenright" unicode=")" horiz-adv-x="308" 
d="M98 -180h-86q78 75 124 197.5t46 260.5q0 135 -46 258.5t-124 200.5h86q71 -71 115 -197.5t44 -261.5t-44 -261t-115 -197z" />
    <glyph glyph-name="asterisk" unicode="*" horiz-adv-x="514" 
d="M226 265l3 171l-147 -87l-31 53l149 83l-149 84l31 53l147 -87l-3 170h62l-2 -170l146 87l31 -53l-149 -84l149 -83l-31 -53l-146 87l2 -171h-62z" />
    <glyph glyph-name="plus" unicode="+" horiz-adv-x="572" 
d="M243 139v187h-192v75h192v178h86v-178h192v-75h-192v-187h-86z" />
    <glyph glyph-name="comma" unicode="," horiz-adv-x="213" 
d="M91 -138l-42 10l46 116q-20 5 -31.5 19.5t-11.5 34.5q0 24 15.5 39.5t39.5 15.5q25 0 40 -15.5t15 -39.5q0 -20 -11 -42z" />
    <glyph glyph-name="hyphen" unicode="-" horiz-adv-x="512" 
d="M51 274v75h410v-75h-410z" />
    <glyph glyph-name="period" unicode="." horiz-adv-x="211" 
d="M106 -13q-25 0 -40 15.5t-15 39.5t15 39.5t40 15.5q24 0 39.5 -15.5t15.5 -39.5t-15.5 -39.5t-39.5 -15.5z" />
    <glyph glyph-name="slash" unicode="/" horiz-adv-x="409" 
d="M13 -230l301 935h82l-301 -935h-82z" />
    <glyph glyph-name="zero" unicode="0" horiz-adv-x="728" 
d="M364 -25q-135 0 -218.5 106t-83.5 272t83.5 271.5t218.5 105.5q136 0 219.5 -105.5t83.5 -271.5q0 -167 -83.5 -272.5t-219.5 -105.5zM364 55q96 0 154 83.5t58 214.5t-58 214t-154 83t-153.5 -83t-57.5 -214q0 -132 58 -215t153 -83z" />
    <glyph glyph-name="one" unicode="1" horiz-adv-x="398" 
d="M213 0v579h-10l-163 -124v107l191 143h73v-705h-91z" />
    <glyph glyph-name="two" unicode="2" horiz-adv-x="601" 
d="M62 0v49l295 283q66 64 83 91q26 39 26 81q0 63 -43 104.5t-106 41.5q-69 0 -115.5 -50.5t-50.5 -128.5h-88q0 112 71.5 185.5t181.5 73.5q104 0 172.5 -62t68.5 -158q0 -59 -35 -113t-114 -128l-191 -179v-10h328v-80h-483z" />
    <glyph glyph-name="three" unicode="3" horiz-adv-x="603" 
d="M304 -25q-110 0 -184.5 74t-79.5 187h92q0 -78 49 -129.5t122 -51.5q72 0 119 42.5t47 107.5q0 67 -48 110.5t-121 43.5q-37 0 -67 -13l-27 67l188 202v10h-314v80h453v-61l-196 -212q96 -8 159.5 -72t63.5 -156q0 -99 -72.5 -164t-183.5 -65z" />
    <glyph glyph-name="four" unicode="4" horiz-adv-x="610" 
d="M380 0v156h-348v58l300 491h139v-469h88v-80h-88v-156h-91zM142 236h237v377h-9z" />
    <glyph glyph-name="five" unicode="5" horiz-adv-x="628" 
d="M319 -25q-110 0 -184.5 74t-79.5 187h91q1 -78 50 -129.5t122 -51.5q72 0 119 43t47 109q0 71 -50 115.5t-135 44.5h-185l37 338h365v-80h-291l-19 -178h102q120 0 192.5 -66.5t72.5 -171.5q0 -102 -72 -168t-182 -66z" />
    <glyph glyph-name="six" unicode="6" horiz-adv-x="634" 
d="M318 -25q-115 0 -191 67t-76 163q0 95 77 196l231 304l109 1l-208 -276q37 16 77 16q107 0 176.5 -65.5t69.5 -165.5q0 -104 -75 -172t-190 -68zM320 56q75 1 123.5 45.5t48.5 113.5q0 67 -48.5 110.5t-122.5 43.5q-78 1 -128.5 -43t-50.5 -112q0 -69 50 -114t128 -44z
" />
    <glyph glyph-name="seven" unicode="7" horiz-adv-x="518" 
d="M123 0l265 625h-368v80h477v-54l-275 -651h-99z" />
    <glyph glyph-name="eight" unicode="8" horiz-adv-x="660" 
d="M331 -24q-117 0 -193 59t-76 150q0 68 41 119.5t105 66.5v10q-49 17 -82.5 61.5t-33.5 98.5q0 84 67 137t172 53q104 0 171 -53t67 -137q0 -54 -34 -98.5t-83 -61.5v-10q65 -15 106 -66.5t41 -119.5q0 -91 -75.5 -150t-192.5 -59zM331 412q63 0 104.5 34t41.5 86
t-41.5 85.5t-104.5 33.5q-64 0 -105.5 -33.5t-41.5 -85.5t41.5 -86t105.5 -34zM331 56q73 0 121 39t48 99t-48.5 99t-120.5 39q-73 0 -121 -39t-48 -99t48 -99t121 -39z" />
    <glyph glyph-name="nine" unicode="9" horiz-adv-x="633" 
d="M316 731q115 0 191 -67t76 -163q0 -92 -77 -195l-231 -305h-110l208 276q-34 -16 -76 -16q-107 0 -177 65.5t-70 165.5q0 104 75 171.5t191 67.5zM313 651q-75 -1 -123.5 -46t-48.5 -113q0 -67 49 -110.5t123 -43.5q78 -1 128.5 43t50.5 111q0 69 -50.5 114.5
t-128.5 44.5z" />
    <glyph glyph-name="colon" unicode=":" horiz-adv-x="211" 
d="M106 371q-24 0 -39.5 15.5t-15.5 40.5q0 23 15.5 38.5t39.5 15.5t39.5 -15.5t15.5 -38.5q0 -25 -15.5 -40.5t-39.5 -15.5zM106 -13q-24 0 -39.5 15.5t-15.5 39.5t15.5 39.5t39.5 15.5t39.5 -15.5t15.5 -39.5t-15.5 -39.5t-39.5 -15.5z" />
    <glyph glyph-name="semicolon" unicode=";" horiz-adv-x="213" 
d="M107 371q-24 0 -39.5 15.5t-15.5 40.5q0 23 15.5 38.5t39.5 15.5q25 0 40.5 -15.5t15.5 -38.5q0 -25 -15.5 -40.5t-40.5 -15.5zM91 -138l-41 10l46 116q-20 5 -31.5 19.5t-11.5 34.5q0 24 15 39.5t40 15.5q24 0 39.5 -15.5t15.5 -39.5q0 -17 -11 -42z" />
    <glyph glyph-name="less" unicode="&#x3c;" horiz-adv-x="437" 
d="M385 99l-372 203v98l372 204v-83l-310 -165v-9l310 -165v-83z" />
    <glyph glyph-name="equal" unicode="=" horiz-adv-x="572" 
d="M51 430v75h470v-75h-470zM51 179v75h470v-75h-470z" />
    <glyph glyph-name="greater" unicode="&#x3e;" horiz-adv-x="435" 
d="M51 99v83l310 165v9l-310 165v83l372 -204v-98z" />
    <glyph glyph-name="question" unicode="?" horiz-adv-x="570" 
d="M230 182q0 80 25 124.5t78 81.5q45 32 69 62t25 72q1 55 -39 91.5t-99 36.5q-67 0 -107 -45.5t-38 -117.5h-93q1 106 67.5 174.5t171.5 68.5q98 0 163 -59t65 -147q0 -105 -124 -189q-44 -29 -62 -62t-18 -91h-84zM275 -14q-24 0 -39.5 15.5t-15.5 40.5q0 23 15.5 38.5
t39.5 15.5t39.5 -15.5t15.5 -38.5q0 -25 -15.5 -40.5t-39.5 -15.5z" />
    <glyph glyph-name="at" unicode="@" horiz-adv-x="1011" 
d="M478 -182q-185 0 -305.5 125t-120.5 317q0 189 128 312t325 123q198 0 326 -123t128 -312q0 -130 -44.5 -198.5t-131.5 -68.5q-109 0 -128 98h-10q-25 -51 -74.5 -79t-115.5 -28q-80 0 -131 41.5t-51 108.5q0 70 58.5 113.5t169.5 55.5l138 16v23q0 111 -135 111
q-62 0 -92.5 -24t-29.5 -75h-84q0 80 54.5 127t149.5 47q100 0 160 -50.5t60 -137.5v-206q0 -35 16.5 -54.5t46.5 -19.5q92 0 92 200q0 158 -105 261t-267 103q-161 0 -266.5 -103t-105.5 -261q0 -161 97.5 -265.5t247.5 -104.5q89 0 146 33v-74q-62 -31 -146 -31zM470 53
q74 0 121.5 44t47.5 109v47l-138 -15q-145 -17 -145 -103q0 -39 32 -60.5t82 -21.5z" />
    <glyph glyph-name="A" unicode="A" horiz-adv-x="713" 
d="M30 0l266 705h124l263 -705h-87l-60 158h-359l-60 -158h-87zM204 233h306l-148 392h-9z" />
    <glyph glyph-name="B" unicode="B" horiz-adv-x="697" 
d="M95 0v705h306q97 0 160 -53t63 -136q0 -50 -29 -91t-74 -55v-10q54 -15 88.5 -60t34.5 -102q0 -86 -68.5 -142t-174.5 -56h-306zM186 402h204q63 0 103.5 31t40.5 80t-40.5 80.5t-103.5 31.5h-204v-223zM186 80h202q73 0 119.5 35t46.5 88q0 52 -46.5 85.5t-119.5 33.5
h-202v-242z" />
    <glyph glyph-name="C" unicode="C" horiz-adv-x="803" 
d="M417 -25q-159 0 -262.5 107t-102.5 271q0 164 103 270.5t262 106.5q119 0 213.5 -72.5t120.5 -183.5l-89 -12q-19 82 -88.5 135t-156.5 53q-120 0 -197 -84t-77 -213q0 -130 77.5 -214t196.5 -84q85 0 154.5 51.5t91.5 129.5l87 -17q-26 -106 -120.5 -175t-212.5 -69z
" />
    <glyph glyph-name="D" unicode="D" horiz-adv-x="779" 
d="M95 0v705h226q183 0 294.5 -96.5t111.5 -255.5q0 -160 -111.5 -256.5t-294.5 -96.5h-226zM186 80h135q143 0 229.5 73.5t86.5 199.5q0 125 -87 198.5t-229 73.5h-135v-545z" />
    <glyph glyph-name="E" unicode="E" horiz-adv-x="639" 
d="M95 0v705h484v-80h-392v-220h352v-80h-352v-245h402v-80h-494z" />
    <glyph glyph-name="F" unicode="F" horiz-adv-x="576" 
d="M95 0v705h449v-80h-357v-220h317v-80h-317v-325h-92z" />
    <glyph glyph-name="G" unicode="G" horiz-adv-x="852" 
d="M432 -25q-166 0 -273 107t-107 271t107 270.5t273 106.5q111 0 201.5 -57.5t119.5 -146.5l-83 -28q-23 66 -89.5 109t-148.5 43q-127 0 -208 -83.5t-81 -213.5q0 -129 81.5 -213.5t207.5 -84.5q114 0 193.5 72.5t82.5 178.5l-350 1v81h442q11 -180 -92.5 -296.5
t-275.5 -116.5z" />
    <glyph glyph-name="H" unicode="H" horiz-adv-x="752" 
d="M94 0v705h92v-297h380v297h91v-705h-91v328h-380v-328h-92z" />
    <glyph glyph-name="I" unicode="I" horiz-adv-x="281" 
d="M95 0v705h91v-705h-91z" />
    <glyph glyph-name="J" unicode="J" horiz-adv-x="473" 
d="M169 -20q-64 0 -129 20v78q61 -18 109 -18q63 0 102.5 41t39.5 110v494h91v-493q0 -103 -60 -167.5t-153 -64.5z" />
    <glyph glyph-name="K" unicode="K" horiz-adv-x="633" 
d="M95 0v705h91v-308h10l292 308h114l-328 -341l338 -364h-115l-301 331h-10v-331h-91z" />
    <glyph glyph-name="L" unicode="L" horiz-adv-x="572" 
d="M95 0v705h91v-625h355v-80h-446z" />
    <glyph glyph-name="M" unicode="M" horiz-adv-x="953" 
d="M94 0v705h144l233 -578h9l234 578h143v-705h-91v590h-9l-238 -590h-87l-237 589h-9v-589h-92z" />
    <glyph glyph-name="N" unicode="N" horiz-adv-x="755" 
d="M95 0v705h131l334 -585h9v585h91v-705h-130l-334 585h-10v-585h-91z" />
    <glyph glyph-name="O" unicode="O" horiz-adv-x="864" 
d="M432 -25q-167 0 -274 106t-107 272q0 165 107 271t274 106t274 -106t107 -271q0 -166 -107 -272t-274 -106zM432 55q127 0 208 84t81 214t-81 213.5t-208 83.5t-208.5 -83.5t-81.5 -213.5t81.5 -214t208.5 -84z" />
    <glyph glyph-name="P" unicode="P" horiz-adv-x="671" 
d="M95 0v705h281q116 0 185 -58t68 -158q0 -99 -69.5 -157.5t-183.5 -58.5h-192v-273h-89zM184 354h192q76 0 119.5 36.5t43.5 98.5q0 63 -43.5 99.5t-119.5 36.5h-192v-271z" />
    <glyph glyph-name="Q" unicode="Q" horiz-adv-x="865" 
d="M432 -25q-167 0 -273.5 106t-106.5 272q0 165 106.5 271t273.5 106t274 -106t107 -271q0 -149 -90 -253l111 -100h-117l-51 48q-102 -73 -234 -73zM432 55q96 0 168 50l-240 214h117l180 -160q65 79 65 194q0 130 -81.5 213.5t-208.5 83.5t-208 -83.5t-81 -213.5t81 -214
t208 -84z" />
    <glyph glyph-name="R" unicode="R" horiz-adv-x="709" 
d="M95 0v705h307q115 0 184.5 -58.5t69.5 -155.5q0 -89 -63 -147t-162 -63h-12l256 -281h-115l-244 276h-130v-276h-91zM186 356h216q76 0 119.5 36.5t43.5 98.5t-43.5 98t-119.5 36h-216v-269z" />
    <glyph glyph-name="S" unicode="S" horiz-adv-x="687" 
d="M356 -25q-139 0 -219 68t-80 186h90q1 -82 56 -128t154 -46q86 0 134 34.5t48 94.5q0 28 -12 49t-28 33.5t-48 22.5t-53 14t-63 11q-46 7 -77.5 14.5t-70.5 23t-62.5 36t-40 54.5t-16.5 78q0 96 70.5 153t196.5 57q130 0 204 -63.5t75 -175.5h-88q0 75 -50 117t-141 42
q-84 0 -130 -33.5t-46 -91.5q0 -27 11.5 -47.5t27.5 -32.5t45.5 -21.5t52 -14t61.5 -10.5q40 -7 65.5 -12t61.5 -15.5t58.5 -25t44.5 -35.5t32.5 -51.5t10.5 -69.5q0 -100 -72.5 -157.5t-201.5 -57.5z" />
    <glyph glyph-name="T" unicode="T" horiz-adv-x="582" 
d="M245 0v625h-233v80h558v-80h-234v-625h-91z" />
    <glyph glyph-name="U" unicode="U" horiz-adv-x="757" 
d="M379 -25q-126 0 -208 83.5t-82 212.5v434h92v-434q0 -94 56 -155t142 -61t141.5 60.5t55.5 155.5v434h91v-434q0 -129 -81 -212.5t-207 -83.5z" />
    <glyph glyph-name="V" unicode="V" horiz-adv-x="702" 
d="M280 0l-251 705h93l225 -637h9l224 637h93l-251 -705h-142z" />
    <glyph glyph-name="W" unicode="W" horiz-adv-x="1088" 
d="M253 0l-205 705h88l180 -628h10l160 628h118l159 -628h10l180 628h87l-204 -705h-140l-147 595h-9l-147 -595h-140z" />
    <glyph glyph-name="X" unicode="X" horiz-adv-x="711" 
d="M39 0l254 373l-244 332h103l196 -279h9l202 279h103l-250 -332l260 -373h-102l-213 313h-9l-207 -313h-102z" />
    <glyph glyph-name="Y" unicode="Y" horiz-adv-x="660" 
d="M285 0v258l-255 447h96l200 -360h10l196 360h98l-253 -447v-258h-92z" />
    <glyph glyph-name="Z" unicode="Z" horiz-adv-x="655" 
d="M49 0v42l414 573v10h-404v80h538v-41l-414 -574v-10h424v-80h-558z" />
    <glyph glyph-name="bracketleft" unicode="[" horiz-adv-x="434" 
d="M95 -180v915h326v-62h-246v-792h246v-61h-326z" />
    <glyph glyph-name="backslash" unicode="\" horiz-adv-x="407" 
d="M395 -230h-82l-301 935h82z" />
    <glyph glyph-name="bracketright" unicode="]" horiz-adv-x="433" 
d="M339 -180h-326v61h246v792h-246v62h326v-915z" />
    <glyph glyph-name="asciicircum" unicode="^" horiz-adv-x="571" 
d="M49 400l188 305h98l188 -305h-83l-149 251h-10l-148 -251h-84z" />
    <glyph glyph-name="underscore" unicode="_" horiz-adv-x="500" 
d="M0 -70v70h500v-70h-500z" />
    <glyph glyph-name="grave" unicode="`" horiz-adv-x="302" 
d="M165 593l-114 142h94l107 -142h-87z" />
    <glyph glyph-name="a" unicode="a" horiz-adv-x="553" 
d="M218 -16q-82 0 -131.5 39.5t-49.5 104.5q0 68 58 114t168 58l140 17v20q0 51 -35 81.5t-97 30.5q-58 0 -92 -26.5t-33 -73.5h-84q0 80 57 127.5t153 47.5q98 0 156 -51.5t58 -137.5v-335h-83v74h-9q-56 -90 -176 -90zM230 53q77 0 125 42t48 106v45l-140 -16
q-143 -18 -143 -100q0 -36 29.5 -56.5t80.5 -20.5z" />
    <glyph glyph-name="b" unicode="b" horiz-adv-x="666" 
d="M354 -20q-127 0 -185 98h-9v-78h-83v735h83v-305h9q58 95 186 95q111 0 185.5 -77t74.5 -195t-75 -195.5t-186 -77.5zM345 55q81 0 134 56.5t53 141.5q0 84 -53 140.5t-134 56.5t-134.5 -56.5t-53.5 -140.5t53.5 -141t134.5 -57z" />
    <glyph glyph-name="c" unicode="c" horiz-adv-x="612" 
d="M314 -20q-115 0 -189.5 77.5t-73.5 195.5q0 119 74 195.5t189 76.5q93 0 162.5 -52.5t83.5 -133.5l-81 -11q-13 54 -59.5 88t-104.5 34q-78 0 -130 -55.5t-51 -141.5q0 -87 51 -142.5t129 -55.5q59 0 105 33.5t61 86.5l82 -11q-17 -80 -87 -132t-161 -52z" />
    <glyph glyph-name="d" unicode="d" horiz-adv-x="666" 
d="M313 -20q-112 0 -187 77.5t-75 195.5t74.5 195t186.5 77q127 0 185 -95h10v305h83v-735h-83v78h-10q-58 -98 -184 -98zM322 55q80 0 133.5 57t53.5 141t-53 140.5t-134 56.5t-134.5 -56.5t-53.5 -140.5q0 -85 53.5 -141.5t134.5 -56.5z" />
    <glyph glyph-name="e" unicode="e" horiz-adv-x="635" 
d="M323 -20q-118 0 -195 78.5t-77 200.5q0 116 75.5 191t192.5 75q115 0 190 -75.5t75 -191.5q0 -22 -1 -33h-447q9 -77 60.5 -123.5t128.5 -46.5q56 0 102.5 26.5t70.5 71.5l69 -35q-31 -65 -95.5 -101.5t-148.5 -36.5zM137 298h360q-11 69 -60.5 110.5t-121.5 41.5
q-70 0 -118.5 -42t-59.5 -110z" />
    <glyph glyph-name="f" unicode="f" horiz-adv-x="373" 
d="M122 0v439h-81v66h81v102q0 67 37.5 107.5t97.5 40.5q38 0 77 -12v-72q-31 9 -55 9q-33 0 -53.5 -22t-20.5 -59v-94h128v-66h-128v-439h-83z" />
    <glyph glyph-name="g" unicode="g" horiz-adv-x="666" 
d="M321 -250q-97 0 -165.5 44.5t-94.5 123.5l83 31q20 -59 67 -91.5t114 -32.5q83 0 132.5 50t49.5 134v68h-10q-71 -90 -184 -90q-114 0 -188 75t-74 191q0 117 74 194t188 77q115 0 185 -91h10v72h82v-496q0 -118 -73.5 -188.5t-195.5 -70.5zM322 60q82 0 135 55t53 138
q0 85 -53.5 141t-134.5 56q-82 0 -135 -55.5t-53 -141.5q0 -83 53 -138t135 -55z" />
    <glyph glyph-name="h" unicode="h" horiz-adv-x="606" 
d="M77 0v735h83v-294h10q57 84 159 84q95 0 152.5 -62t57.5 -160v-303h-83v303q0 66 -37 106.5t-101 40.5q-65 0 -111.5 -44.5t-46.5 -110.5v-295h-83z" />
    <glyph glyph-name="i" unicode="i" horiz-adv-x="253" 
d="M127 601q-26 0 -43 17t-17 43q0 25 17 41.5t43 16.5t42.5 -16t16.5 -42t-16.5 -43t-42.5 -17zM85 0v505h83v-505h-83z" />
    <glyph glyph-name="j" unicode="j" horiz-adv-x="264" 
d="M128 601q-26 0 -43 17t-17 43q0 25 17 41.5t43 16.5t43 -16.5t17 -41.5q0 -26 -17 -43t-43 -17zM34 -225q-51 0 -88 13v71q28 -9 65 -9q34 0 55 22t21 58v575h83v-575q0 -68 -38.5 -111.5t-97.5 -43.5z" />
    <glyph glyph-name="k" unicode="k" horiz-adv-x="503" 
d="M77 0v735h83v-446h10l216 216h110l-249 -242l255 -263h-111l-221 235h-10v-235h-83z" />
    <glyph glyph-name="l" unicode="l" horiz-adv-x="236" 
d="M77 0v735h83v-735h-83z" />
    <glyph glyph-name="m" unicode="m" horiz-adv-x="928" 
d="M77 0v505h80v-67h10q22 40 60.5 63.5t86.5 23.5q53 0 98 -27t67 -71h9q58 97 169 97q89 0 146.5 -62.5t57.5 -160.5v-301h-83v302q0 64 -37 106t-94 42q-61 0 -99.5 -41.5t-38.5 -106.5v-302h-83v302q0 67 -35.5 107.5t-94.5 40.5q-61 0 -98.5 -40.5t-37.5 -107.5v-302
h-83z" />
    <glyph glyph-name="n" unicode="n" 
d="M77 0v505h83v-69h10q57 88 159 88q95 0 152.5 -62.5t57.5 -159.5v-302h-83v302q0 65 -37 106t-101 41q-65 0 -111.5 -44.5t-46.5 -109.5v-295h-83z" />
    <glyph glyph-name="o" unicode="o" horiz-adv-x="642" 
d="M321 -20q-119 0 -195 76.5t-76 196.5q0 119 76 195.5t195 76.5t195 -76.5t76 -195.5q0 -120 -76 -196.5t-195 -76.5zM321 55q82 0 135 56t53 142t-53 141.5t-135 55.5t-135 -55.5t-53 -141.5t53 -142t135 -56z" />
    <glyph glyph-name="p" unicode="p" horiz-adv-x="666" 
d="M354 525q111 0 186 -77t75 -195t-74.5 -195.5t-185.5 -77.5q-61 0 -109.5 25t-76.5 70h-9v-305h-83v735h83v-77h9q59 97 185 97zM345 450q-81 0 -134.5 -56.5t-53.5 -140.5t53.5 -141t134.5 -57q80 0 133.5 57t53.5 141q0 85 -53 141t-134 56z" />
    <glyph glyph-name="q" unicode="q" horiz-adv-x="666" 
d="M313 525q125 0 184 -97h10v77h83v-735h-83v305h-10q-59 -95 -185 -95q-112 0 -186.5 77.5t-74.5 195.5t75 195t187 77zM322 450q-81 0 -134.5 -56t-53.5 -141q0 -84 53.5 -141t134.5 -57q80 0 133.5 57t53.5 141t-53 140.5t-134 56.5z" />
    <glyph glyph-name="r" unicode="r" horiz-adv-x="394" 
d="M77 0v505h81v-68h9q17 34 55 56t80 22q38 0 62 -13v-77q-35 15 -75 15q-57 0 -93 -46.5t-36 -121.5v-272h-83z" />
    <glyph glyph-name="s" unicode="s" horiz-adv-x="545" 
d="M284 -20q-109 0 -169 50.5t-60 140.5h80q1 -55 41.5 -88t110.5 -33q57 0 91 22.5t34 62.5q0 29 -21.5 46.5t-42 22t-68.5 10.5q-9 1 -13 2q-42 5 -72.5 12.5t-63 23.5t-50 45t-17.5 70q0 73 55.5 115.5t147.5 42.5q95 0 153.5 -46.5t58.5 -124.5h-81q-1 46 -37 73.5
t-95 27.5q-55 0 -89 -23t-34 -62q0 -22 10 -36t30.5 -21.5t40.5 -11t52 -7.5q7 -1 10 -1q43 -5 73 -13t63 -24t50.5 -46.5t17.5 -73.5q0 -74 -54.5 -115t-151.5 -41z" />
    <glyph glyph-name="t" unicode="t" horiz-adv-x="391" 
d="M260 -19q-63 0 -101 41t-38 108v309h-82v66h82l19 163h65l-1 -163h130v-66h-130v-306q0 -36 21 -59t57 -23q28 0 60 10v-67q-39 -13 -82 -13z" />
    <glyph glyph-name="u" unicode="u" 
d="M528 505v-505h-83v69h-10q-55 -87 -158 -87q-96 0 -153 62t-57 160v301h83v-301q0 -66 36.5 -106.5t100.5 -40.5q65 0 111.5 44t46.5 110v294h83z" />
    <glyph glyph-name="v" unicode="v" horiz-adv-x="526" 
d="M204 0l-192 505h85l161 -439h9l162 439h85l-192 -505h-118z" />
    <glyph glyph-name="w" unicode="w" horiz-adv-x="840" 
d="M191 0l-169 505h82l141 -423h9l113 423h106l116 -424h9l138 424h82l-169 -505h-119l-105 409h-10l-106 -409h-118z" />
    <glyph glyph-name="x" unicode="x" horiz-adv-x="512" 
d="M14 0l190 263l-180 242h89l138 -188h10l138 188h89l-180 -242l190 -263h-92l-145 206h-10l-145 -206h-92z" />
    <glyph glyph-name="y" unicode="y" horiz-adv-x="532" 
d="M126 -224q-43 0 -80 16v73q38 -15 67 -15q18 0 33.5 7t25 15t21 27.5t16 29.5t15.5 37t14 35l-225 504h87l173 -395h10l148 395h89l-200 -513q-16 -39 -23 -56t-22.5 -48.5t-28 -46.5t-31 -33t-41 -25t-48.5 -7z" />
    <glyph glyph-name="z" unicode="z" horiz-adv-x="520" 
d="M32 0v36l311 385v9h-301v75h436v-36l-309 -384v-10h319v-75h-456z" />
    <glyph glyph-name="braceleft" unicode="{" horiz-adv-x="347" 
d="M238 -180q-51 0 -82.5 31.5t-31.5 83.5v241q0 29 -17.5 47t-45.5 18h-10v83h10q28 0 45.5 17.5t17.5 46.5v233q0 51 31.5 82.5t82.5 31.5h97v-62h-59q-32 0 -51.5 -20t-19.5 -52v-221q0 -40 -24 -65t-64 -28v-9q40 -2 64 -27.5t24 -65.5v-232q0 -32 19.5 -52t51.5 -20h59
v-61h-97z" />
    <glyph glyph-name="bar" unicode="|" horiz-adv-x="269" 
d="M95 -230v965h79v-965h-79z" />
    <glyph glyph-name="braceright" unicode="}" horiz-adv-x="346" 
d="M109 -180h-97v61h59q32 0 51.5 20t19.5 52v232q0 40 24 65.5t64 27.5v9q-40 3 -64 28t-24 65v221q0 32 -19.5 52t-51.5 20h-59v62h97q50 0 81.5 -31.5t31.5 -82.5v-233q0 -29 17.5 -46.5t45.5 -17.5h10v-83h-10q-28 0 -45.5 -18t-17.5 -47v-241q0 -52 -31.5 -83.5
t-81.5 -31.5z" />
    <glyph glyph-name="asciitilde" unicode="~" horiz-adv-x="662" 
d="M463 216q-39 0 -88 28.5t-96 57t-81 28.5q-63 0 -111 -65l-36 49q26 40 69 64.5t84 24.5q40 0 89.5 -28.5t95.5 -57t79 -28.5q63 0 107 64l36 -49q-25 -39 -66.5 -63.5t-81.5 -24.5z" />
    <glyph glyph-name="exclamdown" unicode="&#xa1;" horiz-adv-x="255" 
d="M128 379q-25 0 -40.5 15.5t-15.5 38.5q0 24 15.5 39.5t40.5 15.5q24 0 39.5 -15.5t15.5 -39.5q0 -23 -15.5 -38.5t-39.5 -15.5zM81 -230v185l21 304h51l20 -304v-185h-92z" />
    <glyph glyph-name="cent" unicode="&#xa2;" horiz-adv-x="612" 
d="M562 165q-15 -70 -71.5 -120t-133.5 -62v-92h-84v92q-99 14 -161 88.5t-61 181.5q0 107 61.5 181t160.5 88v87h84v-87q79 -12 135 -62t68 -121l-80 -11q-14 54 -60.5 88t-104.5 34q-78 0 -130 -55.5t-51 -141.5q0 -87 51 -142.5t129 -55.5q59 0 105 33.5t62 86.5z" />
    <glyph glyph-name="sterling" unicode="&#xa3;" horiz-adv-x="612" 
d="M51 0v95q25 5 42.5 15t33.5 32.5t24 64.5t8 104h-98v75h100v146q0 87 54.5 142.5t139.5 55.5q86 0 143.5 -60t62.5 -153h-81q-3 61 -38 101t-86 40q-49 0 -79 -35.5t-30 -90.5v-146h248v-75h-252q-4 -107 -30.5 -154.5t-76.5 -71.5v-10h423v-75h-508z" />
    <glyph glyph-name="currency" unicode="&#xa4;" horiz-adv-x="732" 
d="M104 -47l-52 53l94 88q-51 66 -51 159q0 92 51 158l-93 88l52 54l95 -90q70 50 166 50q94 0 167 -50l97 89l50 -54l-94 -87q51 -69 51 -158q0 -90 -51 -159l94 -88l-50 -53l-97 91q-70 -51 -167 -51q-96 0 -166 50zM366 60q83 0 135.5 54t52.5 139q0 84 -53 138.5
t-135 54.5q-81 0 -134 -54.5t-53 -138.5q0 -85 52.5 -139t134.5 -54z" />
    <glyph glyph-name="yen" unicode="&#xa5;" horiz-adv-x="690" 
d="M301 0v80h-236v67h236v78h-236v66h213l-238 414h103l199 -364h10l195 365l104 -1l-237 -414h213v-66h-235v-78h235v-67h-235v-80h-91z" />
    <glyph glyph-name="brokenbar" unicode="&#xa6;" horiz-adv-x="267" 
d="M94 326v409h79v-409h-79zM94 -230v409h79v-409h-79z" />
    <glyph glyph-name="section" unicode="&#xa7;" horiz-adv-x="600" 
d="M303 -155q-94 0 -156 53t-62 135h83q1 -47 40 -77.5t98 -30.5q53 0 87.5 26t34.5 66q0 23 -10 40t-23.5 27t-39.5 18t-43.5 12t-51.5 9q-44 7 -74.5 15t-62.5 23.5t-48.5 42.5t-16.5 64q0 48 33.5 84.5t86.5 46.5q-40 13 -65.5 50.5t-25.5 84.5q0 74 58 122.5t146 48.5
q92 0 151 -52.5t61 -134.5h-83q0 47 -36.5 77t-94.5 30q-52 0 -85 -23.5t-33 -58.5q0 -20 10 -36t22 -25t39 -18t42.5 -12.5t51.5 -11.5q40 -8 61 -12.5t53.5 -16.5t49.5 -25.5t30 -37.5t13 -55q0 -47 -35 -83.5t-90 -47.5q44 -12 72 -49t28 -84q0 -80 -60.5 -132
t-154.5 -52zM324 188q58 3 95 28t37 62q0 19 -6.5 33.5t-21 24t-27 16t-35.5 10.5t-33.5 5.5t-34.5 4.5l-29 3q-55 -3 -91.5 -29.5t-36.5 -59.5q0 -22 10 -38t23.5 -25t37 -16t39 -9.5t42.5 -5.5z" />
    <glyph glyph-name="dieresis" unicode="&#xa8;" horiz-adv-x="451" 
d="M106 601q-25 0 -40.5 15.5t-15.5 38.5q0 24 15.5 39t40.5 15q24 0 39.5 -15t15.5 -39q0 -23 -15.5 -38.5t-39.5 -15.5zM345 601q-24 0 -39.5 15.5t-15.5 38.5q0 24 15.5 39t39.5 15q25 0 40 -15t15 -39q0 -23 -15 -38.5t-40 -15.5z" />
    <glyph glyph-name="copyright" unicode="&#xa9;" horiz-adv-x="927" 
d="M463 -152q-180 0 -295.5 114t-115.5 292q0 175 116 289.5t295 114.5q182 0 297.5 -113t115.5 -291t-115.5 -292t-297.5 -114zM464 -96q154 0 252 98t98 252q0 150 -98.5 248.5t-251.5 98.5t-251.5 -98.5t-98.5 -248.5q0 -154 98 -252t252 -98zM471 -17q-118 0 -193 75.5
t-75 194.5t75.5 194.5t193.5 75.5q86 0 154 -51.5t85 -129.5l-57 -12q-16 58 -68 95.5t-117 37.5q-87 0 -143 -59t-56 -151t57 -152t145 -60q67 0 120.5 41t68.5 103l51 -13q-16 -82 -84 -135.5t-157 -53.5z" />
    <glyph glyph-name="guillemotleft" unicode="&#xab;" horiz-adv-x="637" 
d="M248 0l-199 253l200 252h99l-203 -252l203 -253h-100zM486 0l-200 253l200 252h99l-203 -252l203 -253h-99z" />
    <glyph glyph-name="logicalnot" unicode="&#xac;" horiz-adv-x="644" 
d="M519 70v216h-468v70h533v-286h-65z" />
    <glyph glyph-name="registered" unicode="&#xae;" horiz-adv-x="927" 
d="M463 -152q-180 0 -295.5 114t-115.5 292q0 175 116 289.5t295 114.5q182 0 297.5 -113t115.5 -291t-115.5 -292t-297.5 -114zM464 -96q154 0 252 98t98 252q0 151 -98.5 249t-251.5 98t-251.5 -98t-98.5 -249q0 -154 98 -252t252 -98zM296 10v496h217q69 0 115 -43
t46 -109q0 -63 -46 -103.5t-115 -40.5h-3l160 -200h-82l-151 198h-77v-198h-64zM360 262h144q46 0 76 25.5t30 67.5t-30.5 68.5t-75.5 26.5h-144v-188z" />
    <glyph glyph-name="macron" unicode="&#xaf;" horiz-adv-x="411" 
d="M51 602v66h310v-66h-310z" />
    <glyph glyph-name="degree" unicode="&#xb0;" horiz-adv-x="503" 
d="M252 347q-91 0 -146 53.5t-55 140.5q0 88 55 141.5t146 53.5q90 0 145 -53.5t55 -141.5q0 -87 -55 -140.5t-145 -53.5zM252 406q61 0 98.5 37t37.5 98t-37.5 98.5t-98.5 37.5q-62 0 -99.5 -37.5t-37.5 -98.5t37.5 -98t99.5 -37z" />
    <glyph glyph-name="plusminus" unicode="&#xb1;" horiz-adv-x="569" 
d="M242 284v125h-191v77h191v117h86v-117h191v-77h-191v-125h-86zM51 111v77h468v-77h-468z" />
    <glyph glyph-name="acute" unicode="&#xb4;" horiz-adv-x="301" 
d="M137 593h-87l107 142h94z" />
    <glyph glyph-name="uni00B5" unicode="&#xb5;" horiz-adv-x="588" 
d="M77 -186v691h83v-292q0 -67 36 -104.5t97 -37.5q54 0 95 39.5t41 103.5v291h83v-505h-81v75q-47 -77 -144 -77q-90 0 -127 68v-252h-83z" />
    <glyph glyph-name="paragraph" unicode="&#xb6;" horiz-adv-x="718" 
d="M274 -222v546q-101 0 -162.5 52.5t-60.5 138.5t62 138t161 52h364v-64h-93v-863h-74v863h-122v-863h-75z" />
    <glyph glyph-name="periodcentered" unicode="&#xb7;" horiz-adv-x="212" 
d="M106 231q-24 0 -39.5 15.5t-15.5 39.5q0 23 15.5 38t39.5 15t39.5 -15t15.5 -38q0 -24 -15.5 -39.5t-39.5 -15.5z" />
    <glyph glyph-name="cedilla" unicode="&#xb8;" horiz-adv-x="312" 
d="M158 -232q-41 0 -71 20t-36 52l53 13q3 -19 18 -30.5t35 -11.5q23 0 37 13t14 33q0 23 -18 37t-46 14h-51l16 112h60l-11 -69q45 0 74.5 -26.5t29.5 -66.5t-29 -65t-75 -25z" />
    <glyph glyph-name="guillemotright" unicode="&#xbb;" horiz-adv-x="635" 
d="M51 0l203 253l-203 252h99l200 -252l-200 -253h-99zM288 0l203 253l-203 252h100l200 -252l-200 -253h-100z" />
    <glyph glyph-name="questiondown" unicode="&#xbf;" horiz-adv-x="517" 
d="M272 403q-24 0 -39.5 15.5t-15.5 38.5q0 25 15 40t40 15q24 0 39.5 -15t15.5 -40q0 -23 -15.5 -38.5t-39.5 -15.5zM253 -232q-98 0 -163 59.5t-65 146.5q0 107 125 189q44 30 61.5 62.5t17.5 91.5h84q0 -80 -25 -124.5t-78 -81.5q-45 -32 -69 -62t-25 -72
q-1 -55 39 -91.5t100 -36.5q66 0 106 45.5t38 116.5h93q-1 -106 -67.5 -174.5t-171.5 -68.5z" />
    <glyph glyph-name="Agrave" unicode="&#xc0;" horiz-adv-x="713" 
d="M404 788h-98l-110 113h103zM30 0l266 705h124l263 -705h-87l-60 158h-359l-60 -158h-87zM204 233h306l-148 392h-9z" />
    <glyph glyph-name="Aacute" unicode="&#xc1;" horiz-adv-x="713" 
d="M311 788l105 113h103l-110 -113h-98zM30 0l266 705h124l263 -705h-87l-60 158h-359l-60 -158h-87zM204 233h306l-148 392h-9z" />
    <glyph glyph-name="Acircumflex" unicode="&#xc2;" horiz-adv-x="713" 
d="M310 901h97l116 -113h-84l-75 62h-10l-75 -62h-84zM30 0l266 705h124l263 -705h-87l-60 158h-359l-60 -158h-87zM204 233h306l-148 392h-9z" />
    <glyph glyph-name="Atilde" unicode="&#xc3;" horiz-adv-x="713" 
d="M420 798q-32 0 -56 14t-43 28.5t-37 14.5q-37 0 -63 -46l-44 32q14 31 43.5 50t66.5 19q38 0 77 -28.5t61 -28.5q42 0 64 46l44 -32q-14 -31 -44 -50t-69 -19zM30 0l266 705h124l263 -705h-87l-60 158h-359l-60 -158h-87zM204 233h306l-148 392h-9z" />
    <glyph glyph-name="Adieresis" unicode="&#xc4;" horiz-adv-x="713" 
d="M242 790q-26 0 -42.5 17t-16.5 43t16.5 42t42.5 16t43 -16.5t17 -41.5q0 -26 -17 -43t-43 -17zM473 790q-26 0 -43 17t-17 43q0 25 17 41.5t43 16.5t43 -16.5t17 -41.5q0 -26 -17 -43t-43 -17zM30 0l266 705h124l263 -705h-87l-60 158h-359l-60 -158h-87zM204 233h306
l-148 392h-9z" />
    <glyph glyph-name="Aring" unicode="&#xc5;" horiz-adv-x="713" 
d="M358 769q-43 0 -71.5 26.5t-28.5 67.5t28 67.5t72 26.5q43 0 70.5 -26.5t27.5 -67.5t-27.5 -67.5t-70.5 -26.5zM358 809q23 0 38.5 15.5t15.5 38.5q0 24 -15.5 39t-38.5 15q-24 0 -39 -15t-15 -39q0 -23 15 -38.5t39 -15.5zM30 0l266 705h124l263 -705h-87l-60 158h-359
l-60 -158h-87zM204 233h306l-148 392h-9z" />
    <glyph glyph-name="AE" unicode="&#xc6;" horiz-adv-x="930" 
d="M30 0l358 705h491v-80h-327v-224h287v-75h-287v-246h337v-80h-428v142h-256l-73 -142h-102zM241 217h220v417h-10z" />
    <glyph glyph-name="Ccedilla" unicode="&#xc7;" horiz-adv-x="803" 
d="M417 55q85 0 154.5 51.5t92.5 129.5l87 -17q-25 -100 -112 -168t-199 -75l-4 -25q45 0 74.5 -26.5t29.5 -66.5t-29 -65t-75 -25q-41 0 -71.5 20t-36.5 52l53 13q4 -19 19 -30.5t35 -11.5q22 0 36 13t14 33q0 23 -18 37t-45 14h-51l9 69q-145 13 -237 117.5t-91 258.5
q0 164 103 270.5t262 106.5q119 0 213.5 -72.5t121.5 -183.5l-89 -12q-20 82 -89.5 135t-156.5 53q-120 0 -197 -84t-77 -213t77.5 -213.5t196.5 -84.5z" />
    <glyph glyph-name="Egrave" unicode="&#xc8;" horiz-adv-x="639" 
d="M386 788h-99l-109 113h103zM95 0v705h484v-80h-392v-220h352v-80h-352v-245h402v-80h-494z" />
    <glyph glyph-name="Eacute" unicode="&#xc9;" horiz-adv-x="639" 
d="M292 788l105 113h103l-109 -113h-99zM95 0v705h484v-80h-392v-220h352v-80h-352v-245h402v-80h-494z" />
    <glyph glyph-name="Ecircumflex" unicode="&#xca;" horiz-adv-x="639" 
d="M291 901h98l116 -113h-85l-74 62h-11l-75 -62h-84zM95 0v705h484v-80h-392v-220h352v-80h-352v-245h402v-80h-494z" />
    <glyph glyph-name="Edieresis" unicode="&#xcb;" horiz-adv-x="639" 
d="M224 790q-26 0 -43 17t-17 43q0 25 17 41.5t43 16.5t42.5 -16t16.5 -42t-16.5 -43t-42.5 -17zM454 790q-26 0 -42.5 17t-16.5 43t16.5 42t42.5 16t43 -16.5t17 -41.5q0 -26 -17 -43t-43 -17zM95 0v705h484v-80h-392v-220h352v-80h-352v-245h402v-80h-494z" />
    <glyph glyph-name="Igrave" unicode="&#xcc;" horiz-adv-x="281" 
d="M188 788h-99l-109 113h103zM95 0v705h92v-705h-92z" />
    <glyph glyph-name="Iacute" unicode="&#xcd;" horiz-adv-x="281" 
d="M94 788l105 113h103l-109 -113h-99zM95 0v705h92v-705h-92z" />
    <glyph glyph-name="Icircumflex" unicode="&#xce;" horiz-adv-x="281" 
d="M92 901h97l116 -113h-84l-75 62h-10l-75 -62h-84zM95 0v705h92v-705h-92z" />
    <glyph glyph-name="Idieresis" unicode="&#xcf;" horiz-adv-x="281" 
d="M26 790q-26 0 -43 17t-17 43q0 25 17 41.5t43 16.5t42.5 -16t16.5 -42t-16.5 -43t-42.5 -17zM256 790q-26 0 -43 17t-17 43q0 25 17 41.5t43 16.5t43 -16.5t17 -41.5q0 -26 -17 -43t-43 -17zM95 0v705h92v-705h-92z" />
    <glyph glyph-name="Ntilde" unicode="&#xd1;" horiz-adv-x="755" 
d="M461 798q-32 0 -56.5 14t-43.5 28.5t-37 14.5q-37 0 -63 -46l-44 32q15 31 44 50t66 19q38 0 77 -28.5t61 -28.5q42 0 64 46l44 -32q-14 -31 -44 -50t-68 -19zM95 0v705h131l334 -585h9v585h91v-705h-130l-334 585h-10v-585h-91z" />
    <glyph glyph-name="Ograve" unicode="&#xd2;" horiz-adv-x="864" 
d="M479 788h-99l-110 113h104zM432 -25q-167 0 -274 106t-107 272q0 165 107 271t274 106t274 -106t107 -271q0 -166 -107 -272t-274 -106zM432 55q127 0 208 84t81 214t-81 213.5t-208 83.5t-208.5 -83.5t-81.5 -213.5t81.5 -214t208.5 -84z" />
    <glyph glyph-name="Oacute" unicode="&#xd3;" horiz-adv-x="864" 
d="M385 788l105 113h103l-109 -113h-99zM432 -25q-167 0 -274 106t-107 272q0 165 107 271t274 106t274 -106t107 -271q0 -166 -107 -272t-274 -106zM432 55q127 0 208 84t81 214t-81 213.5t-208 83.5t-208.5 -83.5t-81.5 -213.5t81.5 -214t208.5 -84z" />
    <glyph glyph-name="Ocircumflex" unicode="&#xd4;" horiz-adv-x="864" 
d="M384 901h97l116 -113h-84l-75 62h-10l-75 -62h-84zM432 -25q-167 0 -274 106t-107 272q0 165 107 271t274 106t274 -106t107 -271q0 -166 -107 -272t-274 -106zM432 55q127 0 208 84t81 214t-81 213.5t-208 83.5t-208.5 -83.5t-81.5 -213.5t81.5 -214t208.5 -84z" />
    <glyph glyph-name="Otilde" unicode="&#xd5;" horiz-adv-x="864" 
d="M495 798q-32 0 -56.5 14t-43.5 28.5t-37 14.5q-37 0 -63 -46l-44 32q15 31 44 50t66 19q38 0 77.5 -28.5t60.5 -28.5q42 0 64 46l44 -32q-14 -31 -44 -50t-68 -19zM432 -25q-167 0 -274 106t-107 272q0 165 107 271t274 106t274 -106t107 -271q0 -166 -107 -272
t-274 -106zM432 55q127 0 208 84t81 214t-81 213.5t-208 83.5t-208.5 -83.5t-81.5 -213.5t81.5 -214t208.5 -84z" />
    <glyph glyph-name="Odieresis" unicode="&#xd6;" horiz-adv-x="864" 
d="M317 790q-26 0 -43 17t-17 43q0 25 17 41.5t43 16.5t42.5 -16.5t16.5 -41.5q0 -26 -16.5 -43t-42.5 -17zM547 790q-26 0 -43 17t-17 43q0 25 17 41.5t43 16.5t43 -16.5t17 -41.5q0 -26 -17 -43t-43 -17zM432 -25q-167 0 -274 106t-107 272q0 165 107 271t274 106
t274 -106t107 -271q0 -166 -107 -272t-274 -106zM432 55q127 0 208 84t81 214t-81 213.5t-208 83.5t-208.5 -83.5t-81.5 -213.5t81.5 -214t208.5 -84z" />
    <glyph glyph-name="multiply" unicode="&#xd7;" horiz-adv-x="399" 
d="M101 197l-50 50l100 107l-100 108l50 50l98 -106l98 106l51 -50l-100 -108l100 -107l-50 -50l-99 106z" />
    <glyph glyph-name="Oslash" unicode="&#xd8;" horiz-adv-x="845" 
d="M144 -140l83 166q-82 48 -128.5 133.5t-46.5 193.5q0 164 104.5 270.5t265.5 106.5q78 0 144 -27l79 157h85l-96 -192q74 -49 116.5 -131.5t42.5 -183.5q0 -164 -104.5 -271t-266.5 -107q-65 0 -127 20l-66 -135h-85zM264 103l266 526q-53 21 -108 21q-121 0 -200 -84
t-79 -213q0 -80 32 -145t89 -105zM422 55q122 0 201 84t79 214q0 153 -108 238l-261 -522q44 -14 89 -14z" />
    <glyph glyph-name="Ugrave" unicode="&#xd9;" horiz-adv-x="757" 
d="M427 788h-99l-109 113h103zM379 -25q-126 0 -207.5 83.5t-81.5 212.5v434h91v-434q0 -94 56 -155t142 -61t142 61t56 155v434h91v-434q0 -129 -81.5 -212.5t-207.5 -83.5z" />
    <glyph glyph-name="Uacute" unicode="&#xda;" horiz-adv-x="757" 
d="M333 788l105 113h103l-109 -113h-99zM379 -25q-126 0 -207.5 83.5t-81.5 212.5v434h91v-434q0 -94 56 -155t142 -61t142 61t56 155v434h91v-434q0 -129 -81.5 -212.5t-207.5 -83.5z" />
    <glyph glyph-name="Ucircumflex" unicode="&#xdb;" horiz-adv-x="757" 
d="M332 901h98l116 -113h-85l-74 62h-11l-74 -62h-85zM379 -25q-126 0 -207.5 83.5t-81.5 212.5v434h91v-434q0 -94 56 -155t142 -61t142 61t56 155v434h91v-434q0 -129 -81.5 -212.5t-207.5 -83.5z" />
    <glyph glyph-name="Udieresis" unicode="&#xdc;" horiz-adv-x="757" 
d="M265 790q-26 0 -43 17t-17 43q0 25 17 41.5t43 16.5t43 -16.5t17 -41.5q0 -26 -17 -43t-43 -17zM495 790q-26 0 -42.5 17t-16.5 43t16.5 42t42.5 16t43 -16.5t17 -41.5q0 -26 -17 -43t-43 -17zM379 -25q-126 0 -207.5 83.5t-81.5 212.5v434h91v-434q0 -94 56 -155
t142 -61t142 61t56 155v434h91v-434q0 -129 -81.5 -212.5t-207.5 -83.5z" />
    <glyph glyph-name="Yacute" unicode="&#xdd;" horiz-adv-x="660" 
d="M284 788l105 113h103l-109 -113h-99zM285 0v258l-255 447h96l200 -360h10l196 360h98l-253 -447v-258h-92z" />
    <glyph glyph-name="germandbls" unicode="&#xdf;" horiz-adv-x="664" 
d="M398 -25q-65 0 -134 26v86q63 -33 129 -33q61 0 98.5 37t37.5 101q0 65 -42 105.5t-123 40.5h-44v74h44q46 0 75 30.5t29 77.5q0 54 -39.5 88.5t-101.5 34.5q-68 0 -109.5 -47t-41.5 -125v-471h-92v480q0 106 69 174.5t176 68.5q100 0 165.5 -55t65.5 -140
q0 -53 -25.5 -91t-68.5 -52v-9q67 -13 110.5 -66.5t43.5 -126.5q0 -88 -64 -148t-158 -60z" />
    <glyph glyph-name="agrave" unicode="&#xe0;" horiz-adv-x="553" 
d="M232 593l-114 142h94l107 -142h-87zM218 -16q-82 0 -131.5 39.5t-49.5 104.5q0 68 58 114t168 58l140 17v20q0 51 -35 81.5t-97 30.5q-58 0 -92 -26.5t-33 -73.5h-84q0 80 57 127.5t153 47.5q98 0 156 -51.5t58 -137.5v-335h-83v74h-9q-56 -90 -176 -90zM230 53
q77 0 125 42t48 106v45l-140 -16q-143 -18 -143 -100q0 -36 29.5 -56.5t80.5 -20.5z" />
    <glyph glyph-name="aacute" unicode="&#xe1;" horiz-adv-x="553" 
d="M312 593h-87l107 142h94zM218 -16q-82 0 -131.5 39.5t-49.5 104.5q0 68 58 114t168 58l140 17v20q0 51 -35 81.5t-97 30.5q-58 0 -92 -26.5t-33 -73.5h-84q0 80 57 127.5t153 47.5q98 0 156 -51.5t58 -137.5v-335h-83v74h-9q-56 -90 -176 -90zM230 53q77 0 125 42t48 106
v45l-140 -16q-143 -18 -143 -100q0 -36 29.5 -56.5t80.5 -20.5z" />
    <glyph glyph-name="acircumflex" unicode="&#xe2;" horiz-adv-x="553" 
d="M113 593l114 142h93l115 -142h-82l-74 86h-10l-76 -86h-80zM218 -16q-82 0 -131.5 39.5t-49.5 104.5q0 68 58 114t168 58l140 17v20q0 51 -35 81.5t-97 30.5q-58 0 -92 -26.5t-33 -73.5h-84q0 80 57 127.5t153 47.5q98 0 156 -51.5t58 -137.5v-335h-83v74h-9
q-56 -90 -176 -90zM230 53q77 0 125 42t48 106v45l-140 -16q-143 -18 -143 -100q0 -36 29.5 -56.5t80.5 -20.5z" />
    <glyph glyph-name="atilde" unicode="&#xe3;" horiz-adv-x="553" 
d="M337 593q-32 0 -56.5 14.5t-44 28.5t-39.5 14q-38 0 -59 -36l-44 33q14 30 44 49t66 19q37 0 77 -29t63 -29q42 0 61 38l45 -33q-14 -31 -44 -50t-69 -19zM218 -16q-82 0 -131.5 39.5t-49.5 104.5q0 68 58 114t168 58l140 17v20q0 51 -35 81.5t-97 30.5q-58 0 -92 -26.5
t-33 -73.5h-84q0 80 57 127.5t153 47.5q98 0 156 -51.5t58 -137.5v-335h-83v74h-9q-56 -90 -176 -90zM230 53q77 0 125 42t48 106v45l-140 -16q-143 -18 -143 -100q0 -36 29.5 -56.5t80.5 -20.5z" />
    <glyph glyph-name="adieresis" unicode="&#xe4;" horiz-adv-x="553" 
d="M152 601q-24 0 -39.5 15.5t-15.5 38.5q0 24 15.5 39t39.5 15q25 0 40 -15t15 -39q0 -23 -15.5 -38.5t-39.5 -15.5zM392 601q-24 0 -39.5 15.5t-15.5 38.5q0 24 15 39t40 15q24 0 39.5 -15t15.5 -39q0 -23 -15.5 -38.5t-39.5 -15.5zM218 -16q-82 0 -131.5 39.5
t-49.5 104.5q0 68 58 114t168 58l140 17v20q0 51 -35 81.5t-97 30.5q-58 0 -92 -26.5t-33 -73.5h-84q0 80 57 127.5t153 47.5q98 0 156 -51.5t58 -137.5v-335h-83v74h-9q-56 -90 -176 -90zM230 53q77 0 125 42t48 106v45l-140 -16q-143 -18 -143 -100q0 -36 29.5 -56.5
t80.5 -20.5z" />
    <glyph glyph-name="aring" unicode="&#xe5;" horiz-adv-x="553" 
d="M272 588q-48 0 -78.5 29.5t-30.5 74.5q0 46 30.5 75t78.5 29t78 -29t30 -75q0 -45 -30 -74.5t-78 -29.5zM272 628q28 0 46 18t18 46t-18 46t-46 18t-46 -18t-18 -46t18 -46t46 -18zM218 -16q-82 0 -131.5 39.5t-49.5 104.5q0 68 58 114t168 58l140 17v20q0 51 -35 81.5
t-97 30.5q-58 0 -92 -26.5t-33 -73.5h-84q0 80 57 127.5t153 47.5q98 0 156 -51.5t58 -137.5v-335h-83v74h-9q-56 -90 -176 -90zM230 53q77 0 125 42t48 106v45l-140 -16q-143 -18 -143 -100q0 -36 29.5 -56.5t80.5 -20.5z" />
    <glyph glyph-name="ae" unicode="&#xe6;" horiz-adv-x="952" 
d="M269 527q68 0 119.5 -26.5t76.5 -72.5q73 97 193 97q107 0 175.5 -75t68.5 -192q0 -21 -1 -32h-405q9 -77 55.5 -124t113.5 -47q47 0 86.5 25.5t63.5 71.5l68 -34q-27 -61 -86 -99.5t-127 -38.5q-74 0 -132 39.5t-85 104.5q-20 -63 -82 -101.5t-144 -38.5q-86 0 -138 41
t-52 108q0 70 59 114t170 56l140 15v23q0 52 -36.5 81.5t-99.5 29.5q-55 0 -90 -27.5t-34 -70.5h-84q0 75 58.5 124t148.5 49zM654 450q-62 0 -104 -42t-53 -111h317q-10 69 -53 111t-107 42zM266 237q-73 -8 -109.5 -35.5t-36.5 -66.5t32.5 -61t83.5 -22q74 0 122 44
t48 109v48z" />
    <glyph glyph-name="ccedilla" unicode="&#xe7;" horiz-adv-x="612" 
d="M562 165q-16 -75 -78.5 -125.5t-145.5 -58.5l-4 -30q44 0 73.5 -26.5t29.5 -66.5t-29 -65t-75 -25q-41 0 -71 20t-36 52l53 13q3 -19 18 -30.5t35 -11.5q23 0 37 13t14 33q0 23 -18 37t-46 14h-51l11 74q-102 12 -165.5 87t-62.5 184q0 118 74.5 195t188.5 77
q93 0 163 -52.5t83 -133.5l-80 -11q-14 54 -60.5 88t-104.5 34q-78 0 -130 -55.5t-51 -141.5q0 -87 51 -142.5t129 -55.5q59 0 105 33.5t62 86.5z" />
    <glyph glyph-name="egrave" unicode="&#xe8;" horiz-adv-x="635" 
d="M278 593l-114 142h94l107 -142h-87zM324 -20q-119 0 -196 79t-77 200q0 116 75.5 191t192.5 75q116 0 191 -75.5t75 -191.5q0 -22 -1 -33h-447q9 -77 60.5 -123.5t127.5 -46.5q57 0 103.5 26.5t69.5 71.5l69 -35q-30 -65 -94.5 -101.5t-148.5 -36.5zM138 298h359
q-11 68 -60.5 110t-120.5 42q-70 0 -118.5 -41.5t-59.5 -110.5z" />
    <glyph glyph-name="eacute" unicode="&#xe9;" horiz-adv-x="635" 
d="M358 593h-87l108 142h94zM324 -20q-119 0 -196 79t-77 200q0 116 75.5 191t192.5 75q116 0 191 -75.5t75 -191.5q0 -22 -1 -33h-447q9 -77 60.5 -123.5t127.5 -46.5q57 0 103.5 26.5t69.5 71.5l69 -35q-30 -65 -94.5 -101.5t-148.5 -36.5zM138 298h359q-11 68 -60.5 110
t-120.5 42q-70 0 -118.5 -41.5t-59.5 -110.5z" />
    <glyph glyph-name="ecircumflex" unicode="&#xea;" horiz-adv-x="635" 
d="M159 593l114 142h93l115 -142h-81l-75 86h-10l-75 -86h-81zM324 -20q-119 0 -196 79t-77 200q0 116 75.5 191t192.5 75q116 0 191 -75.5t75 -191.5q0 -22 -1 -33h-447q9 -77 60.5 -123.5t127.5 -46.5q57 0 103.5 26.5t69.5 71.5l69 -35q-30 -65 -94.5 -101.5
t-148.5 -36.5zM138 298h359q-11 68 -60.5 110t-120.5 42q-70 0 -118.5 -41.5t-59.5 -110.5z" />
    <glyph glyph-name="edieresis" unicode="&#xeb;" horiz-adv-x="635" 
d="M198 601q-24 0 -39.5 15.5t-15.5 38.5q0 24 15.5 39t39.5 15q25 0 40.5 -15t15.5 -39q0 -23 -15.5 -38.5t-40.5 -15.5zM438 601q-24 0 -39.5 15.5t-15.5 38.5q0 24 15.5 39t39.5 15t39.5 -15t15.5 -39q0 -23 -15.5 -38.5t-39.5 -15.5zM324 -20q-119 0 -196 79t-77 200
q0 116 75.5 191t192.5 75q116 0 191 -75.5t75 -191.5q0 -22 -1 -33h-447q9 -77 60.5 -123.5t127.5 -46.5q57 0 103.5 26.5t69.5 71.5l69 -35q-30 -65 -94.5 -101.5t-148.5 -36.5zM138 298h359q-11 68 -60.5 110t-120.5 42q-70 0 -118.5 -41.5t-59.5 -110.5z" />
    <glyph glyph-name="igrave" unicode="&#xec;" horiz-adv-x="235" 
d="M78 593l-114 142h94l107 -142h-87zM77 0v505h83v-505h-83z" />
    <glyph glyph-name="iacute" unicode="&#xed;" horiz-adv-x="235" 
d="M159 593h-87l107 142h94zM77 0v505h83v-505h-83z" />
    <glyph glyph-name="icircumflex" unicode="&#xee;" horiz-adv-x="235" 
d="M-41 593l114 142h93l115 -142h-81l-75 86h-10l-75 -86h-81zM77 0v505h83v-505h-83z" />
    <glyph glyph-name="idieresis" unicode="&#xef;" horiz-adv-x="235" 
d="M-1 601q-25 0 -40.5 15.5t-15.5 38.5q0 24 15.5 39t40.5 15q24 0 39.5 -15t15.5 -39q0 -23 -15.5 -38.5t-39.5 -15.5zM238 601q-24 0 -39.5 15.5t-15.5 38.5q0 24 15.5 39t39.5 15t39.5 -15t15.5 -39q0 -23 -15.5 -38.5t-39.5 -15.5zM77 0v505h83v-505h-83z" />
    <glyph glyph-name="ntilde" unicode="&#xf1;" 
d="M385 593q-32 0 -56.5 14.5t-44 28.5t-39.5 14q-38 0 -59 -36l-44 33q14 30 44 49t66 19q37 0 77.5 -29t62.5 -29q20 0 36.5 10.5t24.5 27.5l45 -33q-14 -31 -44 -50t-69 -19zM78 0v505h83v-69h9q57 88 159 88q95 0 152.5 -62.5t57.5 -159.5v-302h-83v302q0 65 -37 106
t-101 41q-65 0 -111 -44.5t-46 -109.5v-295h-83z" />
    <glyph glyph-name="ograve" unicode="&#xf2;" horiz-adv-x="642" 
d="M281 593l-114 142h94l107 -142h-87zM321 -20q-119 0 -195 76.5t-76 196.5q0 119 76 195.5t195 76.5t195 -76.5t76 -195.5q0 -120 -76 -196.5t-195 -76.5zM321 55q82 0 135 56t53 142t-53 141.5t-135 55.5t-135 -55.5t-53 -141.5t53 -142t135 -56z" />
    <glyph glyph-name="oacute" unicode="&#xf3;" horiz-adv-x="642" 
d="M361 593h-87l107 142h94zM321 -20q-119 0 -195 76.5t-76 196.5q0 119 76 195.5t195 76.5t195 -76.5t76 -195.5q0 -120 -76 -196.5t-195 -76.5zM321 55q82 0 135 56t53 142t-53 141.5t-135 55.5t-135 -55.5t-53 -141.5t53 -142t135 -56z" />
    <glyph glyph-name="ocircumflex" unicode="&#xf4;" horiz-adv-x="642" 
d="M162 593l114 142h93l114 -142h-81l-75 86h-9l-76 -86h-80zM321 -20q-119 0 -195 76.5t-76 196.5q0 119 76 195.5t195 76.5t195 -76.5t76 -195.5q0 -120 -76 -196.5t-195 -76.5zM321 55q82 0 135 56t53 142t-53 141.5t-135 55.5t-135 -55.5t-53 -141.5t53 -142t135 -56z
" />
    <glyph glyph-name="otilde" unicode="&#xf5;" horiz-adv-x="642" 
d="M386 593q-41 0 -80 28.5t-60 28.5q-38 0 -59 -36l-44 33q14 30 44 49t66 19t76.5 -29t63.5 -29q42 0 61 38l45 -33q-15 -32 -44.5 -50.5t-68.5 -18.5zM321 -20q-119 0 -195 76.5t-76 196.5q0 119 76 195.5t195 76.5t195 -76.5t76 -195.5q0 -120 -76 -196.5t-195 -76.5z
M321 55q82 0 135 56t53 142t-53 141.5t-135 55.5t-135 -55.5t-53 -141.5t53 -142t135 -56z" />
    <glyph glyph-name="odieresis" unicode="&#xf6;" horiz-adv-x="642" 
d="M201 601q-24 0 -39.5 15.5t-15.5 38.5q0 24 15.5 39t39.5 15t39.5 -15t15.5 -39q0 -23 -15.5 -38.5t-39.5 -15.5zM440 601q-24 0 -39.5 15.5t-15.5 38.5q0 24 15.5 39t39.5 15q25 0 40.5 -15t15.5 -39q0 -23 -15.5 -38.5t-40.5 -15.5zM321 -20q-119 0 -195 76.5
t-76 196.5q0 119 76 195.5t195 76.5t195 -76.5t76 -195.5q0 -120 -76 -196.5t-195 -76.5zM321 55q82 0 135 56t53 142t-53 141.5t-135 55.5t-135 -55.5t-53 -141.5t53 -142t135 -56z" />
    <glyph glyph-name="divide" unicode="&#xf7;" horiz-adv-x="552" 
d="M276 489q-22 0 -36 13.5t-14 35.5q0 21 14 34.5t36 13.5t36 -13.5t14 -34.5q0 -22 -14 -35.5t-36 -13.5zM51 311v75h450v-75h-450zM276 95q-22 0 -36 13.5t-14 35.5q0 21 14 34.5t36 13.5t36 -13.5t14 -34.5q0 -22 -14 -35.5t-36 -13.5z" />
    <glyph glyph-name="oslash" unicode="&#xf8;" horiz-adv-x="648" 
d="M324 525q56 0 100 -16l45 91h79l-62 -123q52 -36 81.5 -94t29.5 -130q0 -120 -76.5 -196.5t-196.5 -76.5q-46 0 -82 11l-34 -71h-79l49 97q-60 35 -93.5 96t-33.5 140q0 119 76.5 195.5t196.5 76.5zM324 461q-87 0 -143 -58.5t-56 -149.5q0 -116 84 -174l185 370
q-33 12 -70 12zM324 44q86 0 142 59t56 150q0 101 -69 160l-181 -363q24 -6 52 -6z" />
    <glyph glyph-name="ugrave" unicode="&#xf9;" 
d="M255 593l-114 142h94l107 -142h-87zM528 505v-505h-83v69h-10q-55 -87 -158 -87q-96 0 -153 62t-57 160v301h83v-301q0 -66 36.5 -106.5t100.5 -40.5q65 0 111.5 44t46.5 110v294h83z" />
    <glyph glyph-name="uacute" unicode="&#xfa;" 
d="M335 593h-87l107 142h94zM528 505v-505h-83v69h-10q-55 -87 -158 -87q-96 0 -153 62t-57 160v301h83v-301q0 -66 36.5 -106.5t100.5 -40.5q65 0 111.5 44t46.5 110v294h83z" />
    <glyph glyph-name="ucircumflex" unicode="&#xfb;" 
d="M136 593l114 142h93l115 -142h-82l-74 86h-10l-76 -86h-80zM528 505v-505h-83v69h-10q-55 -87 -158 -87q-96 0 -153 62t-57 160v301h83v-301q0 -66 36.5 -106.5t100.5 -40.5q65 0 111.5 44t46.5 110v294h83z" />
    <glyph glyph-name="udieresis" unicode="&#xfc;" 
d="M175 601q-24 0 -39.5 15.5t-15.5 38.5q0 24 15.5 39t39.5 15q25 0 40 -15t15 -39q0 -23 -15 -38.5t-40 -15.5zM415 601q-25 0 -40 15.5t-15 38.5q0 24 15 39t40 15q24 0 39.5 -15t15.5 -39q0 -23 -15.5 -38.5t-39.5 -15.5zM528 505v-505h-83v69h-10q-55 -87 -158 -87
q-96 0 -153 62t-57 160v301h83v-301q0 -66 36.5 -106.5t100.5 -40.5q65 0 111.5 44t46.5 110v294h83z" />
    <glyph glyph-name="yacute" unicode="&#xfd;" horiz-adv-x="533" 
d="M316 593h-87l108 142h94zM126 -224q-43 0 -80 16v73q38 -15 67 -15q18 0 33.5 7t25 15t21 27.5t16 29.5t15.5 37t14 35l-225 504h87l173 -395h10l148 395h89l-200 -513q-16 -39 -23 -56t-22.5 -48.5t-28 -46.5t-31 -33t-41 -25t-48.5 -7z" />
    <glyph glyph-name="ydieresis" unicode="&#xff;" horiz-adv-x="533" 
d="M157 601q-25 0 -40.5 15.5t-15.5 38.5q0 24 15.5 39t40.5 15q24 0 39.5 -15t15.5 -39q0 -23 -15.5 -38.5t-39.5 -15.5zM396 601q-24 0 -39.5 15.5t-15.5 38.5q0 24 15.5 39t39.5 15t39.5 -15t15.5 -39q0 -23 -15.5 -38.5t-39.5 -15.5zM126 -224q-43 0 -80 16v73
q38 -15 67 -15q18 0 33.5 7t25 15t21 27.5t16 29.5t15.5 37t14 35l-225 504h87l173 -395h10l148 395h89l-200 -513q-16 -39 -23 -56t-22.5 -48.5t-28 -46.5t-31 -33t-41 -25t-48.5 -7z" />
    <glyph glyph-name="Amacron" unicode="&#x100;" horiz-adv-x="713" 
d="M203 802v66h310v-66h-310zM30 0l266 705h124l263 -705h-87l-60 158h-359l-60 -158h-87zM204 233h306l-148 392h-9z" />
    <glyph glyph-name="amacron" unicode="&#x101;" horiz-adv-x="553" 
d="M117 602v66h310v-66h-310zM218 -16q-82 0 -131.5 39.5t-49.5 104.5q0 68 58 114t168 58l140 17v20q0 51 -35 81.5t-97 30.5q-58 0 -92 -26.5t-33 -73.5h-84q0 80 57 127.5t153 47.5q98 0 156 -51.5t58 -137.5v-335h-83v74h-9q-56 -90 -176 -90zM230 53q77 0 125 42
t48 106v45l-140 -16q-143 -18 -143 -100q0 -36 29.5 -56.5t80.5 -20.5z" />
    <glyph glyph-name="Abreve" unicode="&#x102;" horiz-adv-x="713" 
d="M358 778q-66 0 -108.5 35t-42.5 88h82q0 -28 18.5 -43.5t50.5 -15.5t50 15.5t18 43.5h81q0 -53 -42 -88t-107 -35zM30 0l266 705h124l263 -705h-87l-60 158h-359l-60 -158h-87zM204 233h306l-148 392h-9z" />
    <glyph glyph-name="abreve" unicode="&#x103;" horiz-adv-x="553" 
d="M272 601q-58 0 -96 37.5t-38 96.5h70q0 -33 17 -53t47 -20q29 0 46.5 20t17.5 53h69q0 -58 -37.5 -96t-95.5 -38zM218 -16q-82 0 -131.5 39.5t-49.5 104.5q0 68 58 114t168 58l140 17v20q0 51 -35 81.5t-97 30.5q-58 0 -92 -26.5t-33 -73.5h-84q0 80 57 127.5t153 47.5
q98 0 156 -51.5t58 -137.5v-335h-83v74h-9q-56 -90 -176 -90zM230 53q77 0 125 42t48 106v45l-140 -16q-143 -18 -143 -100q0 -36 29.5 -56.5t80.5 -20.5z" />
    <glyph glyph-name="Aogonek" unicode="&#x104;" horiz-adv-x="713" 
d="M666 0q-116 -51 -116 -111q0 -19 12 -30t32 -11q26 0 58 20v-47q-37 -21 -73 -21q-35 0 -56 21t-21 56q0 70 93 126l-59 155h-359l-60 -158h-87l266 705h124l263 -705h-17zM204 233h306l-148 392h-9z" />
    <glyph glyph-name="aogonek" unicode="&#x105;" horiz-adv-x="553" 
d="M272 524q98 0 156 -51.5t58 -137.5v-335h-8q-56 -24 -86 -53t-30 -58q0 -19 11.5 -30t32.5 -11q26 0 58 20v-47q-37 -21 -74 -21q-34 0 -55 21.5t-21 55.5q0 68 89 123v74h-9q-56 -90 -176 -90q-82 0 -131.5 39.5t-49.5 104.5q0 68 58 114t168 58l140 17v20
q0 51 -35 81.5t-97 30.5q-58 0 -92 -26.5t-33 -73.5h-84q0 80 57 127.5t153 47.5zM230 53q77 0 125 42t48 106v45l-140 -16q-143 -18 -143 -100q0 -36 29.5 -56.5t80.5 -20.5z" />
    <glyph glyph-name="Cacute" unicode="&#x106;" horiz-adv-x="803" 
d="M370 801l106 113h103l-110 -113h-99zM417 -25q-159 0 -262.5 107t-102.5 271q0 164 103 270.5t262 106.5q119 0 213.5 -72.5t121.5 -183.5l-89 -12q-20 82 -89.5 135t-156.5 53q-120 0 -197 -84t-77 -213t77.5 -213.5t196.5 -84.5q85 0 154.5 51.5t92.5 129.5l87 -17
q-26 -105 -120.5 -174.5t-213.5 -69.5z" />
    <glyph glyph-name="cacute" unicode="&#x107;" horiz-adv-x="612" 
d="M355 593h-87l107 142h94zM314 -20q-115 0 -189.5 77.5t-73.5 195.5q0 118 74.5 195t188.5 77q93 0 163 -52.5t83 -133.5l-80 -11q-14 54 -60.5 88t-104.5 34q-78 0 -130 -55.5t-51 -141.5q0 -87 51 -142.5t129 -55.5q59 0 105 33.5t62 86.5l81 -10q-17 -81 -87.5 -133
t-160.5 -52z" />
    <glyph glyph-name="Ccircumflex" unicode="&#x108;" horiz-adv-x="803" 
d="M369 914h98l116 -113h-85l-74 62h-11l-74 -62h-85zM417 -25q-159 0 -262.5 107t-102.5 271q0 164 103 270.5t262 106.5q119 0 213.5 -72.5t121.5 -183.5l-89 -12q-20 82 -89.5 135t-156.5 53q-120 0 -197 -84t-77 -213t77.5 -213.5t196.5 -84.5q85 0 154.5 51.5
t92.5 129.5l87 -17q-26 -105 -120.5 -174.5t-213.5 -69.5z" />
    <glyph glyph-name="ccircumflex" unicode="&#x109;" horiz-adv-x="612" 
d="M156 593l113 142h93l115 -142h-81l-75 86h-9l-76 -86h-80zM314 -20q-115 0 -189.5 77.5t-73.5 195.5q0 118 74.5 195t188.5 77q93 0 163 -52.5t83 -133.5l-80 -11q-14 54 -60.5 88t-104.5 34q-78 0 -130 -55.5t-51 -141.5q0 -87 51 -142.5t129 -55.5q59 0 105 33.5
t62 86.5l81 -10q-17 -81 -87.5 -133t-160.5 -52z" />
    <glyph glyph-name="Cdotaccent" unicode="&#x10a;" horiz-adv-x="803" 
d="M418 803q-27 0 -43.5 16.5t-16.5 42.5t16.5 42.5t43.5 16.5q26 0 42.5 -16.5t16.5 -42.5t-16.5 -42.5t-42.5 -16.5zM417 -25q-159 0 -262.5 107t-102.5 271q0 164 103 270.5t262 106.5q119 0 213.5 -72.5t121.5 -183.5l-89 -12q-20 82 -89.5 135t-156.5 53
q-120 0 -197 -84t-77 -213t77.5 -213.5t196.5 -84.5q85 0 154.5 51.5t92.5 129.5l87 -17q-26 -105 -120.5 -174.5t-213.5 -69.5z" />
    <glyph glyph-name="cdotaccent" unicode="&#x10b;" horiz-adv-x="612" 
d="M315 601q-26 0 -43 17t-17 43q0 25 17 41.5t43 16.5t42.5 -16t16.5 -42t-16.5 -43t-42.5 -17zM314 -20q-115 0 -189.5 77.5t-73.5 195.5q0 118 74.5 195t188.5 77q93 0 163 -52.5t83 -133.5l-80 -11q-14 54 -60.5 88t-104.5 34q-78 0 -130 -55.5t-51 -141.5
q0 -87 51 -142.5t129 -55.5q59 0 105 33.5t62 86.5l81 -10q-17 -81 -87.5 -133t-160.5 -52z" />
    <glyph glyph-name="Ccaron" unicode="&#x10c;" horiz-adv-x="803" 
d="M368 801l-115 113h85l74 -62h11l74 62h85l-116 -113h-98zM417 -25q-159 0 -262.5 107t-102.5 271q0 164 103 270.5t262 106.5q119 0 213.5 -72.5t121.5 -183.5l-89 -12q-20 82 -89.5 135t-156.5 53q-120 0 -197 -84t-77 -213t77.5 -213.5t196.5 -84.5q85 0 154.5 51.5
t92.5 129.5l87 -17q-26 -105 -120.5 -174.5t-213.5 -69.5z" />
    <glyph glyph-name="ccaron" unicode="&#x10d;" horiz-adv-x="612" 
d="M153 735h80l76 -85h9l75 85h82l-115 -142h-93zM314 -20q-115 0 -189.5 77.5t-73.5 195.5q0 118 74.5 195t188.5 77q93 0 163 -52.5t83 -133.5l-80 -11q-14 54 -60.5 88t-104.5 34q-78 0 -130 -55.5t-51 -141.5q0 -87 51 -142.5t129 -55.5q59 0 105 33.5t62 86.5l81 -10
q-17 -81 -87.5 -133t-160.5 -52z" />
    <glyph glyph-name="Dcaron" unicode="&#x10e;" horiz-adv-x="779" 
d="M332 788l-115 113h85l74 -62h11l74 62h85l-116 -113h-98zM95 0v705h227q183 0 294.5 -96.5t111.5 -255.5t-111.5 -256t-294.5 -97h-227zM187 80h135q142 0 228.5 73.5t86.5 199.5q0 125 -86.5 198.5t-228.5 73.5h-135v-545z" />
    <glyph glyph-name="dcaron" unicode="&#x10f;" horiz-adv-x="674" 
d="M711 556l-34 10l38 74q-23 2 -38 16t-15 35q0 24 15.5 39t39.5 15t39.5 -15t15.5 -39q0 -21 -11 -42zM313 -20q-112 0 -187 77.5t-75 195.5t74.5 195t186.5 77q127 0 185 -95h10v305h83v-735h-83v78h-10q-58 -98 -184 -98zM322 55q80 0 133.5 57t53.5 141t-53 140.5
t-134 56.5t-134.5 -56.5t-53.5 -140.5q0 -85 53.5 -141.5t134.5 -56.5z" />
    <glyph glyph-name="Dcroat" unicode="&#x110;" horiz-adv-x="825" 
d="M368 705q183 0 294.5 -96.5t111.5 -255.5t-111.5 -256t-294.5 -97h-227v366h-111v75h111v264h227zM368 80q142 0 228.5 73.5t86.5 199.5q0 125 -86.5 198.5t-228.5 73.5h-135v-184h247v-75h-247v-286h135z" />
    <glyph glyph-name="dcroat" unicode="&#x111;" horiz-adv-x="665" 
d="M679 671v-61h-90v-610h-83v78h-10q-58 -98 -184 -98q-112 0 -187 77.5t-75 195.5t74.5 195t186.5 77q127 0 185 -95h10v180h-209v61h209v64h83v-64h90zM321 55q81 0 134.5 57t53.5 141t-53.5 140.5t-134.5 56.5t-134.5 -56.5t-53.5 -140.5q0 -85 53.5 -141.5t134.5 -56.5
z" />
    <glyph glyph-name="Emacron" unicode="&#x112;" horiz-adv-x="639" 
d="M184 802v66h310v-66h-310zM95 0v705h484v-80h-392v-220h352v-80h-352v-245h402v-80h-494z" />
    <glyph glyph-name="emacron" unicode="&#x113;" horiz-adv-x="635" 
d="M163 602v66h310v-66h-310zM324 -20q-119 0 -196 79t-77 200q0 116 75.5 191t192.5 75q116 0 191 -75.5t75 -191.5q0 -22 -1 -33h-447q9 -77 60.5 -123.5t127.5 -46.5q57 0 103.5 26.5t69.5 71.5l69 -35q-30 -65 -94.5 -101.5t-148.5 -36.5zM138 298h359q-11 68 -60.5 110
t-120.5 42q-70 0 -118.5 -41.5t-59.5 -110.5z" />
    <glyph glyph-name="Ebreve" unicode="&#x114;" horiz-adv-x="639" 
d="M339 778q-65 0 -107.5 35t-42.5 88h82q0 -28 18 -43.5t50 -15.5t50 15.5t18 43.5h82q0 -53 -42.5 -88t-107.5 -35zM95 0v705h484v-80h-392v-220h352v-80h-352v-245h402v-80h-494z" />
    <glyph glyph-name="ebreve" unicode="&#x115;" horiz-adv-x="635" 
d="M318 601q-58 0 -95.5 37.5t-37.5 96.5h69q0 -33 17 -53t47 -20t47 20t17 53h70q0 -58 -38 -96t-96 -38zM324 -20q-119 0 -196 79t-77 200q0 116 75.5 191t192.5 75q116 0 191 -75.5t75 -191.5q0 -22 -1 -33h-447q9 -77 60.5 -123.5t127.5 -46.5q57 0 103.5 26.5
t69.5 71.5l69 -35q-30 -65 -94.5 -101.5t-148.5 -36.5zM138 298h359q-11 68 -60.5 110t-120.5 42q-70 0 -118.5 -41.5t-59.5 -110.5z" />
    <glyph glyph-name="Edotaccent" unicode="&#x116;" horiz-adv-x="639" 
d="M339 790q-26 0 -42.5 17t-16.5 43t16.5 42t42.5 16t43 -16.5t17 -41.5q0 -26 -17 -43t-43 -17zM95 0v705h484v-80h-392v-220h352v-80h-352v-245h402v-80h-494z" />
    <glyph glyph-name="edotaccent" unicode="&#x117;" horiz-adv-x="635" 
d="M318 601q-26 0 -42.5 17t-16.5 43t16.5 42t42.5 16t43 -16.5t17 -41.5q0 -26 -17 -43t-43 -17zM324 -20q-119 0 -196 79t-77 200q0 116 75.5 191t192.5 75q116 0 191 -75.5t75 -191.5q0 -22 -1 -33h-447q9 -77 60.5 -123.5t127.5 -46.5q57 0 103.5 26.5t69.5 71.5l69 -35
q-30 -65 -94.5 -101.5t-148.5 -36.5zM138 298h359q-11 68 -60.5 110t-120.5 42q-70 0 -118.5 -41.5t-59.5 -110.5z" />
    <glyph glyph-name="Eogonek" unicode="&#x118;" horiz-adv-x="639" 
d="M187 80h402v-80h-30q-56 -24 -86 -53t-30 -58q0 -19 11.5 -30t32.5 -11q26 0 58 20v-47q-37 -21 -74 -21q-34 0 -55 21.5t-21 55.5q0 68 89 123h-389v705h484v-80h-392v-220h352v-80h-352v-245z" />
    <glyph glyph-name="eogonek" unicode="&#x119;" horiz-adv-x="635" 
d="M585 258q0 -22 -1 -33h-447q9 -77 60.5 -123.5t127.5 -46.5q57 0 103.5 26.5t69.5 71.5l69 -35q-46 -98 -162 -128q-94 -47 -94 -101q0 -19 11.5 -30t32.5 -11q26 0 58 20v-47q-37 -21 -74 -21q-34 0 -55 21.5t-21 55.5q0 55 60 103q-118 0 -195 79t-77 200
q0 116 75.5 191t192.5 75q116 0 191 -75.5t75 -191.5zM138 298h359q-11 68 -60.5 110t-120.5 42q-70 0 -118.5 -41.5t-59.5 -110.5z" />
    <glyph glyph-name="Ecaron" unicode="&#x11a;" horiz-adv-x="639" 
d="M290 788l-115 113h84l75 -62h11l74 62h85l-116 -113h-98zM95 0v705h484v-80h-392v-220h352v-80h-352v-245h402v-80h-494z" />
    <glyph glyph-name="ecaron" unicode="&#x11b;" horiz-adv-x="635" 
d="M157 735h80l76 -85h9l75 85h81l-115 -142h-93zM324 -20q-119 0 -196 79t-77 200q0 116 75.5 191t192.5 75q116 0 191 -75.5t75 -191.5q0 -22 -1 -33h-447q9 -77 60.5 -123.5t127.5 -46.5q57 0 103.5 26.5t69.5 71.5l69 -35q-30 -65 -94.5 -101.5t-148.5 -36.5zM138 298
h359q-11 68 -60.5 110t-120.5 42q-70 0 -118.5 -41.5t-59.5 -110.5z" />
    <glyph glyph-name="Gcircumflex" unicode="&#x11c;" horiz-adv-x="852" 
d="M385 901h97l116 -113h-84l-75 62h-10l-75 -62h-84zM433 -25q-166 0 -273.5 107t-107.5 271t107.5 270.5t273.5 106.5q110 0 201 -58t120 -147l-84 -26q-22 66 -89 108.5t-148 42.5q-127 0 -208.5 -83.5t-81.5 -213.5q0 -129 82 -213.5t208 -84.5q113 0 192.5 72.5
t82.5 179.5h-350v81h442q11 -180 -92 -296.5t-275 -116.5z" />
    <glyph glyph-name="gcircumflex" unicode="&#x11d;" horiz-adv-x="666" 
d="M162 593l114 142h93l114 -142h-81l-75 86h-9l-76 -86h-80zM321 -250q-97 0 -165.5 44.5t-94.5 123.5l83 31q20 -59 67 -91.5t114 -32.5q83 0 132.5 49.5t49.5 134.5v68h-10q-71 -90 -184 -90q-114 0 -188 75t-74 191q0 117 74 194t188 77q115 0 185 -91h10v72h82v-496
q0 -118 -73.5 -188.5t-195.5 -70.5zM322 60q82 0 135 55t53 138q0 85 -53.5 141t-134.5 56q-82 0 -135 -55.5t-53 -141.5q0 -83 53 -138t135 -55z" />
    <glyph glyph-name="Gbreve" unicode="&#x11e;" horiz-adv-x="852" 
d="M433 778q-65 0 -108 35t-43 88h83q0 -28 18 -43.5t50 -15.5t50 15.5t18 43.5h81q0 -53 -42 -88t-107 -35zM433 -25q-166 0 -273.5 107t-107.5 271t107.5 270.5t273.5 106.5q110 0 201 -58t120 -147l-84 -26q-22 66 -89 108.5t-148 42.5q-127 0 -208.5 -83.5t-81.5 -213.5
q0 -129 82 -213.5t208 -84.5q113 0 192.5 72.5t82.5 179.5h-350v81h442q11 -180 -92 -296.5t-275 -116.5z" />
    <glyph glyph-name="gbreve" unicode="&#x11f;" horiz-adv-x="666" 
d="M321 601q-59 0 -96.5 37.5t-37.5 96.5h70q0 -33 17 -53t47 -20q29 0 46.5 20t17.5 53h69q0 -58 -37.5 -96t-95.5 -38zM321 -250q-97 0 -165.5 44.5t-94.5 123.5l83 31q20 -59 67 -91.5t114 -32.5q83 0 132.5 49.5t49.5 134.5v68h-10q-71 -90 -184 -90q-114 0 -188 75
t-74 191q0 117 74 194t188 77q115 0 185 -91h10v72h82v-496q0 -118 -73.5 -188.5t-195.5 -70.5zM322 60q82 0 135 55t53 138q0 85 -53.5 141t-134.5 56q-82 0 -135 -55.5t-53 -141.5q0 -83 53 -138t135 -55z" />
    <glyph glyph-name="Gdotaccent" unicode="&#x120;" horiz-adv-x="852" 
d="M433 790q-26 0 -43 17t-17 43q0 25 17 41.5t43 16.5t43 -16.5t17 -41.5q0 -26 -17 -43t-43 -17zM433 -25q-166 0 -273.5 107t-107.5 271t107.5 270.5t273.5 106.5q110 0 201 -58t120 -147l-84 -26q-22 66 -89 108.5t-148 42.5q-127 0 -208.5 -83.5t-81.5 -213.5
q0 -129 82 -213.5t208 -84.5q113 0 192.5 72.5t82.5 179.5h-350v81h442q11 -180 -92 -296.5t-275 -116.5z" />
    <glyph glyph-name="gdotaccent" unicode="&#x121;" horiz-adv-x="666" 
d="M321 601q-26 0 -43 17t-17 43q0 25 17 41.5t43 16.5t43 -16.5t17 -41.5q0 -26 -17 -43t-43 -17zM321 -250q-97 0 -165.5 44.5t-94.5 123.5l83 31q20 -59 67 -91.5t114 -32.5q83 0 132.5 49.5t49.5 134.5v68h-10q-71 -90 -184 -90q-114 0 -188 75t-74 191q0 117 74 194
t188 77q115 0 185 -91h10v72h82v-496q0 -118 -73.5 -188.5t-195.5 -70.5zM322 60q82 0 135 55t53 138q0 85 -53.5 141t-134.5 56q-82 0 -135 -55.5t-53 -141.5q0 -83 53 -138t135 -55z" />
    <glyph glyph-name="Gcommaaccent" unicode="&#x122;" horiz-adv-x="852" 
d="M433 -25q-166 0 -273.5 107t-107.5 271t107.5 270.5t273.5 106.5q110 0 201 -58t120 -147l-84 -26q-22 66 -89 108.5t-148 42.5q-127 0 -208.5 -83.5t-81.5 -213.5q0 -129 82 -213.5t208 -84.5q113 0 192.5 72.5t82.5 179.5h-350v81h442q11 -180 -92 -296.5t-275 -116.5z
M428 -268l-34 10l37 74q-23 2 -38 16.5t-15 35.5q0 23 15.5 38.5t40.5 15.5q24 0 39.5 -15.5t15.5 -38.5t-12 -43z" />
    <glyph glyph-name="gcommaaccent" unicode="&#x123;" horiz-adv-x="666" 
d="M327 773l34 -10l-38 -74q23 -2 38 -16t15 -35q0 -24 -15.5 -39t-39.5 -15t-39.5 15t-15.5 39q0 21 11 42zM321 -250q-97 0 -165.5 44.5t-94.5 123.5l83 31q20 -59 67 -91.5t114 -32.5q83 0 132.5 49.5t49.5 134.5v68h-10q-71 -90 -184 -90q-114 0 -188 75t-74 191
q0 117 74 194t188 77q115 0 185 -91h10v72h82v-496q0 -118 -73.5 -188.5t-195.5 -70.5zM322 60q82 0 135 55t53 138q0 85 -53.5 141t-134.5 56q-82 0 -135 -55.5t-53 -141.5q0 -83 53 -138t135 -55z" />
    <glyph glyph-name="Itilde" unicode="&#x128;" horiz-adv-x="281" 
d="M204 798q-32 0 -56.5 14t-43.5 28.5t-37 14.5q-37 0 -63 -46l-44 32q15 31 44 50t66 19q38 0 77.5 -28.5t60.5 -28.5q42 0 64 46l44 -32q-14 -31 -44 -50t-68 -19zM95 0v705h92v-705h-92z" />
    <glyph glyph-name="itilde" unicode="&#x129;" horiz-adv-x="235" 
d="M183 593q-32 0 -56.5 14.5t-44 28.5t-39.5 14q-38 0 -59 -36l-44 33q14 30 44 49t66 19q37 0 77.5 -29t62.5 -29q43 0 62 38l45 -33q-15 -32 -44.5 -50.5t-69.5 -18.5zM77 0v505h83v-505h-83z" />
    <glyph glyph-name="Imacron" unicode="&#x12a;" horiz-adv-x="281" 
d="M-14 802v66h310v-66h-310zM95 0v705h92v-705h-92z" />
    <glyph glyph-name="imacron" unicode="&#x12b;" horiz-adv-x="235" 
d="M-36 602v66h310v-66h-310zM77 0v505h83v-505h-83z" />
    <glyph glyph-name="Iogonek" unicode="&#x12e;" horiz-adv-x="281" 
d="M95 705h92v-705h-20q-56 -24 -86 -53t-30 -58q0 -19 11.5 -30t32.5 -11q26 0 58 20v-47q-37 -21 -74 -21q-34 0 -55 21.5t-21 55.5q0 70 92 125v703z" />
    <glyph glyph-name="iogonek" unicode="&#x12f;" horiz-adv-x="253" 
d="M127 719q26 0 43 -16.5t17 -41.5q0 -26 -17 -43t-43 -17t-42.5 17t-16.5 43t16.5 42t42.5 16zM85 1v504h83v-505h-10q-116 -51 -116 -111q0 -19 12 -30t32 -11q26 0 58 20v-47q-37 -21 -74 -21q-34 0 -55 21.5t-21 55.5q0 69 91 124z" />
    <glyph glyph-name="Idotaccent" unicode="&#x130;" horiz-adv-x="281" 
d="M141 790q-26 0 -43 17t-17 43q0 25 17 41.5t43 16.5t43 -16.5t17 -41.5q0 -26 -17 -43t-43 -17zM95 0v705h92v-705h-92z" />
    <glyph glyph-name="dotlessi" unicode="&#x131;" horiz-adv-x="235" 
d="M76 0v505h83v-505h-83z" />
    <glyph glyph-name="IJ" unicode="&#x132;" horiz-adv-x="716" 
d="M95 0v705h92v-705h-92zM412 -20q-64 0 -129 20v78q61 -18 109 -18q63 0 102.5 41t39.5 111v493h91v-493q0 -103 -60 -167.5t-153 -64.5z" />
    <glyph glyph-name="ij" unicode="&#x133;" horiz-adv-x="517" 
d="M127 601q-26 0 -42.5 17t-16.5 43t16.5 42t42.5 16t43 -16.5t17 -41.5q0 -26 -17 -43t-43 -17zM382 601q-26 0 -43 17t-17 43q0 25 17 41.5t43 16.5t43 -16.5t17 -41.5q0 -26 -17 -43t-43 -17zM85 0v505h83v-505h-83zM288 -225q-52 0 -89 13v71q29 -9 66 -9q34 0 55 22
t21 58v575h83v-575q0 -67 -38.5 -111t-97.5 -44z" />
    <glyph glyph-name="Kcommaaccent" unicode="&#x136;" horiz-adv-x="633" 
d="M95 0v705h91v-308h10l292 308h114l-328 -341l338 -364h-115l-301 331h-10v-331h-91zM345 -268l-35 10l38 74q-23 2 -38 16.5t-15 35.5q0 23 15.5 38.5t39.5 15.5t39.5 -15t15.5 -39q0 -25 -11 -43z" />
    <glyph glyph-name="kcommaaccent" unicode="&#x137;" horiz-adv-x="503" 
d="M77 0v735h83v-446h10l216 216h110l-249 -242l255 -263h-111l-221 235h-10v-235h-83zM270 -268l-34 10l38 74q-23 1 -38 16t-15 36q0 23 15.5 38.5t39.5 15.5t39.5 -15.5t15.5 -38.5q0 -22 -11 -43z" />
    <glyph glyph-name="Lacute" unicode="&#x139;" horiz-adv-x="572" 
d="M95 788l105 113h103l-109 -113h-99zM95 0v705h92v-625h355v-80h-447z" />
    <glyph glyph-name="lacute" unicode="&#x13a;" horiz-adv-x="236" 
d="M72 788l105 113h103l-110 -113h-98zM77 0v735h83v-735h-83z" />
    <glyph glyph-name="Lcommaaccent" unicode="&#x13b;" horiz-adv-x="572" 
d="M95 0v705h92v-625h355v-80h-447zM332 -268l-34 10l38 74q-23 1 -38 16t-15 36q0 23 15.5 38.5t39.5 15.5t39.5 -15.5t15.5 -38.5q0 -22 -11 -43z" />
    <glyph glyph-name="lcommaaccent" unicode="&#x13c;" horiz-adv-x="236" 
d="M77 0v735h83v-735h-83zM113 -268l-34 10l37 74q-23 2 -38 16.5t-15 35.5q0 23 15.5 38.5t39.5 15.5q25 0 40.5 -15.5t15.5 -38.5t-12 -43z" />
    <glyph glyph-name="Lcaron" unicode="&#x13d;" horiz-adv-x="572" 
d="M344 526l-34 10l37 74q-23 2 -38 16t-15 35q0 24 15.5 39t39.5 15q25 0 40 -15t15 -39t-11 -42zM95 0v705h92v-625h355v-80h-447z" />
    <glyph glyph-name="lcaron" unicode="&#x13e;" horiz-adv-x="236" 
d="M281 556l-35 10l38 74q-23 2 -38 16t-15 35q0 24 15.5 39t39.5 15q25 0 40 -15t15 -39t-11 -42zM77 0v735h83v-735h-83z" />
    <glyph glyph-name="Lslash" unicode="&#x141;" horiz-adv-x="616" 
d="M232 80h355v-80h-447v247l-110 -67v79l110 67v379h92v-324l275 167v-79l-275 -167v-222z" />
    <glyph glyph-name="lslash" unicode="&#x142;" horiz-adv-x="407" 
d="M398 549v-79l-156 -100v-370h-83v317l-149 -96v79l149 96v339h83v-286z" />
    <glyph glyph-name="Nacute" unicode="&#x143;" horiz-adv-x="755" 
d="M351 788l105 113h103l-110 -113h-98zM95 0v705h131l334 -585h9v585h91v-705h-130l-334 585h-10v-585h-91z" />
    <glyph glyph-name="nacute" unicode="&#x144;" 
d="M360 593h-87l108 142h94zM78 0v505h83v-69h9q57 88 159 88q95 0 152.5 -62.5t57.5 -159.5v-302h-83v302q0 65 -37 106t-101 41q-65 0 -111 -44.5t-46 -109.5v-295h-83z" />
    <glyph glyph-name="Ncommaaccent" unicode="&#x145;" horiz-adv-x="755" 
d="M95 0v705h131l334 -585h9v585h91v-705h-130l-334 585h-10v-585h-91zM392 -268l-34 10l37 74q-23 2 -37.5 16.5t-14.5 35.5q0 24 15.5 39t39.5 15t39.5 -15.5t15.5 -38.5q0 -22 -11 -43z" />
    <glyph glyph-name="ncommaaccent" unicode="&#x146;" 
d="M78 0v505h83v-69h9q57 88 159 88q95 0 152.5 -62.5t57.5 -159.5v-302h-83v302q0 65 -37 106t-101 41q-65 0 -111 -44.5t-46 -109.5v-295h-83zM305 -268l-34 10l37 74q-23 2 -38 16.5t-15 35.5q0 23 15.5 38.5t39.5 15.5q25 0 40.5 -15.5t15.5 -38.5t-12 -43z" />
    <glyph glyph-name="Ncaron" unicode="&#x147;" horiz-adv-x="755" 
d="M349 788l-115 113h84l75 -62h10l75 62h84l-116 -113h-97zM95 0v705h131l334 -585h9v585h91v-705h-130l-334 585h-10v-585h-91z" />
    <glyph glyph-name="ncaron" unicode="&#x148;" 
d="M159 735h80l76 -85h9l75 85h81l-115 -142h-93zM78 0v505h83v-69h9q57 88 159 88q95 0 152.5 -62.5t57.5 -159.5v-302h-83v302q0 65 -37 106t-101 41q-65 0 -111 -44.5t-46 -109.5v-295h-83z" />
    <glyph glyph-name="Omacron" unicode="&#x14c;" horiz-adv-x="864" 
d="M277 802v66h310v-66h-310zM432 -25q-167 0 -274 106t-107 272q0 165 107 271t274 106t274 -106t107 -271q0 -166 -107 -272t-274 -106zM432 55q127 0 208 84t81 214t-81 213.5t-208 83.5t-208.5 -83.5t-81.5 -213.5t81.5 -214t208.5 -84z" />
    <glyph glyph-name="omacron" unicode="&#x14d;" horiz-adv-x="642" 
d="M166 602v66h310v-66h-310zM321 -20q-119 0 -195 76.5t-76 196.5q0 119 76 195.5t195 76.5t195 -76.5t76 -195.5q0 -120 -76 -196.5t-195 -76.5zM321 55q82 0 135 56t53 142t-53 141.5t-135 55.5t-135 -55.5t-53 -141.5t53 -142t135 -56z" />
    <glyph glyph-name="Obreve" unicode="&#x14e;" horiz-adv-x="864" 
d="M432 778q-65 0 -108 35t-43 88h83q0 -28 18 -43.5t50 -15.5t50 15.5t18 43.5h81q0 -53 -42 -88t-107 -35zM432 -25q-167 0 -274 106t-107 272q0 165 107 271t274 106t274 -106t107 -271q0 -166 -107 -272t-274 -106zM432 55q127 0 208 84t81 214t-81 213.5t-208 83.5
t-208.5 -83.5t-81.5 -213.5t81.5 -214t208.5 -84z" />
    <glyph glyph-name="obreve" unicode="&#x14f;" horiz-adv-x="642" 
d="M321 601q-59 0 -96.5 37.5t-37.5 96.5h70q0 -33 17 -53t47 -20q29 0 46.5 20t17.5 53h69q0 -58 -37.5 -96t-95.5 -38zM321 -20q-119 0 -195 76.5t-76 196.5q0 119 76 195.5t195 76.5t195 -76.5t76 -195.5q0 -120 -76 -196.5t-195 -76.5zM321 55q82 0 135 56t53 142
t-53 141.5t-135 55.5t-135 -55.5t-53 -141.5t53 -142t135 -56z" />
    <glyph glyph-name="Ohungarumlaut" unicode="&#x150;" horiz-adv-x="864" 
d="M304 789l94 113h100l-107 -113h-87zM460 789l99 113h100l-113 -113h-86zM432 -25q-167 0 -274 106t-107 272q0 165 107 271t274 106t274 -106t107 -271q0 -166 -107 -272t-274 -106zM432 55q127 0 208 84t81 214t-81 213.5t-208 83.5t-208.5 -83.5t-81.5 -213.5
t81.5 -214t208.5 -84z" />
    <glyph glyph-name="ohungarumlaut" unicode="&#x151;" horiz-adv-x="642" 
d="M203 593l100 137h91l-114 -137h-77zM441 593h-77l106 137h89zM321 -20q-119 0 -195 76.5t-76 196.5q0 119 76 195.5t195 76.5t195 -76.5t76 -195.5q0 -120 -76 -196.5t-195 -76.5zM321 55q82 0 135 56t53 142t-53 141.5t-135 55.5t-135 -55.5t-53 -141.5t53 -142t135 -56
z" />
    <glyph glyph-name="OE" unicode="&#x152;" horiz-adv-x="1044" 
d="M422 -16q-162 0 -266 103t-104 266t104 265.5t266 102.5q70 0 124 -16h447v-80h-360v-229h320v-76h-320v-240h370v-80h-457q-54 -16 -124 -16zM418 65q78 0 124 17v541q-44 17 -115 17q-124 0 -204 -80t-80 -207t77.5 -207.5t197.5 -80.5z" />
    <glyph glyph-name="oe" unicode="&#x153;" horiz-adv-x="1094" 
d="M1044 258q0 -22 -1 -33h-447q9 -77 60.5 -123.5t128.5 -46.5q56 0 102.5 26.5t70.5 71.5l68 -34q-30 -65 -94.5 -102t-148.5 -37q-74 0 -134 33t-97 91q-35 -58 -95 -91t-136 -33q-119 0 -195 76.5t-76 196.5q0 119 76 195.5t195 76.5q74 0 133.5 -31.5t95.5 -87.5
q35 56 94.5 88t134.5 32q115 0 190 -76t75 -192zM597 298h359q-11 69 -60 111t-121 42q-70 0 -118.5 -42t-59.5 -111zM321 55q82 0 135 56t53 142t-53 141.5t-135 55.5t-135 -55.5t-53 -141.5t53 -142t135 -56z" />
    <glyph glyph-name="Racute" unicode="&#x154;" horiz-adv-x="709" 
d="M320 788l105 113h103l-109 -113h-99zM95 0v705h308q114 0 183.5 -58.5t69.5 -155.5q0 -89 -63 -147t-162 -63h-11l255 -281h-114l-245 276h-129v-276h-92zM187 356h216q76 0 119.5 36.5t43.5 98.5t-44 98t-119 36h-216v-269z" />
    <glyph glyph-name="racute" unicode="&#x155;" horiz-adv-x="394" 
d="M261 593h-87l108 142h94zM78 0v505h80v-68h9q18 35 55.5 56.5t80.5 21.5q37 0 61 -13v-77q-35 15 -75 15q-57 0 -92.5 -46.5t-35.5 -121.5v-272h-83z" />
    <glyph glyph-name="Rcommaaccent" unicode="&#x156;" horiz-adv-x="709" 
d="M95 0v705h308q114 0 183.5 -58.5t69.5 -155.5q0 -89 -63 -147t-162 -63h-11l255 -281h-114l-245 276h-129v-276h-92zM187 356h216q76 0 119.5 36.5t43.5 98.5t-44 98t-119 36h-216v-269zM389 -268l-34 10l37 74q-23 2 -38 16.5t-15 35.5q0 23 15.5 38.5t40.5 15.5
q24 0 39.5 -15.5t15.5 -38.5t-12 -43z" />
    <glyph glyph-name="rcommaaccent" unicode="&#x157;" horiz-adv-x="394" 
d="M78 0v505h80v-68h9q18 35 55.5 56.5t80.5 21.5q37 0 61 -13v-77q-35 15 -75 15q-57 0 -92.5 -46.5t-35.5 -121.5v-272h-83zM117 -268l-34 10l38 74q-23 1 -38 16t-15 36q0 23 15.5 38.5t39.5 15.5t39.5 -15.5t15.5 -38.5q0 -22 -11 -43z" />
    <glyph glyph-name="Rcaron" unicode="&#x158;" horiz-adv-x="709" 
d="M318 788l-115 113h85l74 -62h11l74 62h85l-116 -113h-98zM95 0v705h308q114 0 183.5 -58.5t69.5 -155.5q0 -89 -63 -147t-162 -63h-11l255 -281h-114l-245 276h-129v-276h-92zM187 356h216q76 0 119.5 36.5t43.5 98.5t-44 98t-119 36h-216v-269z" />
    <glyph glyph-name="rcaron" unicode="&#x159;" horiz-adv-x="394" 
d="M60 735h80l76 -85h9l75 85h81l-114 -142h-93zM78 0v505h80v-68h9q18 35 55.5 56.5t80.5 21.5q37 0 61 -13v-77q-35 15 -75 15q-57 0 -92.5 -46.5t-35.5 -121.5v-272h-83z" />
    <glyph glyph-name="Sacute" unicode="&#x15a;" horiz-adv-x="686" 
d="M297 788l105 113h103l-110 -113h-98zM356 -25q-139 0 -218.5 68t-79.5 186h90q0 -82 55 -128t154 -46q86 0 134 34.5t48 94.5q0 28 -12 49t-28 33.5t-48 22.5t-53 14t-63 11q-46 7 -77.5 14.5t-70.5 23t-62.5 36t-40 54.5t-16.5 78q0 96 70.5 153t196.5 57
q130 0 204.5 -63.5t74.5 -175.5h-89q1 75 -49 117t-141 42q-84 0 -130 -33.5t-46 -91.5q0 -27 11.5 -47.5t27.5 -32.5t45.5 -21.5t52 -14t61.5 -10.5q40 -7 65.5 -12t61.5 -15.5t58.5 -25t44.5 -35.5t32.5 -51.5t10.5 -69.5q0 -100 -72.5 -157.5t-201.5 -57.5z" />
    <glyph glyph-name="sacute" unicode="&#x15b;" horiz-adv-x="545" 
d="M309 593h-87l107 142h94zM285 -20q-109 0 -169.5 50.5t-60.5 140.5h81q1 -55 41 -88t110 -33q58 0 91.5 22.5t33.5 62.5q0 29 -21.5 46.5t-42 22t-68.5 10.5q-9 1 -13 2q-42 5 -72.5 12.5t-62.5 23.5t-49.5 45t-17.5 70q0 73 55.5 115.5t146.5 42.5q95 0 153.5 -46.5
t58.5 -124.5h-81q-1 46 -37 73.5t-95 27.5q-55 0 -89 -23t-34 -62q0 -22 10 -36t30.5 -21.5t40.5 -11t52 -7.5q7 -1 10 -1q34 -4 58.5 -9t54 -16.5t48 -27.5t31.5 -42.5t13 -61.5q0 -74 -54.5 -115t-151.5 -41z" />
    <glyph glyph-name="Scircumflex" unicode="&#x15c;" horiz-adv-x="686" 
d="M296 901h97l116 -113h-84l-75 62h-10l-75 -62h-85zM356 -25q-139 0 -218.5 68t-79.5 186h90q0 -82 55 -128t154 -46q86 0 134 34.5t48 94.5q0 28 -12 49t-28 33.5t-48 22.5t-53 14t-63 11q-46 7 -77.5 14.5t-70.5 23t-62.5 36t-40 54.5t-16.5 78q0 96 70.5 153t196.5 57
q130 0 204.5 -63.5t74.5 -175.5h-89q1 75 -49 117t-141 42q-84 0 -130 -33.5t-46 -91.5q0 -27 11.5 -47.5t27.5 -32.5t45.5 -21.5t52 -14t61.5 -10.5q40 -7 65.5 -12t61.5 -15.5t58.5 -25t44.5 -35.5t32.5 -51.5t10.5 -69.5q0 -100 -72.5 -157.5t-201.5 -57.5z" />
    <glyph glyph-name="scircumflex" unicode="&#x15d;" horiz-adv-x="545" 
d="M110 593l114 142h93l114 -142h-81l-75 86h-9l-76 -86h-80zM285 -20q-109 0 -169.5 50.5t-60.5 140.5h81q1 -55 41 -88t110 -33q58 0 91.5 22.5t33.5 62.5q0 29 -21.5 46.5t-42 22t-68.5 10.5q-9 1 -13 2q-42 5 -72.5 12.5t-62.5 23.5t-49.5 45t-17.5 70q0 73 55.5 115.5
t146.5 42.5q95 0 153.5 -46.5t58.5 -124.5h-81q-1 46 -37 73.5t-95 27.5q-55 0 -89 -23t-34 -62q0 -22 10 -36t30.5 -21.5t40.5 -11t52 -7.5q7 -1 10 -1q34 -4 58.5 -9t54 -16.5t48 -27.5t31.5 -42.5t13 -61.5q0 -74 -54.5 -115t-151.5 -41z" />
    <glyph glyph-name="Scedilla" unicode="&#x15e;" horiz-adv-x="686" 
d="M630 190q0 -96 -67 -153t-187 -62l-4 -24q45 0 74.5 -26.5t29.5 -66.5t-29 -65t-75 -25q-41 0 -71 20t-36 52l53 13q3 -19 18 -30.5t35 -11.5q23 0 37 13t14 33q0 23 -18 37t-46 14h-51l10 69q-122 9 -190.5 76t-68.5 176h90q0 -82 55 -128t154 -46q86 0 134 34.5
t48 94.5q0 28 -12 49t-28 33.5t-48 22.5t-53 14t-63 11q-46 7 -77.5 14.5t-70.5 23t-62.5 36t-40 54.5t-16.5 78q0 96 70.5 153t196.5 57q130 0 204.5 -63.5t74.5 -175.5h-89q1 75 -49 117t-141 42q-84 0 -130 -33.5t-46 -91.5q0 -27 11.5 -47.5t27.5 -32.5t45.5 -21.5
t52 -14t61.5 -10.5q40 -7 65.5 -12t61.5 -15.5t58.5 -25t44.5 -35.5t32.5 -51.5t10.5 -69.5z" />
    <glyph glyph-name="scedilla" unicode="&#x15f;" horiz-adv-x="545" 
d="M491 136q0 -72 -52 -113t-145 -43l-4 -29q45 0 74 -26t29 -67q0 -40 -29 -65t-75 -25q-41 0 -71 20t-36 52l53 13q3 -19 18 -30.5t35 -11.5q23 0 37 13t14 33q0 23 -18 37t-46 14h-51l11 75q-86 11 -133 60t-47 128h81q1 -55 41 -88t110 -33q58 0 91.5 22.5t33.5 62.5
q0 29 -21.5 46.5t-42 22t-68.5 10.5q-9 1 -13 2q-42 5 -72.5 12.5t-62.5 23.5t-49.5 45t-17.5 70q0 73 55.5 115.5t146.5 42.5q95 0 153.5 -46.5t58.5 -124.5h-81q-1 46 -37 73.5t-95 27.5q-55 0 -89 -23t-34 -62q0 -22 10 -36t30.5 -21.5t40.5 -11t52 -7.5q7 -1 10 -1
q34 -4 58.5 -9t54 -16.5t48 -27.5t31.5 -42.5t13 -61.5z" />
    <glyph glyph-name="Scaron" unicode="&#x160;" horiz-adv-x="686" 
d="M295 788l-116 113h85l75 -62h10l75 62h84l-116 -113h-97zM356 -25q-139 0 -218.5 68t-79.5 186h90q0 -82 55 -128t154 -46q86 0 134 34.5t48 94.5q0 28 -12 49t-28 33.5t-48 22.5t-53 14t-63 11q-46 7 -77.5 14.5t-70.5 23t-62.5 36t-40 54.5t-16.5 78q0 96 70.5 153
t196.5 57q130 0 204.5 -63.5t74.5 -175.5h-89q1 75 -49 117t-141 42q-84 0 -130 -33.5t-46 -91.5q0 -27 11.5 -47.5t27.5 -32.5t45.5 -21.5t52 -14t61.5 -10.5q40 -7 65.5 -12t61.5 -15.5t58.5 -25t44.5 -35.5t32.5 -51.5t10.5 -69.5q0 -100 -72.5 -157.5t-201.5 -57.5z" />
    <glyph glyph-name="scaron" unicode="&#x161;" horiz-adv-x="545" 
d="M107 735h80l76 -85h10l74 85h82l-115 -142h-93zM285 -20q-109 0 -169.5 50.5t-60.5 140.5h81q1 -55 41 -88t110 -33q58 0 91.5 22.5t33.5 62.5q0 29 -21.5 46.5t-42 22t-68.5 10.5q-9 1 -13 2q-42 5 -72.5 12.5t-62.5 23.5t-49.5 45t-17.5 70q0 73 55.5 115.5t146.5 42.5
q95 0 153.5 -46.5t58.5 -124.5h-81q-1 46 -37 73.5t-95 27.5q-55 0 -89 -23t-34 -62q0 -22 10 -36t30.5 -21.5t40.5 -11t52 -7.5q7 -1 10 -1q34 -4 58.5 -9t54 -16.5t48 -27.5t31.5 -42.5t13 -61.5q0 -74 -54.5 -115t-151.5 -41z" />
    <glyph glyph-name="uni0162" unicode="&#x162;" horiz-adv-x="582" 
d="M246 0v625h-234v80h559v-80h-234v-625h-91zM287 -268l-35 10l38 74q-23 2 -38 16.5t-15 35.5q0 23 15.5 38.5t39.5 15.5t39.5 -15t15.5 -39q0 -25 -11 -43z" />
    <glyph glyph-name="uni0163" unicode="&#x163;" horiz-adv-x="391" 
d="M261 -19q-63 0 -101 41t-38 108v309h-82v66h82l18 163h65v-163h129v-66h-129v-306q0 -37 20.5 -59.5t56.5 -22.5q28 0 60 10v-67q-37 -13 -81 -13zM243 -268l-34 10l38 74q-23 1 -38 16t-15 36q0 24 15 39t40 15q24 0 39.5 -15.5t15.5 -38.5q0 -22 -11 -43z" />
    <glyph glyph-name="Tcaron" unicode="&#x164;" horiz-adv-x="582" 
d="M243 788l-115 113h85l74 -62h11l74 62h85l-116 -113h-98zM246 0v625h-234v80h559v-80h-234v-625h-91z" />
    <glyph glyph-name="tcaron" unicode="&#x165;" horiz-adv-x="391" 
d="M289 551l-34 9l37 74q-23 2 -37.5 16.5t-14.5 35.5q0 24 15 39t40 15q24 0 39.5 -15.5t15.5 -38.5q0 -21 -11 -42zM261 -19q-63 0 -101 41t-38 108v309h-82v66h82l18 163h65v-163h129v-66h-129v-306q0 -37 20.5 -59.5t56.5 -22.5q28 0 60 10v-67q-37 -13 -81 -13z" />
    <glyph glyph-name="Utilde" unicode="&#x168;" horiz-adv-x="757" 
d="M443 798q-32 0 -56.5 14t-43.5 28.5t-37 14.5q-37 0 -63 -46l-43 32q14 31 43 50t66 19q38 0 77.5 -28.5t61.5 -28.5q40 0 64 46l44 -32q-15 -32 -44.5 -50.5t-68.5 -18.5zM379 -25q-126 0 -207.5 83.5t-81.5 212.5v434h91v-434q0 -94 56 -155t142 -61t142 61t56 155v434
h91v-434q0 -129 -81.5 -212.5t-207.5 -83.5z" />
    <glyph glyph-name="utilde" unicode="&#x169;" 
d="M360 593q-32 0 -56.5 14.5t-44 28.5t-39.5 14q-38 0 -59 -36l-44 33q14 30 44 49t66 19q37 0 77 -29t63 -29q42 0 61 38l45 -33q-14 -31 -44 -50t-69 -19zM528 505v-505h-83v69h-10q-55 -87 -158 -87q-96 0 -153 62t-57 160v301h83v-301q0 -66 36.5 -106.5t100.5 -40.5
q65 0 111.5 44t46.5 110v294h83z" />
    <glyph glyph-name="Umacron" unicode="&#x16a;" horiz-adv-x="757" 
d="M225 802v66h310v-66h-310zM379 -25q-126 0 -207.5 83.5t-81.5 212.5v434h91v-434q0 -94 56 -155t142 -61t142 61t56 155v434h91v-434q0 -129 -81.5 -212.5t-207.5 -83.5z" />
    <glyph glyph-name="umacron" unicode="&#x16b;" 
d="M140 602v66h310v-66h-310zM528 505v-505h-83v69h-10q-55 -87 -158 -87q-96 0 -153 62t-57 160v301h83v-301q0 -66 36.5 -106.5t100.5 -40.5q65 0 111.5 44t46.5 110v294h83z" />
    <glyph glyph-name="Ubreve" unicode="&#x16c;" horiz-adv-x="757" 
d="M380 778q-65 0 -107.5 35t-42.5 88h82q0 -28 18 -43.5t50 -15.5t50.5 15.5t18.5 43.5h81q0 -53 -42 -88t-108 -35zM379 -25q-126 0 -207.5 83.5t-81.5 212.5v434h91v-434q0 -94 56 -155t142 -61t142 61t56 155v434h91v-434q0 -129 -81.5 -212.5t-207.5 -83.5z" />
    <glyph glyph-name="ubreve" unicode="&#x16d;" 
d="M295 601q-58 0 -95.5 37.5t-37.5 96.5h69q0 -33 17 -53t47 -20q29 0 46.5 20t17.5 53h69q0 -58 -37.5 -96t-95.5 -38zM528 505v-505h-83v69h-10q-55 -87 -158 -87q-96 0 -153 62t-57 160v301h83v-301q0 -66 36.5 -106.5t100.5 -40.5q65 0 111.5 44t46.5 110v294h83z" />
    <glyph glyph-name="Uring" unicode="&#x16e;" horiz-adv-x="757" 
d="M380 769q-43 0 -71 26.5t-28 67.5t28 67.5t71 26.5t71 -26.5t28 -67.5t-28 -67.5t-71 -26.5zM380 809q23 0 38.5 15.5t15.5 38.5q0 24 -15.5 39t-38.5 15q-24 0 -39 -15t-15 -39q0 -23 15 -38.5t39 -15.5zM379 -25q-126 0 -207.5 83.5t-81.5 212.5v434h91v-434
q0 -94 56 -155t142 -61t142 61t56 155v434h91v-434q0 -129 -81.5 -212.5t-207.5 -83.5z" />
    <glyph glyph-name="uring" unicode="&#x16f;" 
d="M295 588q-48 0 -78.5 29.5t-30.5 74.5q0 46 30.5 75t78.5 29t78.5 -29t30.5 -75q0 -45 -30.5 -74.5t-78.5 -29.5zM295 628q28 0 46 18t18 46t-18 46t-46 18q-29 0 -46.5 -18t-17.5 -46t18 -46t46 -18zM528 505v-505h-83v69h-10q-55 -87 -158 -87q-96 0 -153 62t-57 160
v301h83v-301q0 -66 36.5 -106.5t100.5 -40.5q65 0 111.5 44t46.5 110v294h83z" />
    <glyph glyph-name="Uhungarumlaut" unicode="&#x170;" horiz-adv-x="757" 
d="M252 789l94 113h100l-107 -113h-87zM409 789l99 113h99l-113 -113h-85zM379 -25q-126 0 -207.5 83.5t-81.5 212.5v434h91v-434q0 -94 56 -155t142 -61t142 61t56 155v434h91v-434q0 -129 -81.5 -212.5t-207.5 -83.5z" />
    <glyph glyph-name="uhungarumlaut" unicode="&#x171;" 
d="M177 593l101 137h90l-113 -137h-78zM415 593h-77l107 137h88zM528 505v-505h-83v69h-10q-55 -87 -158 -87q-96 0 -153 62t-57 160v301h83v-301q0 -66 36.5 -106.5t100.5 -40.5q65 0 111.5 44t46.5 110v294h83z" />
    <glyph glyph-name="Uogonek" unicode="&#x172;" horiz-adv-x="757" 
d="M577 705h91v-434q0 -101 -52 -176t-138 -104q-96 -47 -96 -102q0 -19 11.5 -30t32.5 -11q26 0 58 20v-47q-37 -21 -74 -21q-34 0 -55 21.5t-21 55.5q0 53 54 98h-9q-126 0 -207.5 83.5t-81.5 212.5v434h91v-434q0 -94 56 -155t142 -61t142 61t56 155v434z" />
    <glyph glyph-name="uogonek" unicode="&#x173;" 
d="M445 505h83v-505h-18q-116 -51 -116 -111q0 -19 11.5 -30t32.5 -11q26 0 58 20v-47q-37 -21 -74 -21q-34 0 -55 21.5t-21 55.5q0 73 99 129v63h-10q-55 -87 -158 -87q-96 0 -153 62t-57 160v301h83v-301q0 -66 36.5 -106.5t100.5 -40.5q65 0 111.5 44t46.5 110v294z" />
    <glyph glyph-name="Wcircumflex" unicode="&#x174;" horiz-adv-x="1088" 
d="M498 901h97l116 -113h-84l-75 62h-10l-75 -62h-84zM253 0l-205 705h88l180 -628h10l160 628h118l159 -628h10l180 628h87l-204 -705h-140l-147 595h-9l-147 -595h-140z" />
    <glyph glyph-name="wcircumflex" unicode="&#x175;" horiz-adv-x="840" 
d="M262 593l114 142h93l115 -142h-81l-75 86h-10l-76 -86h-80zM191 0l-169 505h82l141 -423h9l113 423h106l116 -424h9l138 424h82l-169 -505h-119l-105 409h-10l-106 -409h-118z" />
    <glyph glyph-name="Ycircumflex" unicode="&#x176;" horiz-adv-x="660" 
d="M283 901h98l116 -113h-85l-74 62h-11l-74 -62h-85zM285 0v258l-255 447h96l200 -360h10l196 360h98l-253 -447v-258h-92z" />
    <glyph glyph-name="ycircumflex" unicode="&#x177;" horiz-adv-x="533" 
d="M117 593l114 142h93l115 -142h-81l-75 86h-10l-75 -86h-81zM126 -224q-43 0 -80 16v73q38 -15 67 -15q18 0 33.5 7t25 15t21 27.5t16 29.5t15.5 37t14 35l-225 504h87l173 -395h10l148 395h89l-200 -513q-16 -39 -23 -56t-22.5 -48.5t-28 -46.5t-31 -33t-41 -25t-48.5 -7
z" />
    <glyph glyph-name="Ydieresis" unicode="&#x178;" horiz-adv-x="660" 
d="M216 790q-26 0 -43 17t-17 43q0 25 17 41.5t43 16.5t42.5 -16t16.5 -42t-16.5 -43t-42.5 -17zM446 790q-26 0 -42.5 17t-16.5 43t16.5 42t42.5 16t43 -16.5t17 -41.5q0 -26 -17 -43t-43 -17zM285 0v258l-255 447h96l200 -360h10l196 360h98l-253 -447v-258h-92z" />
    <glyph glyph-name="Zacute" unicode="&#x179;" horiz-adv-x="656" 
d="M300 788l105 113h103l-109 -113h-99zM49 0v42l414 573v10h-404v80h538v-41l-414 -574v-10h424v-80h-558z" />
    <glyph glyph-name="zacute" unicode="&#x17a;" horiz-adv-x="520" 
d="M318 593h-87l107 142h94zM32 0v36l311 385v9h-301v75h436v-36l-309 -384v-10h319v-75h-456z" />
    <glyph glyph-name="Zdotaccent" unicode="&#x17b;" horiz-adv-x="656" 
d="M347 790q-26 0 -43 17t-17 43q0 25 17 41.5t43 16.5t43 -16.5t17 -41.5q0 -26 -17 -43t-43 -17zM49 0v42l414 573v10h-404v80h538v-41l-414 -574v-10h424v-80h-558z" />
    <glyph glyph-name="zdotaccent" unicode="&#x17c;" horiz-adv-x="520" 
d="M278 601q-26 0 -43 17t-17 43q0 25 17 41.5t43 16.5t43 -16.5t17 -41.5q0 -26 -17 -43t-43 -17zM32 0v36l311 385v9h-301v75h436v-36l-309 -384v-10h319v-75h-456z" />
    <glyph glyph-name="Zcaron" unicode="&#x17d;" horiz-adv-x="656" 
d="M298 788l-115 113h84l75 -62h10l75 62h84l-116 -113h-97zM49 0v42l414 573v10h-404v80h538v-41l-414 -574v-10h424v-80h-558z" />
    <glyph glyph-name="zcaron" unicode="&#x17e;" horiz-adv-x="520" 
d="M116 735h81l75 -85h10l75 85h81l-115 -142h-93zM32 0v36l311 385v9h-301v75h436v-36l-309 -384v-10h319v-75h-456z" />
    <glyph glyph-name="AEacute" unicode="&#x1fc;" horiz-adv-x="930" 
d="M454 788l105 113h103l-109 -113h-99zM30 0l358 705h491v-80h-327v-224h287v-75h-287v-246h336v-80h-427v142h-256l-74 -142h-101zM241 217h220v417h-10z" />
    <glyph glyph-name="aeacute" unicode="&#x1fd;" horiz-adv-x="952" 
d="M510 593h-87l107 142h94zM269 527q68 0 119.5 -26.5t76.5 -72.5q73 97 193 97q107 0 175.5 -75t68.5 -192q0 -21 -1 -32h-405q9 -77 55.5 -124t113.5 -47q47 0 86.5 25.5t63.5 71.5l68 -34q-27 -61 -86 -99.5t-127 -38.5q-74 0 -132 39.5t-85 104.5q-20 -63 -82 -101.5
t-144 -38.5q-86 0 -138 41t-52 108q0 70 59 114t170 56l140 15v23q0 52 -36.5 81.5t-99.5 29.5q-55 0 -90 -27.5t-34 -70.5h-84q0 75 58.5 124t148.5 49zM654 450q-62 0 -104 -42t-53 -111h317q-10 69 -53 111t-107 42zM266 237q-73 -8 -109.5 -35.5t-36.5 -66.5t32.5 -61
t83.5 -22q74 0 122 44t48 109v48z" />
    <glyph glyph-name="Oslashacute" unicode="&#x1fe;" horiz-adv-x="845" 
d="M338 788l105 113h103l-109 -113h-99zM144 -140l83 166q-81 48 -128 134t-47 193q0 164 105 270.5t266 106.5q78 0 144 -27l79 157h85l-96 -192q74 -50 116.5 -132.5t42.5 -182.5q0 -164 -105 -271t-266 -107q-67 0 -127 20l-67 -135h-85zM265 103l265 526q-52 21 -107 21
q-122 0 -201 -84t-79 -213q0 -80 32.5 -145t89.5 -105zM423 55q121 0 200 84t79 214q0 153 -107 238l-262 -522q44 -14 90 -14z" />
    <glyph glyph-name="oslashacute" unicode="&#x1ff;" horiz-adv-x="648" 
d="M344 593h-87l107 142h94zM129 -80l48 97q-59 35 -92.5 96.5t-33.5 139.5q0 119 76.5 195.5t196.5 76.5q56 0 100 -16l45 91h79l-62 -122q52 -36 81.5 -94.5t29.5 -130.5q0 -120 -76.5 -196.5t-196.5 -76.5q-45 0 -82 10l-34 -70h-79zM208 78l186 371q-33 12 -70 12
q-87 0 -143 -58.5t-56 -149.5q0 -113 83 -175zM324 44q86 0 142 59t56 150q0 99 -69 161l-181 -364q24 -6 52 -6z" />
    <glyph glyph-name="Scommaaccent" unicode="&#x218;" horiz-adv-x="686" 
d="M356 -25q-139 0 -218.5 68t-79.5 186h90q0 -82 55 -128t154 -46q86 0 134 34.5t48 94.5q0 28 -12 49t-28 33.5t-48 22.5t-53 14t-63 11q-46 7 -77.5 14.5t-70.5 23t-62.5 36t-40 54.5t-16.5 78q0 96 70.5 153t196.5 57q130 0 204.5 -63.5t74.5 -175.5h-89q1 75 -49 117
t-141 42q-84 0 -130 -33.5t-46 -91.5q0 -27 11.5 -47.5t27.5 -32.5t45.5 -21.5t52 -14t61.5 -10.5q40 -7 65.5 -12t61.5 -15.5t58.5 -25t44.5 -35.5t32.5 -51.5t10.5 -69.5q0 -100 -72.5 -157.5t-201.5 -57.5zM348 -268l-34 10l37 74q-23 2 -38 16.5t-15 35.5
q0 23 15.5 38.5t39.5 15.5q25 0 40.5 -15.5t15.5 -38.5t-12 -43z" />
    <glyph glyph-name="scommaaccent" unicode="&#x219;" horiz-adv-x="545" 
d="M285 -20q-109 0 -169.5 50.5t-60.5 140.5h81q1 -55 41 -88t110 -33q58 0 91.5 22.5t33.5 62.5q0 29 -21.5 46.5t-42 22t-68.5 10.5q-9 1 -13 2q-42 5 -72.5 12.5t-62.5 23.5t-49.5 45t-17.5 70q0 73 55.5 115.5t146.5 42.5q95 0 153.5 -46.5t58.5 -124.5h-81
q-1 46 -37 73.5t-95 27.5q-55 0 -89 -23t-34 -62q0 -22 10 -36t30.5 -21.5t40.5 -11t52 -7.5q7 -1 10 -1q34 -4 58.5 -9t54 -16.5t48 -27.5t31.5 -42.5t13 -61.5q0 -74 -54.5 -115t-151.5 -41zM265 -268l-34 10l37 74q-22 2 -37 16.5t-15 35.5q0 24 15 39t40 15
q24 0 39.5 -15.5t15.5 -38.5q0 -22 -11 -43z" />
    <glyph glyph-name="uni021A" unicode="&#x21a;" horiz-adv-x="582" 
d="M246 0v625h-234v80h559v-80h-234v-625h-91zM287 -268l-35 10l38 74q-23 2 -38 16.5t-15 35.5q0 23 15.5 38.5t39.5 15.5t39.5 -15t15.5 -39q0 -25 -11 -43z" />
    <glyph glyph-name="uni021B" unicode="&#x21b;" horiz-adv-x="391" 
d="M261 -19q-63 0 -101 41t-38 108v309h-82v66h82l18 163h65v-163h129v-66h-129v-306q0 -37 20.5 -59.5t56.5 -22.5q28 0 60 10v-67q-37 -13 -81 -13zM243 -268l-34 10l38 74q-23 1 -38 16t-15 36q0 24 15 39t40 15q24 0 39.5 -15.5t15.5 -38.5q0 -22 -11 -43z" />
    <glyph glyph-name="circumflex" unicode="&#x2c6;" horiz-adv-x="423" 
d="M51 593l114 142h93l114 -142h-81l-75 86h-9l-76 -86h-80z" />
    <glyph glyph-name="caron" unicode="&#x2c7;" horiz-adv-x="423" 
d="M51 736h80l76 -86h9l75 86h81l-115 -143h-93z" />
    <glyph glyph-name="breve" unicode="&#x2d8;" horiz-adv-x="368" 
d="M184 601q-58 0 -95.5 38t-37.5 96h69q0 -33 17 -53t47 -20t47 20t17 53h69q1 -58 -36.5 -96t-96.5 -38z" />
    <glyph glyph-name="dotaccent" unicode="&#x2d9;" horiz-adv-x="220" 
d="M110 601q-26 0 -42.5 17t-16.5 43t16.5 42t42.5 16t43 -16.5t17 -41.5q0 -26 -17 -43t-43 -17z" />
    <glyph glyph-name="ring" unicode="&#x2da;" horiz-adv-x="319" 
d="M160 588q-48 0 -78.5 29.5t-30.5 74.5q0 46 30.5 75t78.5 29t78 -29t30 -75q0 -45 -30 -74.5t-78 -29.5zM160 628q28 0 46 18t18 46t-18 46t-46 18q-29 0 -47 -18t-18 -46t18.5 -46t46.5 -18z" />
    <glyph glyph-name="ogonek" unicode="&#x2db;" horiz-adv-x="265" 
d="M127 -200q-34 0 -55 21.5t-21 55.5q0 91 148 153l16 -30q-117 -51 -117 -111q0 -19 12 -30t32 -11q27 0 59 20v-47q-39 -21 -74 -21z" />
    <glyph glyph-name="tilde" unicode="&#x2dc;" horiz-adv-x="457" 
d="M294 593q-32 0 -56.5 14.5t-44 28.5t-39.5 14q-38 0 -59 -36l-44 33q14 30 44 49t66 19t76.5 -29t63.5 -29q42 0 61 38l45 -33q-14 -31 -44 -50t-69 -19z" />
    <glyph glyph-name="hungarumlaut" unicode="&#x2dd;" horiz-adv-x="457" 
d="M51 593l100 137h91l-114 -137h-77zM288 593h-77l107 137h89z" />
    <glyph glyph-name="uni0401" unicode="&#x401;" horiz-adv-x="639" 
d="M224 790q-26 0 -43 17t-17 43q0 25 17 41.5t43 16.5t42.5 -16t16.5 -42t-16.5 -43t-42.5 -17zM454 790q-26 0 -42.5 17t-16.5 43t16.5 42t42.5 16t43 -16.5t17 -41.5q0 -26 -17 -43t-43 -17zM95 0v705h484v-80h-392v-220h352v-80h-352v-245h402v-80h-494z" />
    <glyph glyph-name="uni0402" unicode="&#x402;" horiz-adv-x="691" 
d="M412 -17q-46 0 -84 10v70q34 -8 68 -8q67 0 106 38t39 114v62q0 89 -44 135t-124 46q-82 0 -135 -50t-53 -140v-260h-83v630h-90v75h265v-75h-92v-213h9q25 56 76.5 82t113.5 26q112 0 176 -67.5t64 -188.5v-64q0 -107 -57 -164.5t-155 -57.5z" />
    <glyph glyph-name="uni0403" unicode="&#x403;" horiz-adv-x="603" 
d="M259 788l105 113h103l-110 -113h-98zM94 0v705h473v-80h-381v-625h-92z" />
    <glyph glyph-name="uni0404" unicode="&#x404;" horiz-adv-x="823" 
d="M429 -25q-164 0 -271 107t-107 271t107 270.5t271 106.5q130 0 226 -76.5t115 -190.5l-85 -11q-18 84 -89.5 141t-163.5 57q-116 0 -195.5 -71t-91.5 -185h410v-81h-410q11 -113 91 -185.5t196 -72.5q94 0 165.5 55.5t88.5 137.5l86 -12q-18 -112 -114.5 -186.5
t-228.5 -74.5z" />
    <glyph glyph-name="uni0405" unicode="&#x405;" horiz-adv-x="686" 
d="M356 -25q-139 0 -218.5 68t-79.5 186h90q0 -82 55 -128t154 -46q86 0 134 34.5t48 94.5q0 28 -12 49t-28 33.5t-48 22.5t-53 14t-63 11q-46 7 -77.5 14.5t-70.5 23t-62.5 36t-40 54.5t-16.5 78q0 96 70.5 153t196.5 57q130 0 204.5 -63.5t74.5 -175.5h-89q1 75 -49 117
t-141 42q-84 0 -130 -33.5t-46 -91.5q0 -27 11.5 -47.5t27.5 -32.5t45.5 -21.5t52 -14t61.5 -10.5q40 -7 65.5 -12t61.5 -15.5t58.5 -25t44.5 -35.5t32.5 -51.5t10.5 -69.5q0 -100 -72.5 -157.5t-201.5 -57.5z" />
    <glyph glyph-name="uni0406" unicode="&#x406;" horiz-adv-x="281" 
d="M95 0v705h91v-705h-91z" />
    <glyph glyph-name="uni0407" unicode="&#x407;" horiz-adv-x="282" 
d="M26 790q-26 0 -42.5 17t-16.5 43t16.5 42t42.5 16t43 -16.5t17 -41.5q0 -26 -17 -43t-43 -17zM257 790q-26 0 -43 17t-17 43q0 25 17 41.5t43 16.5t42.5 -16t16.5 -42t-16.5 -43t-42.5 -17zM95 0v705h91v-705h-91z" />
    <glyph glyph-name="uni0408" unicode="&#x408;" horiz-adv-x="477" 
d="M169 -20q-64 0 -129 20v78q61 -18 109 -18q63 0 102.5 41t39.5 110v494h91v-493q0 -103 -60 -167.5t-153 -64.5z" />
    <glyph glyph-name="uni0409" unicode="&#x409;" horiz-adv-x="1127" 
d="M30 0v80q74 0 109.5 42.5t44.5 144.5l42 438h440v-291h189q101 0 166 -58t65 -148q0 -91 -65 -149.5t-166 -58.5h-280v625h-267l-40 -401q-10 -109 -71.5 -166.5t-166.5 -57.5zM667 80h173q67 0 111 35.5t44 90.5t-43.5 91t-111.5 36h-173v-253z" />
    <glyph glyph-name="uni040A" unicode="&#x40a;" horiz-adv-x="1051" 
d="M94 0v705h92v-295h315v295h91v-295h190q100 0 164 -57.5t64 -146.5q0 -90 -64 -148t-164 -58h-281v329h-315v-329h-92zM593 80h174q67 0 109.5 35t42.5 88q0 55 -42.5 90.5t-109.5 35.5h-174v-249z" />
    <glyph glyph-name="uni040B" unicode="&#x40b;" horiz-adv-x="691" 
d="M102 0v630h-90v75h265v-75h-92v-213h9q25 56 76.5 82t113.5 26q112 0 176 -67.5t64 -188.5v-266h-83v266q0 89 -44 135t-124 46q-82 0 -135 -50t-53 -140v-260h-83z" />
    <glyph glyph-name="uni040C" unicode="&#x40c;" horiz-adv-x="633" 
d="M304 788l106 113h103l-110 -113h-99zM95 0v705h91v-308h10l292 308h114l-328 -341l338 -364h-115l-301 331h-10v-331h-91z" />
    <glyph glyph-name="uni040E" unicode="&#x40e;" horiz-adv-x="671" 
d="M345 778q-66 0 -108.5 35t-42.5 88h82q0 -28 18.5 -43.5t50.5 -15.5t50 15.5t18 43.5h81q0 -53 -42 -88t-107 -35zM149 -20q-61 0 -90 13v80q33 -12 73 -12q51 0 88.5 30.5t78.5 117.5l13 29l-277 467h97l219 -373h10l185 373h96l-250 -503q-65 -132 -113.5 -177
t-129.5 -45z" />
    <glyph glyph-name="uni040F" unicode="&#x40f;" horiz-adv-x="752" 
d="M330 -150v150h-236v705h92v-625h380v625h91v-705h-236v-150h-91z" />
    <glyph glyph-name="uni0410" unicode="&#x410;" horiz-adv-x="713" 
d="M30 0l266 705h124l263 -705h-87l-60 158h-359l-60 -158h-87zM204 233h306l-148 392h-9z" />
    <glyph glyph-name="uni0411" unicode="&#x411;" horiz-adv-x="676" 
d="M94 0v705h490v-79h-398v-192h198q118 0 184.5 -58t66.5 -159t-69 -159t-189 -58h-283zM186 80h176q85 0 133.5 37t48.5 100q0 62 -47.5 99.5t-127.5 37.5h-183v-274z" />
    <glyph glyph-name="uni0412" unicode="&#x412;" horiz-adv-x="697" 
d="M95 0v705h307q97 0 160 -53.5t63 -135.5q0 -50 -29 -91t-74 -55v-10q54 -15 88.5 -60t34.5 -102q0 -86 -69 -142t-175 -56h-306zM186 402h205q63 0 103.5 31t40.5 80t-40.5 80.5t-103.5 31.5h-205v-223zM186 80h203q72 0 119 35t47 88q0 52 -47 85.5t-119 33.5h-203v-242
z" />
    <glyph glyph-name="uni0413" unicode="&#x413;" horiz-adv-x="597" 
d="M94 0v705h473v-80h-381v-625h-92z" />
    <glyph glyph-name="uni0414" unicode="&#x414;" horiz-adv-x="839" 
d="M20 -150v230h69q92 69 113 224l53 401h448v-625h107v-230h-83v150h-625v-150h-82zM193 80h419v545h-276l-48 -338q-17 -124 -95 -197v-10z" />
    <glyph glyph-name="uni0415" unicode="&#x415;" horiz-adv-x="639" 
d="M95 0v705h484v-80h-392v-220h352v-80h-352v-245h402v-80h-494z" />
    <glyph glyph-name="uni0416" unicode="&#x416;" horiz-adv-x="989" 
d="M30 0l332 364l-322 341h113l287 -311h9v311h92v-311h9l287 311h113l-322 -341l332 -364h-114l-296 334h-9v-334h-92v334h-9l-296 -334h-114z" />
    <glyph glyph-name="uni0417" unicode="&#x417;" horiz-adv-x="648" 
d="M336 -25q-127 0 -205.5 73.5t-78.5 189.5h89q0 -80 53.5 -131.5t139.5 -51.5q77 0 128 39t51 99q0 59 -47.5 96.5t-120.5 37.5h-90v80h95q61 0 101.5 34t40.5 86q0 54 -46 88.5t-116 34.5q-78 0 -126 -44.5t-48 -114.5h-89q0 105 72.5 172t190.5 67q108 0 180 -55
t72 -141q0 -59 -33 -101.5t-88 -56.5v-10q63 -12 103.5 -62.5t40.5 -117.5q0 -91 -77 -151t-192 -60z" />
    <glyph glyph-name="uni0418" unicode="&#x418;" horiz-adv-x="755" 
d="M659 0h-91v585h-9l-334 -585h-131v705h92v-585h9l334 585h130v-705z" />
    <glyph glyph-name="uni0419" unicode="&#x419;" horiz-adv-x="755" 
d="M398 778q-66 0 -108.5 35t-42.5 88h82q0 -28 18.5 -43.5t50.5 -15.5t50 15.5t18 43.5h81q0 -53 -42 -88t-107 -35zM95 705h91v-585h10l334 585h130v-705h-91v586h-9l-334 -586h-131v705z" />
    <glyph glyph-name="uni041A" unicode="&#x41a;" horiz-adv-x="633" 
d="M95 0v705h91v-308h10l292 308h114l-328 -341l338 -364h-115l-301 331h-10v-331h-91z" />
    <glyph glyph-name="uni041B" unicode="&#x41b;" horiz-adv-x="760" 
d="M30 0v80q74 0 109.5 42.5t44.5 144.5l42 438h440v-705h-91v625h-267l-40 -401q-10 -109 -71.5 -166.5t-166.5 -57.5z" />
    <glyph glyph-name="uni041C" unicode="&#x41c;" horiz-adv-x="953" 
d="M94 0v705h144l233 -578h9l234 578h143v-705h-91v590h-9l-238 -590h-87l-237 589h-9v-589h-92z" />
    <glyph glyph-name="uni041D" unicode="&#x41d;" horiz-adv-x="752" 
d="M94 0v705h92v-297h380v297h91v-705h-91v328h-380v-328h-92z" />
    <glyph glyph-name="uni041E" unicode="&#x41e;" horiz-adv-x="864" 
d="M432 -25q-167 0 -274 106t-107 272q0 165 107 271t274 106t274 -106t107 -271q0 -166 -107 -272t-274 -106zM432 55q127 0 208 84t81 214t-81 213.5t-208 83.5t-208.5 -83.5t-81.5 -213.5t81.5 -214t208.5 -84z" />
    <glyph glyph-name="uni041F" unicode="&#x41f;" horiz-adv-x="749" 
d="M94 0v705h561v-705h-91v630h-378v-630h-92z" />
    <glyph glyph-name="uni0420" unicode="&#x420;" horiz-adv-x="671" 
d="M95 0v705h281q116 0 185 -58t68 -158q0 -99 -69.5 -157.5t-183.5 -58.5h-192v-273h-89zM184 354h192q76 0 119.5 36.5t43.5 98.5q0 63 -43.5 99.5t-119.5 36.5h-192v-271z" />
    <glyph glyph-name="uni0421" unicode="&#x421;" horiz-adv-x="803" 
d="M417 -25q-159 0 -262.5 107t-102.5 271q0 164 103 270.5t262 106.5q119 0 213.5 -72.5t121.5 -183.5l-89 -12q-20 82 -89.5 135t-156.5 53q-120 0 -197 -84t-77 -213t77.5 -213.5t196.5 -84.5q85 0 154.5 51.5t92.5 129.5l87 -17q-26 -105 -120.5 -174.5t-213.5 -69.5z
" />
    <glyph glyph-name="uni0422" unicode="&#x422;" horiz-adv-x="582" 
d="M246 0v625h-234v80h559v-80h-234v-625h-91z" />
    <glyph glyph-name="uni0423" unicode="&#x423;" horiz-adv-x="670" 
d="M149 -20q-61 0 -90 13v80q33 -12 73 -12q51 0 88.5 30.5t78.5 117.5l13 29l-277 467h97l219 -373h10l185 373h96l-250 -503q-65 -132 -113.5 -177t-129.5 -45z" />
    <glyph glyph-name="uni0424" unicode="&#x424;" horiz-adv-x="831" 
d="M369 -30v83q-147 5 -237.5 91.5t-90.5 211.5q0 127 90.5 213.5t238.5 90.5v75h91v-75q148 -2 238.5 -88.5t90.5 -215.5q0 -128 -91 -214.5t-239 -88.5v-83h-91zM370 133v446q-105 -3 -171.5 -67.5t-66.5 -154.5q0 -89 67 -154.5t171 -69.5zM461 133q104 0 171 65.5
t67 158.5q0 91 -67 156.5t-171 65.5v-446z" />
    <glyph glyph-name="uni0425" unicode="&#x425;" horiz-adv-x="711" 
d="M39 0l254 373l-244 332h103l196 -279h9l202 279h103l-250 -332l260 -373h-102l-213 313h-9l-207 -313h-102z" />
    <glyph glyph-name="uni0426" unicode="&#x426;" horiz-adv-x="800" 
d="M680 -151v151h-586v705h92v-626h381v626h91v-626h113v-230h-91z" />
    <glyph glyph-name="uni0427" unicode="&#x427;" horiz-adv-x="700" 
d="M514 0v318q-30 -43 -84.5 -68t-113.5 -25q-112 0 -182 64t-70 185v231h92v-222q0 -91 49.5 -137t130.5 -46q52 0 102.5 30.5t75.5 76.5v298h91v-705h-91z" />
    <glyph glyph-name="uni0428" unicode="&#x428;" horiz-adv-x="991" 
d="M94 0v705h92v-625h264v625h91v-625h264v625h91v-705h-802z" />
    <glyph glyph-name="uni0429" unicode="&#x429;" horiz-adv-x="1046" 
d="M926 -150v150h-832v705h92v-625h264v625h91v-625h264v625h91v-625h121v-230h-91z" />
    <glyph glyph-name="uni042A" unicode="&#x42a;" horiz-adv-x="745" 
d="M159 0v628h-129v77h220v-247h206q109 0 178.5 -66.5t69.5 -162.5q0 -97 -69.5 -163t-178.5 -66h-297zM252 80h189q75 0 123.5 41.5t48.5 106.5t-48.5 107t-123.5 42h-189v-297z" />
    <glyph glyph-name="uni042B" unicode="&#x42b;" horiz-adv-x="949" 
d="M94 0v705h92v-247h203q108 0 178 -66.5t70 -162.5q0 -97 -69.5 -163t-178.5 -66h-295zM764 0v705h91v-705h-91zM186 80h188q75 0 123.5 42t48.5 106q0 65 -48.5 107t-123.5 42h-188v-297z" />
    <glyph glyph-name="uni042C" unicode="&#x42c;" horiz-adv-x="679" 
d="M94 0v705h92v-247h203q108 0 178 -66.5t70 -162.5q0 -97 -69.5 -163t-178.5 -66h-295zM186 80h188q75 0 123.5 42t48.5 106q0 65 -48.5 107t-123.5 42h-188v-297z" />
    <glyph glyph-name="uni042D" unicode="&#x42d;" horiz-adv-x="822" 
d="M394 -25q-132 0 -228.5 74.5t-114.5 186.5l86 12q17 -82 88.5 -137.5t165.5 -55.5q116 0 196 72.5t91 185.5h-410v81h410q-12 114 -91.5 185t-195.5 71q-92 0 -164 -57t-89 -141l-85 11q18 114 114.5 190.5t226.5 76.5q164 0 270.5 -106.5t106.5 -270.5t-106.5 -271
t-270.5 -107z" />
    <glyph glyph-name="uni042E" unicode="&#x42e;" horiz-adv-x="1032" 
d="M636 -24q-142 0 -236 92.5t-106 245.5h-108v-314h-92v705h92v-311h108q11 152 105.5 244t236.5 92q153 0 249 -103.5t96 -273.5t-96.5 -273.5t-248.5 -103.5zM636 56q112 0 183 81.5t71 215.5q0 135 -71 216t-183 81t-182.5 -81t-70.5 -216q0 -134 70.5 -215.5
t182.5 -81.5z" />
    <glyph glyph-name="uni042F" unicode="&#x42f;" horiz-adv-x="709" 
d="M613 0h-91v276h-129l-245 -276h-114l255 281h-12q-98 5 -161 63t-63 147q0 97 69.5 155.5t183.5 58.5h307v-705zM522 356v269h-216q-75 0 -119 -36t-44 -98t43.5 -98.5t119.5 -36.5h216z" />
    <glyph glyph-name="uni0430" unicode="&#x430;" horiz-adv-x="553" 
d="M218 -16q-82 0 -131.5 39.5t-49.5 104.5q0 68 58 114t168 58l140 17v20q0 51 -35 81.5t-97 30.5q-58 0 -92 -26.5t-33 -73.5h-84q0 80 57 127.5t153 47.5q98 0 156 -51.5t58 -137.5v-335h-83v74h-9q-56 -90 -176 -90zM230 53q77 0 125 42t48 106v45l-140 -16
q-143 -18 -143 -100q0 -36 29.5 -56.5t80.5 -20.5z" />
    <glyph glyph-name="uni0431" unicode="&#x431;" horiz-adv-x="619" 
d="M318 -24q-110 0 -180.5 70.5t-70.5 182.5q0 114 8.5 192t27.5 134.5t53 88t80.5 45.5t115.5 14q61 0 87.5 11t26.5 36h73q0 -65 -44 -95t-135 -30q-112 0 -154.5 -47t-50.5 -178h10q51 85 167 85q108 0 172.5 -72t64.5 -184t-70.5 -182.5t-180.5 -70.5zM318 51
q74 0 121 51t47 130q0 78 -47 128t-121 50q-73 0 -120.5 -49.5t-47.5 -128.5t47.5 -130t120.5 -51z" />
    <glyph glyph-name="uni0432" unicode="&#x432;" horiz-adv-x="542" 
d="M77 0v505h253q68 0 112 -36t44 -90q0 -39 -21.5 -68t-55.5 -41v-10q41 -9 66.5 -38.5t25.5 -75.5q0 -64 -46.5 -105t-120.5 -41h-257zM160 300h161q36 0 59.5 19t23.5 47t-23.5 48t-59.5 20h-161v-134zM160 71h160q43 0 70.5 23.5t27.5 57.5q0 33 -27.5 54.5t-70.5 21.5
h-160v-157z" />
    <glyph glyph-name="uni0433" unicode="&#x433;" horiz-adv-x="458" 
d="M77 0v505h351v-75h-268v-430h-83z" />
    <glyph glyph-name="uni0434" unicode="&#x434;" horiz-adv-x="663" 
d="M20 -150v225h66q31 22 47 65t25 124l28 241h352v-430h85v-225h-74v150h-455v-150h-74zM172 75h283v355h-198l-24 -201q-12 -101 -61 -144v-10z" />
    <glyph glyph-name="uni0435" unicode="&#x435;" horiz-adv-x="635" 
d="M324 -20q-119 0 -196 79t-77 200q0 116 75.5 191t192.5 75q116 0 191 -75.5t75 -191.5q0 -22 -1 -33h-447q9 -77 60.5 -123.5t127.5 -46.5q57 0 103.5 26.5t69.5 71.5l69 -35q-30 -65 -94.5 -101.5t-148.5 -36.5zM138 298h359q-11 68 -60.5 110t-120.5 42
q-70 0 -118.5 -41.5t-59.5 -110.5z" />
    <glyph glyph-name="uni0436" unicode="&#x436;" horiz-adv-x="697" 
d="M4 0l219 263l-209 242h95l189 -219h10v219h83v-219h9l189 219h96l-210 -242l219 -263h-98l-196 239h-9v-239h-83v239h-10l-195 -239h-99z" />
    <glyph glyph-name="uni0437" unicode="&#x437;" horiz-adv-x="516" 
d="M272 -20q-97 0 -159.5 53.5t-62.5 136.5h83q0 -50 38.5 -82.5t99.5 -32.5q53 0 87 25.5t34 65.5q0 38 -28.5 58t-75.5 20h-90v75h91q40 0 65.5 20t25.5 51q0 36 -33 58t-84 22q-55 0 -90 -27t-35 -70h-80q-1 75 57.5 123.5t149.5 48.5q85 0 140.5 -42t55.5 -109
q0 -83 -83 -104v-10q45 -10 71 -42t26 -78q0 -71 -57 -115.5t-146 -44.5z" />
    <glyph glyph-name="uni0438" unicode="&#x438;" horiz-adv-x="615" 
d="M77 0v505h83v-387h9l269 387h101v-505h-83v386h-10l-268 -386h-101z" />
    <glyph glyph-name="uni0439" unicode="&#x439;" horiz-adv-x="615" 
d="M304 601q-58 0 -95.5 37.5t-37.5 96.5h70q0 -33 17 -53t46 -20q30 0 47 20t17 53h70q0 -59 -38 -96.5t-96 -37.5zM77 0v505h83v-387h9l269 387h101v-505h-83v386h-10l-268 -386h-101z" />
    <glyph glyph-name="uni043A" unicode="&#x43a;" horiz-adv-x="503" 
d="M77 0v505h83v-216h10l216 216h110l-249 -242l255 -263h-111l-221 235h-10v-235h-83z" />
    <glyph glyph-name="uni043B" unicode="&#x43b;" horiz-adv-x="565" 
d="M11 0v70q50 0 70.5 33.5t30.5 111.5l36 290h341v-505h-83v430h-184l-37 -263q-23 -167 -174 -167z" />
    <glyph glyph-name="uni043C" unicode="&#x43c;" horiz-adv-x="772" 
d="M77 0v505h120l183 -401h10l185 401h121v-505h-83v389h-10l-180 -389h-74l-180 389h-9v-389h-83z" />
    <glyph glyph-name="uni043D" unicode="&#x43d;" horiz-adv-x="614" 
d="M77 0v505h83v-212h295v212h83v-505h-83v218h-295v-218h-83z" />
    <glyph glyph-name="uni043E" unicode="&#x43e;" horiz-adv-x="642" 
d="M321 -20q-119 0 -195 76.5t-76 196.5q0 119 76 195.5t195 76.5t195 -76.5t76 -195.5q0 -120 -76 -196.5t-195 -76.5zM321 55q82 0 135 56t53 142t-53 141.5t-135 55.5t-135 -55.5t-53 -141.5t53 -142t135 -56z" />
    <glyph glyph-name="uni043F" unicode="&#x43f;" horiz-adv-x="624" 
d="M77 0v505h470v-505h-83v430h-304v-430h-83z" />
    <glyph glyph-name="uni0440" unicode="&#x440;" horiz-adv-x="666" 
d="M354 525q111 0 186 -77t75 -195t-74.5 -195.5t-185.5 -77.5q-61 0 -109.5 25t-76.5 70h-9v-305h-83v735h83v-77h9q59 97 185 97zM345 450q-81 0 -134.5 -56.5t-53.5 -140.5t53.5 -141t134.5 -57q80 0 133.5 57t53.5 141q0 85 -53 141t-134 56z" />
    <glyph glyph-name="uni0441" unicode="&#x441;" horiz-adv-x="612" 
d="M314 -20q-115 0 -189.5 77.5t-73.5 195.5q0 118 74.5 195t188.5 77q93 0 163 -52.5t83 -133.5l-80 -11q-14 54 -60.5 88t-104.5 34q-78 0 -130 -55.5t-51 -141.5q0 -87 51 -142.5t129 -55.5q59 0 105 33.5t62 86.5l81 -10q-17 -81 -87.5 -133t-160.5 -52z" />
    <glyph glyph-name="uni0442" unicode="&#x442;" horiz-adv-x="491" 
d="M205 0v430h-183v75h448v-75h-182v-430h-83z" />
    <glyph glyph-name="uni0443" unicode="&#x443;" horiz-adv-x="533" 
d="M126 -224q-43 0 -80 16v73q38 -15 67 -15q18 0 33.5 7t25 15t21 27.5t16 29.5t15.5 37t14 35l-225 504h87l173 -395h10l148 395h89l-200 -513q-16 -39 -23 -56t-22.5 -48.5t-28 -46.5t-31 -33t-41 -25t-48.5 -7z" />
    <glyph glyph-name="uni0444" unicode="&#x444;" horiz-adv-x="750" 
d="M334 -231v211q-123 5 -203.5 82t-80.5 192q0 113 80.5 189.5t203.5 81.5v211h83v-211q122 -5 202.5 -81.5t80.5 -189.5q0 -114 -80.5 -191.5t-202.5 -82.5v-211h-83zM334 55v395q-85 -4 -143 -60.5t-58 -135.5q0 -81 58 -138t143 -61zM417 55q84 4 142 61.5t58 137.5
q0 78 -58 134.5t-142 61.5v-395z" />
    <glyph glyph-name="uni0445" unicode="&#x445;" horiz-adv-x="512" 
d="M14 0l190 263l-180 242h89l138 -188h10l138 188h89l-180 -242l190 -263h-92l-145 206h-10l-145 -206h-92z" />
    <glyph glyph-name="uni0446" unicode="&#x446;" horiz-adv-x="645" 
d="M539 -150v150h-462v505h83v-430h285v430h83v-430h86v-225h-75z" />
    <glyph glyph-name="uni0447" unicode="&#x447;" horiz-adv-x="560" 
d="M403 0v227q-25 -35 -73 -57.5t-100 -22.5q-82 0 -135 56t-53 148v154h83v-154q0 -61 32 -94.5t91 -33.5q50 0 92 22.5t61 58.5v200h83v-504h-81z" />
    <glyph glyph-name="uni0448" unicode="&#x448;" horiz-adv-x="845" 
d="M77 0v505h83v-430h221v430h83v-430h222v430h83v-505h-692z" />
    <glyph glyph-name="uni0449" unicode="&#x449;" horiz-adv-x="886" 
d="M780 -150v150h-703v505h83v-430h221v430h83v-430h222v430h83v-430h86v-225h-75z" />
    <glyph glyph-name="uni044A" unicode="&#x44a;" horiz-adv-x="597" 
d="M134 0v430h-124v75h207v-155h139q91 0 146.5 -48t55.5 -126q0 -80 -55 -128t-147 -48h-222zM217 75h140q55 0 87.5 27t32.5 73t-33 73t-87 27h-140v-200z" />
    <glyph glyph-name="uni044B" unicode="&#x44b;" horiz-adv-x="703" 
d="M77 0v505h83v-155h108q91 0 146.5 -48t55.5 -126q0 -80 -55 -128t-147 -48h-191zM543 0v505h83v-505h-83zM160 75h108q55 0 87.5 27t32.5 73t-33 73t-87 27h-108v-200z" />
    <glyph glyph-name="uni044C" unicode="&#x44c;" horiz-adv-x="540" 
d="M77 0v505h83v-155h139q91 0 146.5 -48t55.5 -126q0 -80 -55 -128t-147 -48h-222zM160 75h139q55 0 87.5 27t32.5 73t-33 73t-87 27h-139v-200z" />
    <glyph glyph-name="uni044D" unicode="&#x44d;" horiz-adv-x="611" 
d="M298 -20q-91 0 -161 52t-87 133l81 10q15 -53 61 -86.5t106 -33.5q68 0 117.5 45t59.5 118h-256v70h256q-10 73 -59.5 117.5t-118.5 44.5q-58 0 -104.5 -34t-60.5 -88l-80 11q13 81 83 133.5t163 52.5q114 0 188.5 -77t74.5 -195q0 -119 -74 -196t-189 -77z" />
    <glyph glyph-name="uni044E" unicode="&#x44e;" horiz-adv-x="793" 
d="M493 -21q-102 0 -170 64.5t-77 170.5h-86v-215h-83v506h83v-216h85q12 106 79.5 171t168.5 65q110 0 180 -77t70 -197q0 -121 -69.5 -196.5t-180.5 -75.5zM493 54q78 0 122.5 53.5t44.5 143.5t-45 144.5t-122 54.5q-78 0 -123.5 -54.5t-45.5 -144.5t45.5 -143.5
t123.5 -53.5z" />
    <glyph glyph-name="uni044F" unicode="&#x44f;" horiz-adv-x="550" 
d="M50 0l161 187q-77 7 -118.5 51.5t-41.5 107.5q0 71 54.5 115t144.5 44h224v-505h-83v186h-88l-151 -186h-102zM250 261h141v169h-141q-53 0 -84.5 -23t-31.5 -61t31.5 -61.5t84.5 -23.5z" />
    <glyph glyph-name="uni0451" unicode="&#x451;" horiz-adv-x="635" 
d="M198 601q-24 0 -39.5 15.5t-15.5 38.5q0 24 15.5 39t39.5 15q25 0 40.5 -15t15.5 -39q0 -23 -15.5 -38.5t-40.5 -15.5zM438 601q-24 0 -39.5 15.5t-15.5 38.5q0 24 15.5 39t39.5 15t39.5 -15t15.5 -39q0 -23 -15.5 -38.5t-39.5 -15.5zM324 -20q-119 0 -196 79t-77 200
q0 116 75.5 191t192.5 75q116 0 191 -75.5t75 -191.5q0 -22 -1 -33h-447q9 -77 60.5 -123.5t127.5 -46.5q57 0 103.5 26.5t69.5 71.5l69 -35q-30 -65 -94.5 -101.5t-148.5 -36.5zM138 298h359q-11 68 -60.5 110t-120.5 42q-70 0 -118.5 -41.5t-59.5 -110.5z" />
    <glyph glyph-name="uni0452" unicode="&#x452;" horiz-adv-x="604" 
d="M326 -132q-45 0 -85 10v70q35 -8 68 -8q68 0 107 38t39 112v213q0 66 -37 106.5t-101 40.5q-65 0 -111 -44.5t-46 -110.5v-295h-83v590h-90v75h90v70h83v-70h130v-75h-130v-152h9q55 87 159 87q95 0 152.5 -62t57.5 -160v-215q0 -106 -57.5 -163t-154.5 -57z" />
    <glyph glyph-name="uni0453" unicode="&#x453;" horiz-adv-x="440" 
d="M197 593l108 142h94l-115 -142h-87zM77 0v505h351v-75h-268v-430h-83z" />
    <glyph glyph-name="uni0454" unicode="&#x454;" horiz-adv-x="611" 
d="M313 -20q-115 0 -189 77t-74 196q0 118 74.5 195t188.5 77q93 0 163 -52.5t83 -133.5l-80 -11q-14 54 -60.5 88t-104.5 34q-70 0 -119 -44.5t-59 -117.5h256v-70h-256q10 -73 59 -118t118 -45q60 0 105.5 33t61.5 87l81 -10q-17 -81 -87.5 -133t-160.5 -52z" />
    <glyph glyph-name="uni0455" unicode="&#x455;" horiz-adv-x="545" 
d="M285 -20q-109 0 -169.5 50.5t-60.5 140.5h81q1 -55 41 -88t110 -33q58 0 91.5 22.5t33.5 62.5q0 29 -21.5 46.5t-42 22t-68.5 10.5q-9 1 -13 2q-42 5 -72.5 12.5t-62.5 23.5t-49.5 45t-17.5 70q0 73 55.5 115.5t146.5 42.5q95 0 153.5 -46.5t58.5 -124.5h-81
q-1 46 -37 73.5t-95 27.5q-55 0 -89 -23t-34 -62q0 -22 10 -36t30.5 -21.5t40.5 -11t52 -7.5q7 -1 10 -1q34 -4 58.5 -9t54 -16.5t48 -27.5t31.5 -42.5t13 -61.5q0 -74 -54.5 -115t-151.5 -41z" />
    <glyph glyph-name="uni0456" unicode="&#x456;" horiz-adv-x="271" 
d="M136 601q-26 0 -43 17t-17 43q0 25 17 41.5t43 16.5t42.5 -16t16.5 -42t-16.5 -43t-42.5 -17zM94 0v505h83v-505h-83z" />
    <glyph glyph-name="uni0457" unicode="&#x457;" horiz-adv-x="236" 
d="M-2 601q-24 0 -39.5 15.5t-15.5 38.5q0 24 15.5 39t39.5 15q25 0 40 -15t15 -39q0 -23 -15.5 -38.5t-39.5 -15.5zM238 601q-24 0 -39.5 15.5t-15.5 38.5q0 24 15 39t40 15q24 0 39.5 -15t15.5 -39q0 -23 -15.5 -38.5t-39.5 -15.5zM76 0v505h83v-505h-83z" />
    <glyph glyph-name="uni0458" unicode="&#x458;" horiz-adv-x="264" 
d="M128 601q-26 0 -43 17t-17 43q0 25 17 41.5t43 16.5t43 -16.5t17 -41.5q0 -26 -17 -43t-43 -17zM34 -225q-51 0 -88 13v71q28 -9 65 -9q34 0 55 22t21 58v575h83v-575q0 -68 -38.5 -111.5t-97.5 -43.5z" />
    <glyph glyph-name="uni0459" unicode="&#x459;" horiz-adv-x="799" 
d="M11 0v70q50 0 70.5 33.5t30.5 111.5l36 290h313v-211h125q76 0 124.5 -41.5t48.5 -105.5t-49 -105.5t-124 -41.5h-208v436h-156l-37 -269q-23 -167 -174 -167zM461 75h125q40 0 65.5 20.5t25.5 51.5t-25.5 51.5t-65.5 20.5h-125v-144z" />
    <glyph glyph-name="uni045A" unicode="&#x45a;" horiz-adv-x="792" 
d="M77 0v505h83v-211h212v211h83v-211h124q76 0 124.5 -41.5t48.5 -105.5t-48.5 -105.5t-124.5 -41.5h-207v219h-212v-219h-83zM455 75h124q40 0 65.5 20t25.5 52q0 31 -25.5 51.5t-65.5 20.5h-124v-144z" />
    <glyph glyph-name="uni045B" unicode="&#x45b;" horiz-adv-x="604" 
d="M77 0v590h-90v75h90v70h83v-70h130v-75h-130v-152h9q55 87 159 87q95 0 152.5 -62t57.5 -160v-303h-83v303q0 66 -37 106.5t-101 40.5q-65 0 -111 -44.5t-46 -110.5v-295h-83z" />
    <glyph glyph-name="uni045C" unicode="&#x45c;" horiz-adv-x="503" 
d="M217 593l107 142h94l-115 -142h-86zM77 0v505h83v-216h9l216 216h110l-249 -242l255 -263h-111l-221 235h-9v-235h-83z" />
    <glyph glyph-name="uni045E" unicode="&#x45e;" horiz-adv-x="533" 
d="M276 601q-58 0 -95.5 37.5t-37.5 96.5h69q0 -33 17 -53t47 -20t47 20t17 53h70q0 -58 -38 -96t-96 -38zM126 -224q-43 0 -80 16v73q38 -15 67 -15q18 0 33.5 7t25 15t21 27.5t16 29.5t15.5 37t14 35l-225 504h87l173 -395h10l148 395h89l-200 -513q-16 -39 -23 -56
t-22.5 -48.5t-28 -46.5t-31 -33t-41 -25t-48.5 -7z" />
    <glyph glyph-name="uni045F" unicode="&#x45f;" horiz-adv-x="618" 
d="M267 -150v150h-190v505h83v-430h298v430h83v-505h-191v-150h-83z" />
    <glyph glyph-name="uni0490" unicode="&#x490;" horiz-adv-x="630" 
d="M94 0v705h427v114h79v-189h-414v-630h-92z" />
    <glyph glyph-name="uni0491" unicode="&#x491;" horiz-adv-x="440" 
d="M77 0v505h276v86h75v-161h-268v-430h-83z" />
    <glyph glyph-name="Wgrave" unicode="&#x1e80;" horiz-adv-x="1088" 
d="M592 788h-98l-110 113h103zM253 0l-205 705h88l180 -628h10l160 628h118l159 -628h10l180 628h87l-204 -705h-140l-147 595h-9l-147 -595h-140z" />
    <glyph glyph-name="wgrave" unicode="&#x1e81;" horiz-adv-x="840" 
d="M381 593l-114 142h94l107 -142h-87zM191 0l-169 505h82l141 -423h9l113 423h106l116 -424h9l138 424h82l-169 -505h-119l-105 409h-10l-106 -409h-118z" />
    <glyph glyph-name="Wacute" unicode="&#x1e82;" horiz-adv-x="1088" 
d="M499 788l105 113h103l-110 -113h-98zM253 0l-205 705h88l180 -628h10l160 628h118l159 -628h10l180 628h87l-204 -705h-140l-147 595h-9l-147 -595h-140z" />
    <glyph glyph-name="wacute" unicode="&#x1e83;" horiz-adv-x="840" 
d="M461 593h-87l107 142h94zM191 0l-169 505h82l141 -423h9l113 423h106l116 -424h9l138 424h82l-169 -505h-119l-105 409h-10l-106 -409h-118z" />
    <glyph glyph-name="Wdieresis" unicode="&#x1e84;" horiz-adv-x="1088" 
d="M430 790q-26 0 -42.5 17t-16.5 43t16.5 42t42.5 16t43 -16.5t17 -41.5q0 -26 -17 -43t-43 -17zM661 790q-26 0 -43 17t-17 43q0 25 17 41.5t43 16.5t43 -16.5t17 -41.5q0 -26 -17 -43t-43 -17zM253 0l-205 705h88l180 -628h10l160 628h118l159 -628h10l180 628h87
l-204 -705h-140l-147 595h-9l-147 -595h-140z" />
    <glyph glyph-name="wdieresis" unicode="&#x1e85;" horiz-adv-x="840" 
d="M301 601q-24 0 -39.5 15.5t-15.5 38.5q0 24 15.5 39t39.5 15q25 0 40 -15t15 -39q0 -23 -15 -38.5t-40 -15.5zM541 601q-25 0 -40 15.5t-15 38.5q0 24 15 39t40 15q24 0 39.5 -15t15.5 -39q0 -23 -15.5 -38.5t-39.5 -15.5zM191 0l-169 505h82l141 -423h9l113 423h106
l116 -424h9l138 424h82l-169 -505h-119l-105 409h-10l-106 -409h-118z" />
    <glyph glyph-name="uni1E9E" unicode="&#x1e9e;" horiz-adv-x="664" 
d="M398 -25q-65 0 -134 26v86q63 -33 129 -33q61 0 98.5 37t37.5 101q0 65 -42 105.5t-123 40.5h-44v74h44q46 0 75 30.5t29 77.5q0 54 -39.5 88.5t-101.5 34.5q-68 0 -109.5 -47t-41.5 -125v-471h-92v480q0 106 69 174.5t176 68.5q100 0 165.5 -55t65.5 -140
q0 -53 -25.5 -91t-68.5 -52v-9q67 -13 110.5 -66.5t43.5 -126.5q0 -88 -64 -148t-158 -60z" />
    <glyph glyph-name="Ygrave" unicode="&#x1ef2;" horiz-adv-x="660" 
d="M378 788h-99l-109 113h103zM285 0v258l-255 447h96l200 -360h10l196 360h98l-253 -447v-258h-92z" />
    <glyph glyph-name="ygrave" unicode="&#x1ef3;" horiz-adv-x="533" 
d="M236 593l-114 142h94l107 -142h-87zM126 -224q-43 0 -80 16v73q38 -15 67 -15q18 0 33.5 7t25 15t21 27.5t16 29.5t15.5 37t14 35l-225 504h87l173 -395h10l148 395h89l-200 -513q-16 -39 -23 -56t-22.5 -48.5t-28 -46.5t-31 -33t-41 -25t-48.5 -7z" />
    <glyph glyph-name="endash" unicode="&#x2013;" horiz-adv-x="670" 
d="M50 274v75h570v-75h-570z" />
    <glyph glyph-name="emdash" unicode="&#x2014;" horiz-adv-x="870" 
d="M50 274v75h770v-75h-770z" />
    <glyph glyph-name="quoteleft" unicode="&#x2018;" horiz-adv-x="213" 
d="M122 740l41 -10l-46 -116q43 -10 43 -55q0 -23 -15 -38.5t-40 -15.5q-24 0 -39.5 15.5t-15.5 38.5q0 18 11 43z" />
    <glyph glyph-name="quoteright" unicode="&#x2019;" horiz-adv-x="213" 
d="M91 503l-41 10l46 116q-43 10 -43 55q0 24 15.5 39t39.5 15t39.5 -15.5t15.5 -38.5q0 -18 -11 -43z" />
    <glyph glyph-name="quotesinglbase" unicode="&#x201a;" horiz-adv-x="213" 
d="M91 -138l-41 10l46 116q-20 5 -31.5 19.5t-11.5 34.5q0 24 15 39.5t40 15.5q24 0 39.5 -15.5t15.5 -39.5q0 -17 -11 -42z" />
    <glyph glyph-name="quotedblleft" unicode="&#x201c;" horiz-adv-x="377" 
d="M122 740l41 -10l-46 -116q43 -10 43 -55q0 -23 -15 -38.5t-40 -15.5q-24 0 -39.5 15.5t-15.5 38.5q0 18 11 43zM286 740l41 -10l-46 -116q43 -10 43 -55q0 -23 -15.5 -38.5t-39.5 -15.5t-39.5 15.5t-15.5 38.5q0 18 11 43z" />
    <glyph glyph-name="quotedblright" unicode="&#x201d;" horiz-adv-x="375" 
d="M91 503l-41 10l46 116q-43 10 -43 55q0 24 15.5 39t39.5 15t39.5 -15.5t15.5 -38.5q0 -18 -11 -43zM254 503l-41 10l46 116q-43 10 -43 55q0 24 15 39t40 15q24 0 39.5 -15.5t15.5 -38.5q0 -18 -11 -43z" />
    <glyph glyph-name="quotedblbase" unicode="&#x201e;" horiz-adv-x="377" 
d="M91 -138l-41 10l46 116q-20 5 -31.5 19.5t-11.5 34.5q0 24 15 39.5t40 15.5q24 0 39.5 -15.5t15.5 -39.5q0 -17 -11 -42zM255 -138l-41 10l46 116q-20 5 -31.5 19.5t-11.5 34.5q0 24 15.5 39.5t39.5 15.5t39.5 -15.5t15.5 -39.5q0 -17 -11 -42z" />
    <glyph glyph-name="dagger" unicode="&#x2020;" horiz-adv-x="510" 
d="M218 -225v504h-168v70h168v382h74v-382h168v-70h-168v-504h-74z" />
    <glyph glyph-name="daggerdbl" unicode="&#x2021;" horiz-adv-x="570" 
d="M248 -230v384h-198v67h198v186h-198v67h198v261h74v-261h198v-67h-198v-186h198v-67h-198v-384h-74z" />
    <glyph glyph-name="bullet" unicode="&#x2022;" horiz-adv-x="233" 
d="M117 246q-29 0 -47.5 18t-18.5 46t18.5 46t47.5 18t47.5 -18t18.5 -46t-18.5 -46t-47.5 -18z" />
    <glyph glyph-name="ellipsis" unicode="&#x2026;" horiz-adv-x="553" 
d="M105 -13q-24 0 -39.5 15.5t-15.5 39.5t15.5 39.5t39.5 15.5t39.5 -15.5t15.5 -39.5t-15.5 -39.5t-39.5 -15.5zM276 -13q-24 0 -39.5 15.5t-15.5 39.5t15.5 39.5t39.5 15.5q25 0 40.5 -15.5t15.5 -39.5t-15.5 -39.5t-40.5 -15.5zM448 -13q-25 0 -40 15.5t-15 39.5t15 39.5
t40 15.5q24 0 39.5 -15.5t15.5 -39.5t-15.5 -39.5t-39.5 -15.5z" />
    <glyph glyph-name="perthousand" unicode="&#x2030;" horiz-adv-x="1479" 
d="M253 342q-90 0 -146 56t-56 146q0 89 56 145t146 56t146 -56t56 -145q0 -90 -56 -146t-146 -56zM200 0l516 735h101l-516 -735h-101zM252 427q53 0 85 32t32 85q0 52 -32 84t-85 32q-52 0 -84 -32t-32 -84t32 -84.5t84 -32.5zM764 -10q-89 0 -145 56t-56 146
q0 89 56 145.5t145 56.5q90 0 146 -56.5t56 -145.5q0 -90 -56 -146t-146 -56zM1227 -10q-90 0 -146 56t-56 146q0 89 56 145t146 56t146 -56t56 -145q0 -90 -56 -146t-146 -56zM764 76q52 0 84.5 32t32.5 84t-32.5 84.5t-84.5 32.5t-84 -32.5t-32 -84.5t32 -84t84 -32z
M1226 76q53 0 85 32t32 84t-32.5 84.5t-84.5 32.5t-84 -32.5t-32 -84.5t32 -84t84 -32z" />
    <glyph glyph-name="guilsinglleft" unicode="&#x2039;" horiz-adv-x="363" 
d="M213 0l-200 253l200 252h99l-203 -252l203 -253h-99z" />
    <glyph glyph-name="guilsinglright" unicode="&#x203a;" horiz-adv-x="361" 
d="M149 0h-99l203 253l-203 252h99l200 -252z" />
    <glyph glyph-name="lira" unicode="&#x20a4;" horiz-adv-x="612" 
d="M51 0v90q39 6 65 36.5t36 104.5h-94v55h101q2 18 2 59h-103v58h103v128q0 87 55 142.5t139 55.5q86 0 143.5 -60t62.5 -153h-81q-3 61 -38 101t-86 40q-49 0 -79 -35.5t-30 -90.5v-128h248v-58h-248q0 -21 -2 -59h250v-58h-260q-10 -67 -34.5 -101.5t-65.5 -52.5v-10h424
v-64h-508z" />
    <glyph glyph-name="Euro" unicode="&#x20ac;" horiz-adv-x="906" 
d="M520 55q85 0 154.5 51.5t91.5 129.5l88 -17q-27 -105 -121.5 -174.5t-212.5 -69.5q-134 0 -230.5 77.5t-124.5 204.5h-114v61h105q-1 11 -1 35q0 13 2 39h-106v61h115q30 125 125.5 201t228.5 76q119 0 213.5 -72.5t120.5 -183.5l-89 -12q-19 82 -89 135t-156 53
q-95 0 -164 -53.5t-96 -143.5h295v-61h-307q-2 -26 -2 -39t2 -35h307v-61h-296q26 -92 96 -147t165 -55z" />
    <glyph glyph-name="uni20BD" unicode="&#x20bd;" horiz-adv-x="731" 
d="M436 705q117 0 186 -58t68 -158q-1 -99 -71 -157.5t-183 -58.5h-192v-75h202v-81h-202v-117h-88v117h-106v81h106v75h-106v81h106v351h280zM436 354q77 0 120.5 36.5t43.5 98.5q0 63 -44 99.5t-120 36.5h-192v-271h192z" />
    <glyph glyph-name="uni2116" unicode="&#x2116;" horiz-adv-x="931" 
d="M94 0v705h122l276 -575h10v575h85v-705h-122l-275 575h-10v-575h-86zM761 266q-49 0 -80 31t-31 78t31 78t80 31q50 0 80.5 -30.5t30.5 -78.5q0 -47 -31 -78t-80 -31zM762 323q23 0 38.5 15t15.5 37t-15.5 37t-38.5 15q-24 0 -39.5 -15t-15.5 -37t15.5 -37t39.5 -15z
M645 149v59h236v-59h-236z" />
    <glyph glyph-name="trademark" unicode="&#x2122;" horiz-adv-x="1102" 
d="M160 150v491h-149v64h372v-64h-151v-491h-72zM459 150v555h113l161 -451h9l160 451h115v-555h-70v451h-9l-167 -451h-66l-167 451h-9v-451h-70z" />
    <glyph glyph-name="arrowleft" unicode="&#x2190;" horiz-adv-x="640" 
d="M249 50l-199 203l199 203h108l-166 -162v-4h399v-74h-399v-4l166 -162h-108z" />
    <glyph glyph-name="arrowup" unicode="&#x2191;" horiz-adv-x="506" 
d="M216 0v400h-4l-162 -167v109l203 199l203 -199v-109l-162 167h-4v-400h-74z" />
    <glyph glyph-name="arrowright" unicode="&#x2192;" horiz-adv-x="640" 
d="M283 50l166 162v4h-399v74h399v4l-166 162h108l199 -203l-199 -203h-108z" />
    <glyph glyph-name="arrowdown" unicode="&#x2193;" horiz-adv-x="506" 
d="M253 0l-203 199v108l162 -166h4v400h74v-400h4l162 166v-108z" />
    <glyph glyph-name="uni2196" unicode="&#x2196;" horiz-adv-x="512" 
d="M409 53l-283 282l-3 -2l4 -233l-77 78l3 284l284 3l78 -77l-234 4l-2 -3l283 -283z" />
    <glyph glyph-name="uni2197" unicode="&#x2197;" horiz-adv-x="512" 
d="M103 53l-53 53l283 283l-2 3l-233 -4l77 77l284 -3l3 -284l-77 -78l4 233l-3 2z" />
    <glyph glyph-name="uni2198" unicode="&#x2198;" horiz-adv-x="512" 
d="M175 76l-77 77l233 -4l2 3l-283 283l53 53l283 -282l3 1l-4 234l77 -78l-3 -284z" />
    <glyph glyph-name="uni2199" unicode="&#x2199;" horiz-adv-x="512" 
d="M337 76l-284 3l-3 284l77 78l-4 -234l3 -1l283 282l53 -53l-283 -283l2 -3l234 4z" />
    <glyph glyph-name="minus" unicode="&#x2212;" horiz-adv-x="512" 
d="M51 326v75h410v-75h-410z" />
    <glyph glyph-name="notequal" unicode="&#x2260;" horiz-adv-x="571" 
d="M120 0l72 190h-141v75h169l66 175h-235v75h263l60 161h76l-61 -161h132v-75h-160l-65 -175h225v-75h-253l-71 -190h-77z" />
    <glyph glyph-name="lessequal" unicode="&#x2264;" horiz-adv-x="453" 
d="M403 200l-353 155v90l353 157v-82l-279 -114v-10l279 -116v-80zM50 80v75h353v-75h-353z" />
    <glyph glyph-name="greaterequal" unicode="&#x2265;" horiz-adv-x="453" 
d="M50 200v80l279 116v10l-279 114v82l353 -157v-90zM403 80h-353v75h353v-75z" />
    <glyph glyph-name="uniF6C3" unicode="&#xf6c3;" horiz-adv-x="0" 
d="M-111 -268l-34 10l37 74q-23 2 -38 16.5t-15 35.5q0 23 15.5 38.5t39.5 15.5q25 0 40.5 -15.5t15.5 -38.5t-12 -43z" />
    <glyph glyph-name="uni0430.alt1" unicode="&#xfb00;" horiz-adv-x="670" 
d="M311 -20q-113 0 -186.5 77t-73.5 196q0 118 73.5 195t186.5 77q117 0 190 -102h9v82h83v-505h-83v83h-9q-71 -103 -190 -103zM322 55q81 0 134 56t53 142q0 85 -53 141t-134 56q-82 0 -135 -55.5t-53 -141.5t53 -142t135 -56z" />
    <glyph glyph-name="a.alt1" horiz-adv-x="670" 
d="M311 -20q-113 0 -186.5 77t-73.5 196q0 118 73.5 195t186.5 77q117 0 190 -102h9v82h83v-505h-83v83h-9q-71 -103 -190 -103zM322 55q81 0 134 56t53 142q0 85 -53 141t-134 56q-82 0 -135 -55.5t-53 -141.5t53 -142t135 -56z" />
    <glyph glyph-name="agrave.alt1" horiz-adv-x="670" 
d="M289 593l-114 142h94l107 -142h-87zM311 -20q-113 0 -186.5 77t-73.5 196q0 118 73.5 195t186.5 77q117 0 190 -102h9v82h83v-505h-83v83h-9q-71 -103 -190 -103zM322 55q81 0 134 56t53 142q0 85 -53 141t-134 56q-82 0 -135 -55.5t-53 -141.5t53 -142t135 -56z" />
    <glyph glyph-name="aacute.alt1" horiz-adv-x="670" 
d="M369 593h-87l107 142h94zM311 -20q-113 0 -186.5 77t-73.5 196q0 118 73.5 195t186.5 77q117 0 190 -102h9v82h83v-505h-83v83h-9q-71 -103 -190 -103zM322 55q81 0 134 56t53 142q0 85 -53 141t-134 56q-82 0 -135 -55.5t-53 -141.5t53 -142t135 -56z" />
    <glyph glyph-name="atilde.alt1" horiz-adv-x="670" 
d="M394 593q-32 0 -56.5 14.5t-44 28.5t-39.5 14q-38 0 -59 -36l-44 33q14 30 44 49t66 19q37 0 77 -29t63 -29q42 0 61 38l45 -33q-14 -31 -44 -50t-69 -19zM311 -20q-113 0 -186.5 77t-73.5 196q0 118 73.5 195t186.5 77q117 0 190 -102h9v82h83v-505h-83v83h-9
q-71 -103 -190 -103zM322 55q81 0 134 56t53 142q0 85 -53 141t-134 56q-82 0 -135 -55.5t-53 -141.5t53 -142t135 -56z" />
    <glyph glyph-name="adieresis.alt1" horiz-adv-x="670" 
d="M209 601q-24 0 -39.5 15.5t-15.5 38.5q0 24 15.5 39t39.5 15t39.5 -15t15.5 -39q0 -23 -15.5 -38.5t-39.5 -15.5zM449 601q-25 0 -40.5 15.5t-15.5 38.5q0 24 15.5 39t40.5 15q24 0 39.5 -15t15.5 -39q0 -23 -15.5 -38.5t-39.5 -15.5zM311 -20q-113 0 -186.5 77
t-73.5 196q0 118 73.5 195t186.5 77q117 0 190 -102h9v82h83v-505h-83v83h-9q-71 -103 -190 -103zM322 55q81 0 134 56t53 142q0 85 -53 141t-134 56q-82 0 -135 -55.5t-53 -141.5t53 -142t135 -56z" />
    <glyph glyph-name="aring.alt1" horiz-adv-x="670" 
d="M329 588q-48 0 -78.5 29.5t-30.5 74.5q0 46 30.5 75t78.5 29t78 -29t30 -75q0 -45 -30 -74.5t-78 -29.5zM329 628q28 0 46 18t18 46t-18 46t-46 18q-29 0 -46.5 -18t-17.5 -46t18 -46t46 -18zM311 -20q-113 0 -186.5 77t-73.5 196q0 118 73.5 195t186.5 77
q117 0 190 -102h9v82h83v-505h-83v83h-9q-71 -103 -190 -103zM322 55q81 0 134 56t53 142q0 85 -53 141t-134 56q-82 0 -135 -55.5t-53 -141.5t53 -142t135 -56z" />
    <glyph glyph-name="amacron.alt1" horiz-adv-x="670" 
d="M174 602v66h310v-66h-310zM311 -20q-113 0 -186.5 77t-73.5 196q0 118 73.5 195t186.5 77q117 0 190 -102h9v82h83v-505h-83v83h-9q-71 -103 -190 -103zM322 55q81 0 134 56t53 142q0 85 -53 141t-134 56q-82 0 -135 -55.5t-53 -141.5t53 -142t135 -56z" />
    <glyph glyph-name="abreve.alt1" horiz-adv-x="670" 
d="M329 601q-59 0 -96.5 37.5t-37.5 96.5h70q0 -33 17 -53t47 -20q29 0 46.5 20t17.5 53h69q0 -58 -37.5 -96t-95.5 -38zM311 -20q-113 0 -186.5 77t-73.5 196q0 118 73.5 195t186.5 77q117 0 190 -102h9v82h83v-505h-83v83h-9q-71 -103 -190 -103zM322 55q81 0 134 56
t53 142q0 85 -53 141t-134 56q-82 0 -135 -55.5t-53 -141.5t53 -142t135 -56z" />
    <glyph glyph-name="aogonek.alt1" horiz-adv-x="670" 
d="M510 505h83v-505h-12q-56 -24 -86 -53t-30 -58q0 -19 11.5 -30t32.5 -11q26 0 58 20v-47q-39 -21 -74 -21q-34 0 -55 21.5t-21 55.5q0 70 93 126v80h-9q-71 -103 -190 -103q-113 0 -186.5 77t-73.5 196q0 118 73.5 195t186.5 77q117 0 190 -102h9v82zM322 55q81 0 134 56
t53 142q0 85 -53 141t-134 56q-82 0 -135 -55.5t-53 -141.5t53 -142t135 -56z" />
    <glyph glyph-name="acircumflex.alt1" horiz-adv-x="670" 
d="M170 593l114 142h93l115 -142h-82l-74 86h-10l-76 -86h-80zM311 -20q-113 0 -186.5 77t-73.5 196q0 118 73.5 195t186.5 77q117 0 190 -102h9v82h83v-505h-83v83h-9q-71 -103 -190 -103zM322 55q81 0 134 56t53 142q0 85 -53 141t-134 56q-82 0 -135 -55.5t-53 -141.5
t53 -142t135 -56z" />
    <glyph glyph-name="IJacute" horiz-adv-x="701" 
d="M88 788l105 113h103l-110 -113h-98zM506 788l105 113h103l-109 -113h-99zM95 0v705h91v-705h-91zM399 -20q-63 0 -128 20v78q59 -18 109 -18q63 0 102.5 41t39.5 110v494h91v-493q0 -103 -60 -167.5t-154 -64.5z" />
    <glyph glyph-name="ijacute" horiz-adv-x="485" 
d="M76 592l106 143h94l-113 -143h-87zM319 592l106 143h94l-113 -143h-87zM84 0v505h83v-505h-83zM278 -220q-50 0 -87 13v63q31 -10 65 -8q34 0 55 22t21 58v577h83v-580q0 -65 -38 -105t-99 -40z" />
    <glyph glyph-name="acute.case" horiz-adv-x="309" 
d="M51 788l105 113h103l-110 -113h-98z" />
    <glyph glyph-name="breve.case" horiz-adv-x="401" 
d="M201 778q-65 0 -107.5 35t-42.5 88h82q0 -28 18 -43.5t50 -15.5t50.5 15.5t18.5 43.5h81q0 -53 -42 -88t-108 -35z" />
    <glyph glyph-name="caron.case" horiz-adv-x="430" 
d="M166 788l-115 113h84l75 -62h11l74 62h85l-116 -113h-98z" />
    <glyph glyph-name="caron.alt1" horiz-adv-x="212" 
d="M101 526l-34 10l37 74q-23 2 -38 16t-15 35q0 24 15.5 39t39.5 15q25 0 40.5 -15t15.5 -39q0 -22 -12 -42z" />
    <glyph glyph-name="circumflex.case" horiz-adv-x="430" 
d="M166 902h97l116 -114h-84l-75 63h-10l-75 -63h-84z" />
    <glyph glyph-name="dieresis.case" horiz-adv-x="451" 
d="M110 790q-26 0 -42.5 17t-16.5 43t16.5 42t42.5 16t43 -16.5t17 -41.5q0 -26 -17 -43t-43 -17zM341 790q-26 0 -43 17t-17 43q0 25 17 41.5t43 16.5t42.5 -16t16.5 -42t-16.5 -43t-42.5 -17z" />
    <glyph glyph-name="dotaccent.case" horiz-adv-x="220" 
d="M110 790q-26 0 -42.5 17t-16.5 43t16.5 42t42.5 16t43 -16.5t17 -41.5q0 -26 -17 -43t-43 -17z" />
    <glyph glyph-name="grave.case" horiz-adv-x="308" 
d="M258 788h-98l-110 113h103z" />
    <glyph glyph-name="hungarumlaut.case" horiz-adv-x="456" 
d="M51 788l93 113h101l-107 -113h-87zM207 788l99 113h99l-112 -113h-86z" />
    <glyph glyph-name="ring.case" horiz-adv-x="299" 
d="M150 769q-43 0 -71 26.5t-28 67.5t28 67.5t71 26.5t70.5 -26.5t27.5 -67.5t-27.5 -67.5t-70.5 -26.5zM150 809q23 0 38.5 15.5t15.5 38.5q0 24 -15.5 39t-38.5 15q-24 0 -39 -15t-15 -39q0 -23 15 -38.5t39 -15.5z" />
    <glyph glyph-name="tilde.case" horiz-adv-x="457" 
d="M294 798q-32 0 -56.5 14t-43.5 28.5t-37 14.5q-37 0 -63 -46l-43 32q14 31 43 50t66 19q38 0 77.5 -28.5t60.5 -28.5q41 0 65 46l44 -32q-15 -32 -44.5 -50.5t-68.5 -18.5z" />
    <glyph glyph-name="uni0432.alt1" horiz-adv-x="594" 
d="M310 -20q-107 0 -175 66t-68 169v304q0 102 61.5 167.5t160.5 65.5q82 0 135.5 -45t53.5 -114q0 -52 -30 -101.5t-76 -75.5q77 -16 124.5 -73.5t47.5 -141.5q0 -99 -65.5 -160t-168.5 -61zM150 396q245 65 245 185q0 44 -29.5 70t-77.5 26q-61 0 -99.5 -41.5
t-38.5 -106.5v-133zM309 55q67 0 109.5 41t42.5 108q0 70 -46 116.5t-117 46.5q-105 -37 -148 -50v-104q0 -69 44 -113.5t115 -44.5z" />
    <glyph glyph-name="uni0433.alt" horiz-adv-x="545" 
d="M261 -20q-97 0 -151.5 41t-54.5 115q0 43 17.5 73.5t50.5 46.5t63 24t73 13q87 10 112 24q30 18 31 53q0 39 -34 62t-89 23q-59 0 -95 -27.5t-37 -73.5h-81q0 78 58.5 124.5t153.5 46.5q92 0 147.5 -42.5t55.5 -115.5q0 -41 -17.5 -70t-50 -45t-63 -23.5t-72.5 -12.5
q-87 -11 -111 -24q-34 -18 -34 -57q0 -40 34 -62.5t91 -22.5q70 0 110.5 33t41.5 88h80q0 -90 -60 -140.5t-169 -50.5z" />
    <glyph glyph-name="uni0414.alt1" horiz-adv-x="837" 
d="M23 -150v230h98l234 625h137l230 -625h91v-230h-82v150h-625v-150h-83zM216 80h410l-199 545h-10z" />
    <glyph glyph-name="uni0434.alt1" horiz-adv-x="666" 
d="M321 -250q-97 0 -165.5 44.5t-94.5 123.5l83 31q20 -59 67 -91.5t114 -32.5q83 0 132.5 49.5t49.5 134.5v68h-10q-71 -90 -184 -90q-114 0 -188 75t-74 191q0 117 74 194t188 77q115 0 185 -91h10v72h82v-496q0 -118 -73.5 -188.5t-195.5 -70.5zM322 60q82 0 135 55
t53 138q0 85 -53.5 141t-134.5 56q-82 0 -135 -55.5t-53 -141.5q0 -83 53 -138t135 -55z" />
    <glyph glyph-name="uni0437.alt1" horiz-adv-x="530" 
d="M255 -250q-103 0 -172 60t-69 151h83q0 -62 43.5 -99t110.5 -37q71 0 114 42.5t43 109.5q0 61 -36.5 98t-93.5 37h-116v75h117q51 0 83.5 36t32.5 91q0 60 -39.5 98t-101.5 38q-60 0 -100 -36t-40 -91h-82q-1 85 63 143.5t161 58.5q95 0 157.5 -56t62.5 -144
q0 -60 -29.5 -105.5t-77.5 -62.5v-10q54 -15 88 -66t34 -118q0 -93 -65.5 -153t-170.5 -60z" />
    <glyph glyph-name="uni0436.alt" horiz-adv-x="697" 
d="M4 0l220 263l-210 242h95l189 -219h10v449h83v-449h9l189 219h96l-210 -242l219 -263h-98l-196 238h-9v-238h-83v238h-10l-195 -238h-99z" />
    <glyph glyph-name="uni0438.alt1" 
d="M528 505v-505h-83v69h-10q-55 -87 -158 -87q-96 0 -153 62t-57 160v301h83v-301q0 -66 36.5 -106.5t100.5 -40.5q65 0 111.5 44t46.5 110v294h83z" />
    <glyph glyph-name="uni0439.alt1" 
d="M295 601q-58 0 -95.5 37.5t-37.5 96.5h69q0 -33 17 -53t47 -20q29 0 46.5 20t17.5 53h69q0 -58 -37.5 -96t-95.5 -38zM528 505v-505h-83v69h-10q-55 -87 -158 -87q-96 0 -153 62t-57 160v301h83v-301q0 -66 36.5 -106.5t100.5 -40.5q65 0 111.5 44t46.5 110v294h83z" />
    <glyph glyph-name="uni043A.alt1" horiz-adv-x="503" 
d="M77 0v735h83v-446h10l216 216h110l-249 -242l255 -263h-111l-221 235h-10v-235h-83z" />
    <glyph glyph-name="uni041B.alt1" horiz-adv-x="712" 
d="M30 0l261 705h136l256 -705h-96l-225 625h-9l-227 -625h-96z" />
    <glyph glyph-name="uni043B.alt1" horiz-adv-x="548" 
d="M13 0l197 505h128l198 -505h-88l-169 440h-10l-166 -440h-90z" />
    <glyph glyph-name="uni0442.alt1" horiz-adv-x="928" 
d="M77 0v505h80v-67h10q22 40 60.5 63.5t86.5 23.5q53 0 98 -27t67 -71h9q58 97 169 97q89 0 146.5 -62.5t57.5 -160.5v-301h-83v302q0 64 -37 106t-94 42q-61 0 -99.5 -41.5t-38.5 -106.5v-302h-83v302q0 67 -35.5 107.5t-94.5 40.5q-61 0 -98.5 -40.5t-37.5 -107.5v-302
h-83z" />
    <glyph glyph-name="uni043F.alt1" 
d="M77 0v505h83v-69h10q57 88 159 88q95 0 152.5 -62.5t57.5 -159.5v-302h-83v302q0 65 -37 106t-101 41q-65 0 -111.5 -44.5t-46.5 -109.5v-295h-83z" />
    <glyph glyph-name="uni0446.alt1" horiz-adv-x="631" 
d="M543 -150v150h-99v67h-10q-56 -85 -158 -85q-95 0 -152 62t-57 160v303h83v-303q0 -66 36 -106.5t100 -40.5q65 0 111.5 44t46.5 110v294h83v-430h91v-225h-75z" />
    <glyph glyph-name="uni0448.alt1" horiz-adv-x="928" 
d="M852 505v-505h-81v68h-9q-22 -40 -61 -64t-87 -24q-53 0 -98 27t-66 72h-10q-56 -98 -169 -98q-89 0 -146.5 62.5t-57.5 160.5v301h83v-302q0 -65 37 -106.5t95 -41.5q60 0 98.5 41.5t38.5 106.5v302h83v-302q0 -67 35.5 -107.5t94.5 -40.5q62 0 99.5 40.5t37.5 107.5
v302h83z" />
    <glyph glyph-name="uni0449.alt1" horiz-adv-x="955" 
d="M867 -150v150h-97v68h-9q-22 -40 -61 -64t-87 -24q-53 0 -99 27t-68 72h-9q-57 -98 -167 -98q-89 0 -146 63t-57 160v301h83v-302q0 -64 37 -106t94 -42q60 0 98.5 41.5t38.5 106.5v302h83v-302q0 -67 35.5 -107.5t94.5 -40.5q62 0 99.5 40.5t37.5 107.5v302h83v-430h91
v-225h-75z" />
    <glyph glyph-name="uni044A.alt1" horiz-adv-x="551" 
d="M329 0q-83 0 -137.5 49t-54.5 125v256h-124v75h207v-155h109q84 0 138 -49.5t54 -124.5q0 -77 -54.5 -126.5t-137.5 -49.5zM329 75q47 0 78 28.5t31 71.5q0 44 -30 72t-79 28h-109v-102q0 -43 31 -70.5t78 -27.5z" />
    <glyph glyph-name="uni044C.alt1" horiz-adv-x="481" 
d="M259 0q-84 0 -138 49t-54 125v331h83v-155h109q84 0 138 -49.5t54 -124.5q0 -77 -54.5 -126.5t-137.5 -49.5zM259 75q47 0 78 28.5t31 71.5q0 44 -30 72t-79 28h-109v-102q0 -43 31 -70.5t78 -27.5z" />
    <glyph glyph-name="uni044E.alt1" horiz-adv-x="793" 
d="M488 -23q-102 0 -172.5 67t-79.5 173h-76v-222h-83v740h83v-448h75q12 105 82 170.5t171 65.5q111 0 183 -76.5t72 -195.5q0 -120 -72 -197t-183 -77zM488 52q78 0 127 54.5t49 144.5q0 89 -49 143t-127 54q-79 0 -127.5 -54t-48.5 -143q0 -90 48.5 -144.5t127.5 -54.5z
" />
    <glyph glyph-name="uni0424.alt1" horiz-adv-x="876" 
d="M392 -64v61q-149 9 -245 108t-96 248t96.5 248t245.5 107v52h91v-52q149 -6 245 -105t96 -250q0 -152 -96 -251t-246 -105v-61h-91zM393 78v550q-110 -7 -180.5 -83.5t-70.5 -191.5q0 -116 70.5 -192t180.5 -83zM484 78q110 4 180 80.5t70 194.5t-70 194t-180 81v-550z
" />
    </font>
</defs>
</svg>
